<svg width="124" height="61" viewBox="0 0 124 61" fill="none" xmlns="http://www.w3.org/2000/svg">
<g clip-path="url(#clip0_0_465)">
<path d="M100.359 36.1972C100.359 37.2003 100.189 38.1515 99.8517 39.0508C99.513 39.9487 99.0524 40.7364 98.4684 41.4138C97.8845 42.0912 97.2019 42.6271 96.4207 43.0242C95.6382 43.4213 94.8155 43.6198 93.9525 43.6198C92.9715 43.6198 91.9749 43.4849 90.9588 43.2176C89.944 42.949 88.9812 42.5817 88.0702 42.1146C87.4759 41.8096 86.9296 41.4605 86.404 41.0907C86.8128 39.8553 87.0295 38.5537 87.0295 37.1782V22.9052H79.9234V38.0022C79.9234 39.0053 79.7534 39.9565 79.416 40.8558C79.0774 41.7538 78.6167 42.5415 78.0327 43.2189C77.4488 43.8962 76.7662 44.4322 75.985 44.8293C75.2947 45.1796 74.5718 45.3639 73.8192 45.4054H42.2638V0.390625H34.457V48.4147H77.2567C77.2567 48.4147 77.2606 48.4147 77.2632 48.4147C78.6167 48.4147 79.8832 48.1176 81.0615 47.5219C82.2398 46.9263 83.2727 46.1218 84.1603 45.107C84.6599 44.5347 85.0933 43.9014 85.4736 43.2189C85.6708 43.4187 85.8732 43.6173 86.0926 43.8119C87.1307 44.7332 88.2804 45.5326 89.5405 46.21C90.8005 46.8861 92.1371 47.4233 93.549 47.8204C94.9608 48.2162 96.3441 48.416 97.6976 48.416C99.0511 48.416 100.318 48.1189 101.496 47.5232C102.674 46.9276 103.707 46.123 104.595 45.1083C105.481 44.0922 106.182 42.9022 106.696 41.5371C107.208 40.1719 107.465 38.7186 107.465 37.1782V22.9052H100.359V36.1985V36.1972Z" fill="#00333C"/>
<path d="M19.4845 21.3481L27.2926 10.8889V48.4149H0V45.403H19.4845V21.3481Z" fill="#00333C"/>
<path d="M104.173 57.97C104.887 56.2452 104.068 54.2677 102.343 53.5533C100.618 52.8388 98.6409 53.6579 97.9264 55.3827C97.212 57.1076 98.0311 59.085 99.7559 59.7995C101.481 60.5139 103.458 59.6949 104.173 57.97Z" fill="#00333C"/>
<path d="M93.0875 60.0577C94.9544 60.0577 96.4679 58.5443 96.4679 56.6773C96.4679 54.8103 94.9544 53.2969 93.0875 53.2969C91.2205 53.2969 89.707 54.8103 89.707 56.6773C89.707 58.5443 91.2205 60.0577 93.0875 60.0577Z" fill="#00333C"/>
<path d="M72.8101 60.0577C74.6771 60.0577 76.1905 58.5443 76.1905 56.6773C76.1905 54.8103 74.6771 53.2969 72.8101 53.2969C70.9432 53.2969 69.4297 54.8103 69.4297 56.6773C69.4297 58.5443 70.9432 60.0577 72.8101 60.0577Z" fill="#00333C"/>
<path d="M116.498 22.9036V48.9751C116.498 50.1417 116.409 51.1111 116.235 51.8806C116.06 52.6501 115.815 53.2691 115.5 53.7362C115.253 54.1022 114.961 54.3825 114.629 54.5823V57.349C115.014 57.2802 115.393 57.2036 115.762 57.1141C117.349 56.7287 118.72 55.9527 119.875 54.7861C121.03 53.6182 121.935 51.9506 122.589 49.7796C123.243 47.6086 123.57 44.7382 123.57 41.167V22.9023H116.498V22.9036Z" fill="#00333C"/>
<path d="M60.7111 9.25364C61.334 9.09662 61.9036 8.88121 62.4227 8.61C62.9418 8.33878 63.3856 8.01566 63.7515 7.63674C64.1201 7.26172 64.4055 6.83998 64.6106 6.37411C64.8117 5.90436 64.9129 5.40346 64.9129 4.86752C64.9129 4.21998 64.7806 3.61916 64.5197 3.07284C64.255 2.52393 63.8618 2.05028 63.3441 1.6506C62.8263 1.25351 62.1749 0.944668 61.3963 0.721469C60.6203 0.502163 59.7158 0.390564 58.6867 0.390564H52.7188V17.5938H55.6125V9.51058H57.6369L63.6153 17.5938H66.9749L60.7111 9.25364ZM59.0838 8.3842C58.5349 8.55809 57.9367 8.64114 57.2852 8.64114H55.6125V1.46893H58.1547C58.6828 1.46893 59.1708 1.55587 59.6159 1.72586C60.061 1.89975 60.4438 2.13982 60.7708 2.44607C61.0939 2.75621 61.3444 3.12475 61.5221 3.55558C61.6999 3.9903 61.7869 4.46395 61.7869 4.98561C61.7869 5.5462 61.6753 6.05359 61.4495 6.50258C61.2263 6.95158 60.9135 7.33439 60.5099 7.64972C60.1064 7.96635 59.634 8.21031 59.0838 8.3842Z" fill="#00333C"/>
<path d="M69.3242 0.390564V17.5938H72.218V0.390564H69.3242Z" fill="#00333C"/>
<path d="M90.6498 11.3611C90.4591 10.8809 90.1905 10.4605 89.8401 10.1023C89.4884 9.74416 89.068 9.44829 88.5736 9.21601C88.0831 8.97983 87.5264 8.81633 86.9151 8.7216V8.66969C87.5276 8.37382 88.0389 8.08833 88.4386 7.80674C88.8422 7.52515 89.1614 7.22538 89.4054 6.91265C89.6493 6.59601 89.8154 6.25213 89.9102 5.8797C90.0075 5.50727 90.0568 5.08293 90.0568 4.60669C90.0568 3.98381 89.9037 3.41413 89.6013 2.89506C89.299 2.376 88.8707 1.93219 88.3244 1.55976C87.7755 1.18733 87.1176 0.89925 86.352 0.696814C85.5863 0.495675 84.7454 0.390564 83.8267 0.390564H76.9023V17.5938H84.9297C85.8485 17.5938 86.6764 17.4718 87.4161 17.2317C88.1531 16.9877 88.7864 16.6581 89.3081 16.2364C89.8297 15.8185 90.2333 15.3254 90.5149 14.7584C90.7965 14.1913 90.9353 13.5827 90.9353 12.9364C90.9353 12.3654 90.8419 11.8412 90.6498 11.3611ZM79.791 1.53511H82.18C83.0429 1.53511 83.7839 1.61167 84.4029 1.76869C85.0219 1.92181 85.5331 2.14761 85.9328 2.44348C86.3364 2.73545 86.6323 3.09101 86.823 3.50108C87.0112 3.91114 87.1085 4.36662 87.1085 4.86752C87.1085 5.33338 87.028 5.7681 86.8684 6.17168C86.7088 6.57525 86.4713 6.91913 86.1625 7.20851C85.8498 7.50049 85.4708 7.72628 85.018 7.88979C84.569 8.0533 84.0551 8.13635 83.4776 8.13635H79.791V1.53511ZM87.5303 14.3768C87.3356 14.7843 87.0358 15.1321 86.6362 15.4202C86.2326 15.7121 85.7213 15.9353 85.1062 16.0949C84.4872 16.2546 83.7566 16.335 82.9183 16.335H79.791V9.20173H82.8275C83.7527 9.20173 84.5352 9.29906 85.1685 9.5002C85.8043 9.69874 86.3195 9.96995 86.7127 10.3112C87.1059 10.6525 87.3914 11.0561 87.5614 11.522C87.7353 11.9917 87.8222 12.4952 87.8222 13.0415C87.8222 13.5256 87.7249 13.9707 87.5303 14.3768Z" fill="#00333C"/>
<path d="M101.433 -6.10352e-05H100.706L92.4141 17.5924H93.8675L96.5809 11.8567H103.962L106.581 17.5924H109.526L101.433 -6.10352e-05ZM97.0857 10.7433L100.303 3.93317L103.43 10.7433H97.0857Z" fill="#00333C"/>
<path d="M114.808 16.4751V7.69637L111.914 5.53705V17.5911H123.472V16.4751H114.808Z" fill="#00333C"/>
<path d="M118.895 0.350907V0.545557H119.681V2.61404H120.235V0.54426H121.016V0.349609H118.895V0.350907Z" fill="#00333C"/>
<path d="M123.471 0.351562L122.697 1.89838L121.916 0.351562H121.379V2.6134H121.731V1.12497L122.491 2.6134H122.706L123.446 1.14054V2.6134H123.996V0.351562H123.471Z" fill="#00333C"/>
<path d="M114.805 -6.10352e-05H111.91V3.49586L114.805 5.65518V-6.10352e-05Z" fill="#FF4900"/>
<path d="M27.2924 0.390564V6.23786L19.4844 16.6958V0.390564H27.2924Z" fill="#FF4900"/>
</g>
<defs>
<clipPath id="clip0_0_465">
<rect width="124" height="60.0574" fill="white"/>
</clipPath>
</defs>
</svg>
