<svg width="152" height="32" viewBox="0 0 152 32" fill="none" xmlns="http://www.w3.org/2000/svg">
<rect width="32" height="32" rx="16" fill="#2A2E2A"/>
<g clip-path="url(#clip0_464_33294)">
<g clip-path="url(#clip1_464_33294)">
<path d="M17.5714 17.1806H19.5416L20.3296 14.0285H17.5714V12.4524C17.5714 11.6407 17.5714 10.8763 19.1476 10.8763H20.3296V8.22849C20.0727 8.19461 19.1026 8.11816 18.0782 8.11816C15.9386 8.11816 14.4193 9.42396 14.4193 11.822V14.0285H12.0552V17.1806H14.4193V23.8791H17.5714V17.1806Z" fill="#6AE499"/>
</g>
</g>
<rect x="40" width="32" height="32" rx="16" fill="#2A2E2A"/>
<g clip-path="url(#clip2_464_33294)">
<g clip-path="url(#clip3_464_33294)">
<path d="M64.0085 11.0006C63.4069 11.2667 62.7689 11.4415 62.1156 11.5192C62.8042 11.1074 63.3195 10.4593 63.5656 9.69563C62.9194 10.0802 62.2109 10.3497 61.4726 10.4955C60.9766 9.96481 60.3192 9.61286 59.6026 9.49435C58.8858 9.37585 58.1501 9.49743 57.5097 9.8402C56.8692 10.183 56.36 10.7277 56.0612 11.3898C55.7623 12.0518 55.6905 12.794 55.857 13.5011C54.5465 13.4354 53.2646 13.0949 52.0943 12.5016C50.924 11.9083 49.8916 11.0755 49.064 10.0573C48.7711 10.5605 48.6172 11.1324 48.618 11.7146C48.618 12.8573 49.1996 13.8667 50.0838 14.4578C49.5605 14.4413 49.0488 14.3 48.5912 14.0456V14.0866C48.5914 14.8476 48.8547 15.5852 49.3366 16.1741C49.8184 16.7632 50.4892 17.1675 51.2351 17.3184C50.7494 17.45 50.24 17.4694 49.7457 17.3751C49.956 18.0302 50.3659 18.6031 50.918 19.0136C51.4701 19.4241 52.1367 19.6516 52.8246 19.6644C52.1409 20.2013 51.3582 20.5982 50.521 20.8324C49.6839 21.0666 48.8088 21.1335 47.9458 21.0293C49.4523 21.9981 51.206 22.5125 52.9972 22.5108C59.0596 22.5108 62.3749 17.4886 62.3749 13.1331C62.3749 12.9912 62.3709 12.8478 62.3646 12.7075C63.0099 12.2411 63.5669 11.6634 64.0093 11.0014L64.0085 11.0006Z" fill="#6AE499"/>
</g>
</g>
<rect x="80" width="32" height="32" rx="16" fill="#2A2E2A"/>
<g clip-path="url(#clip4_464_33294)">
<g clip-path="url(#clip5_464_33294)">
<path d="M92.012 10.4841C92.0118 10.9021 91.8456 11.3029 91.5498 11.5983C91.2541 11.8938 90.8532 12.0596 90.4352 12.0594C90.0172 12.0592 89.6164 11.8929 89.3209 11.5972C89.0255 11.3015 88.8596 10.9005 88.8599 10.4825C88.8601 10.0645 89.0263 9.66372 89.322 9.3683C89.6178 9.07288 90.0187 8.90702 90.4367 8.90723C90.8547 8.90743 91.2555 9.07369 91.551 9.36941C91.8464 9.66514 92.0122 10.0661 92.012 10.4841ZM92.0593 13.2265H88.9071V23.0928H92.0593V13.2265ZM97.0398 13.2265H93.9033V23.0928H97.0083V17.9154C97.0083 15.0311 100.767 14.7632 100.767 17.9154V23.0928H103.88V16.8436C103.88 11.9814 98.3164 12.1626 97.0083 14.5504L97.0398 13.2265Z" fill="#6AE499"/>
</g>
</g>
<rect x="120" width="32" height="32" rx="16" fill="#2A2E2A"/>
<g clip-path="url(#clip6_464_33294)">
<g clip-path="url(#clip7_464_33294)">
<path d="M135.998 8.11816C138.139 8.11816 138.406 8.12605 139.246 8.16545C140.086 8.20485 140.657 8.33646 141.16 8.53189C141.68 8.73205 142.118 9.00314 142.556 9.44051C142.957 9.83445 143.267 10.311 143.465 10.8369C143.659 11.3389 143.792 11.911 143.831 12.7503C143.868 13.5903 143.879 13.8575 143.879 15.9986C143.879 18.1397 143.871 18.4069 143.831 19.2469C143.792 20.0862 143.659 20.6575 143.465 21.1603C143.268 21.6865 142.957 22.1632 142.556 22.5567C142.162 22.9573 141.686 23.2673 141.16 23.4654C140.658 23.66 140.086 23.7924 139.246 23.8318C138.406 23.8688 138.139 23.8791 135.998 23.8791C133.857 23.8791 133.59 23.8711 132.75 23.8318C131.911 23.7924 131.339 23.66 130.836 23.4654C130.31 23.2679 129.834 22.9577 129.44 22.5567C129.039 22.1628 128.729 21.6863 128.531 21.1603C128.336 20.6583 128.204 20.0862 128.165 19.2469C128.128 18.4069 128.118 18.1397 128.118 15.9986C128.118 13.8575 128.126 13.5903 128.165 12.7503C128.204 11.9102 128.336 11.3397 128.531 10.8369C128.729 10.3106 129.039 9.83399 129.44 9.44051C129.834 9.03957 130.31 8.72947 130.836 8.53189C131.339 8.33646 131.91 8.20485 132.75 8.16545C133.59 8.12841 133.857 8.11816 135.998 8.11816ZM135.998 12.0584C134.953 12.0584 133.951 12.4735 133.212 13.2124C132.473 13.9514 132.058 14.9536 132.058 15.9986C132.058 17.0436 132.473 18.0458 133.212 18.7848C133.951 19.5237 134.953 19.9388 135.998 19.9388C137.043 19.9388 138.045 19.5237 138.784 18.7848C139.523 18.0458 139.938 17.0436 139.938 15.9986C139.938 14.9536 139.523 13.9514 138.784 13.2124C138.045 12.4735 137.043 12.0584 135.998 12.0584ZM141.12 11.8614C141.12 11.6001 141.017 11.3496 140.832 11.1648C140.647 10.9801 140.397 10.8763 140.135 10.8763C139.874 10.8763 139.624 10.9801 139.439 11.1648C139.254 11.3496 139.15 11.6001 139.15 11.8614C139.15 12.1226 139.254 12.3732 139.439 12.5579C139.624 12.7426 139.874 12.8464 140.135 12.8464C140.397 12.8464 140.647 12.7426 140.832 12.5579C141.017 12.3732 141.12 12.1226 141.12 11.8614ZM135.998 13.6345C136.625 13.6345 137.226 13.8835 137.67 14.3269C138.113 14.7703 138.362 15.3716 138.362 15.9986C138.362 16.6256 138.113 17.227 137.67 17.6703C137.226 18.1136 136.625 18.3627 135.998 18.3627C135.371 18.3627 134.77 18.1136 134.326 17.6703C133.883 17.227 133.634 16.6256 133.634 15.9986C133.634 15.3716 133.883 14.7703 134.326 14.3269C134.77 13.8835 135.371 13.6345 135.998 13.6345Z" fill="#6AE499"/>
</g>
</g>
<defs>
<clipPath id="clip0_464_33294">
<rect width="18.913" height="18.913" fill="white" transform="translate(6.54346 6.54395)"/>
</clipPath>
<clipPath id="clip1_464_33294">
<rect width="18.913" height="18.913" fill="white" transform="translate(6.54346 6.54395)"/>
</clipPath>
<clipPath id="clip2_464_33294">
<rect width="18.913" height="18.913" fill="white" transform="translate(46.5435 6.54395)"/>
</clipPath>
<clipPath id="clip3_464_33294">
<rect width="18.913" height="18.913" fill="white" transform="translate(46.5435 6.54395)"/>
</clipPath>
<clipPath id="clip4_464_33294">
<rect width="18.913" height="18.913" fill="white" transform="translate(86.5435 6.54395)"/>
</clipPath>
<clipPath id="clip5_464_33294">
<rect width="18.913" height="18.913" fill="white" transform="translate(86.5435 6.54395)"/>
</clipPath>
<clipPath id="clip6_464_33294">
<rect width="18.913" height="18.913" fill="white" transform="translate(126.543 6.54395)"/>
</clipPath>
<clipPath id="clip7_464_33294">
<rect width="18.913" height="18.913" fill="white" transform="translate(126.543 6.54395)"/>
</clipPath>
</defs>
</svg>
