<svg width="32" height="32" viewBox="0 0 32 32" fill="none" xmlns="http://www.w3.org/2000/svg">
<g clip-path="url(#clip0_464_35824)">
<path d="M-7.99693 0H40.0029V31.9999H-7.99693V0Z" fill="black"/>
<path d="M-7.99693 0H40.0029V21.3332H-7.99693V0Z" fill="white"/>
<path d="M-7.99693 0H40.0029V10.6666H-7.99693V0Z" fill="#CE1126"/>
<path d="M16.0445 16.1265L19.6972 19.5173L19.4371 13.359C19.3989 12.4256 18.5879 12.6398 17.9987 12.9765C17.4019 13.359 16.7209 13.359 16.0016 13.1064C15.2824 13.359 14.6014 13.359 14.0046 12.9764C13.4155 12.6398 12.6045 12.4256 12.5662 13.359L12.306 19.5173L16.0445 16.1265Z" fill="white" stroke="#C09300" stroke-width="0.0673149" stroke-linejoin="round"/>
<path d="M12.987 13.1474L12.7345 19.1377L12.306 19.52L12.5662 13.3617C12.6885 13.2775 12.9029 13.1474 12.987 13.1474ZM13.5001 13.5762L13.2858 18.5871L12.8575 19.0255L13.1176 13.2394C13.2018 13.3235 13.4543 13.53 13.5001 13.5759V13.5762ZM13.9667 13.9586L13.7985 18.1378L13.4542 18.4744L13.6685 13.7061C13.7524 13.7902 13.9208 13.9127 13.9667 13.9586ZM14.4718 14.173L14.3035 17.7349L13.9668 18.008L14.1351 14.0429C14.2193 14.0812 14.3876 14.173 14.4718 14.173ZM14.9385 14.173L14.816 17.1413L14.4717 17.478L14.6018 14.2112C14.6858 14.2112 14.9001 14.2112 14.9385 14.173Z" fill="#C09300"/>
<path d="M19.0164 13.1474L19.2689 19.1377L19.6974 19.52L19.4372 13.3617C19.3149 13.2775 19.1005 13.1474 19.0164 13.1474ZM18.5034 13.5762L18.7176 18.5871L19.146 19.0255L18.8859 13.2394C18.8017 13.3235 18.5491 13.53 18.5034 13.5759V13.5762ZM18.0367 13.9586L18.205 18.1378L18.5492 18.4744L18.335 13.7061C18.251 13.7902 18.0827 13.9127 18.0367 13.9586ZM17.5316 14.173L17.7 17.7349L18.0367 18.008L17.8683 14.0429C17.7841 14.0812 17.6158 14.173 17.5316 14.173ZM17.065 14.173L17.1875 17.1413L17.5318 17.478L17.4016 14.2112C17.3176 14.2112 17.1033 14.2112 17.065 14.173Z" fill="#C09300"/>
<path d="M16.1669 16.8038L16.6796 19.1374L16.5112 19.3057L16.3353 19.1756L16.0445 17.0946L16.1669 19.1756L15.9985 19.3898L15.8302 19.1756L15.9527 17.0946L15.662 19.1756L15.4859 19.3057L15.3176 19.1374L15.8302 16.8038L16.1669 16.8038Z" fill="#C09300" stroke="#C09300" stroke-width="0.0569027"/>
<path d="M14.853 15.7796L13.8354 19.3905L15.2357 19.6048L15.8323 16.8889L14.853 15.7796L14.853 15.7796Z" fill="white" stroke="#C09300" stroke-width="0.0630043" stroke-linejoin="round"/>
<path d="M14.5156 17.0139L14.6381 17.3125L15.3004 16.6799" stroke="#C09300" stroke-width="0.0672902" stroke-linejoin="round"/>
<path d="M14.9768 16.2632L15.1152 17.5616L15.536 17.0108M15.3677 17.2248L15.5976 18.0181M15.6877 17.7266L15.2227 18.4328M15.3678 19.1377L15.2189 18.4338L15.089 17.7179L14.7776 18.1397L14.6409 17.6533L14.205 18.1005L14.4267 18.9139L14.7327 18.4107L14.901 18.9234L15.2151 18.4347" stroke="#C09300" stroke-width="0.0672902" stroke-linejoin="round"/>
<path d="M14.1342 19.3048L14.4173 18.9072L14.6017 19.5192L14.8546 19.0901L15.0233 19.6037" stroke="#C09300" stroke-width="0.0672902" stroke-linejoin="round"/>
<path d="M17.1504 15.7796L18.168 19.3905L16.7678 19.6048L16.1711 16.8889L17.1505 15.7796L17.1504 15.7796Z" fill="white" stroke="#C09300" stroke-width="0.0630043" stroke-linejoin="round"/>
<path d="M17.4879 17.0139L17.3653 17.3125L16.703 16.6799" stroke="#C09300" stroke-width="0.0672902" stroke-linejoin="round"/>
<path d="M17.0267 16.2632L16.8882 17.5616L16.4674 17.0108M16.6357 17.2248L16.4059 18.0181M16.3158 17.7266L16.7807 18.4328M16.6357 19.1377L16.7845 18.4338L16.9144 17.7179L17.2259 18.1397L17.3625 17.6533L17.7985 18.1005L17.5767 18.9139L17.2707 18.4107L17.1024 18.9234L16.7883 18.4347" stroke="#C09300" stroke-width="0.0672902" stroke-linejoin="round"/>
<path d="M17.8692 19.3048L17.5861 18.9072L17.4017 19.5192L17.1488 19.0901L16.9801 19.6037" stroke="#C09300" stroke-width="0.0672902" stroke-linejoin="round"/>
<path d="M16.0026 21.0043C17.0663 21.0043 18.0839 20.9202 18.6807 20.7518C18.9332 20.706 18.9332 20.576 18.9332 20.4076C19.1858 20.3234 19.0556 20.0251 19.2316 20.0251C19.0556 20.0711 19.0174 19.7268 18.8032 19.7728C18.8032 19.4743 18.5047 19.4361 18.2522 19.5201C17.7472 19.6885 16.852 19.7268 16.0026 19.7268C15.1534 19.6885 14.2657 19.6885 13.7531 19.5201C13.5006 19.4361 13.2023 19.4743 13.2023 19.7728C12.988 19.7268 12.9498 20.0711 12.7739 20.0251C12.9498 20.0251 12.8197 20.3234 13.0722 20.4076C13.0722 20.576 13.0722 20.706 13.3324 20.7518C13.9214 20.9202 14.9392 21.0043 16.0026 21.0043Z" fill="white" stroke="#C09300" stroke-width="0.126009" stroke-linecap="round" stroke-linejoin="round"/>
<path d="M14.5539 19.3887C14.8981 19.4346 15.2807 19.4728 15.5792 19.4346C15.7474 19.4346 15.8698 19.7253 15.5332 19.7713C15.2349 19.8094 14.7681 19.7713 14.5156 19.7253C14.3014 19.687 13.8346 19.6029 13.5362 19.5186C13.2378 19.3887 13.4521 19.1363 13.6203 19.1745C13.8805 19.2586 14.2172 19.3428 14.5539 19.3887L14.5539 19.3887ZM17.4461 19.3887C17.1018 19.4346 16.7193 19.4728 16.4285 19.4346C16.2524 19.4346 16.13 19.7253 16.4667 19.7713C16.7651 19.8094 17.2319 19.7713 17.4842 19.7253C17.6985 19.687 18.1652 19.6029 18.4636 19.5186C18.7621 19.3887 18.5479 19.1363 18.3795 19.1745C18.1193 19.2586 17.7827 19.3428 17.4461 19.3887Z" fill="white" stroke="#C09300" stroke-width="0.0672902" stroke-linecap="round" stroke-linejoin="round"/>
<path d="M13.5035 19.2206C13.2434 19.1746 13.1209 19.4729 13.2052 19.6412C13.2434 19.5571 13.4194 19.5571 13.4577 19.4729C13.5035 19.343 13.4194 19.343 13.5035 19.2206ZM14.5211 20.003C14.5211 19.8348 14.6893 19.8555 14.6893 19.6872C14.6893 19.603 14.6435 19.4729 14.5593 19.4729C14.4751 19.4729 14.3909 19.557 14.3909 19.6412C14.3526 19.8096 14.5211 19.8348 14.5211 20.003ZM15.7323 19.5187C15.9845 19.5187 15.9595 19.8555 15.8371 20.0238C15.8371 19.9014 15.6229 19.8555 15.6229 19.7714C15.6229 19.6412 15.8163 19.6412 15.7323 19.5187ZM18.5072 19.2206C18.7673 19.1746 18.8898 19.4729 18.8056 19.6412C18.7673 19.5571 18.5913 19.5571 18.5531 19.4729C18.5072 19.343 18.5914 19.343 18.5072 19.2206ZM17.4896 20.003C17.4896 19.8348 17.3214 19.8555 17.3214 19.6872C17.3214 19.603 17.3672 19.4729 17.4514 19.4729C17.5355 19.4729 17.6198 19.557 17.6198 19.6412C17.658 19.8096 17.4896 19.8348 17.4896 20.003ZM16.2784 19.5187C16.026 19.5187 16.051 19.8555 16.1735 20.0238C16.1735 19.9014 16.3876 19.8555 16.3876 19.7714C16.3877 19.6412 16.1942 19.6412 16.2784 19.5187Z" fill="white" stroke="#C09300" stroke-width="0.0672902" stroke-linecap="round" stroke-linejoin="round"/>
<path d="M13.588 19.3044C13.6722 19.3044 13.8022 19.3427 13.8405 19.3886L13.5877 19.3043L13.588 19.3044ZM14.0082 19.4346C14.0542 19.4346 14.2225 19.4728 14.3067 19.5186L14.008 19.4343L14.0082 19.4346ZM15.5389 19.6026C15.4547 19.6026 15.2864 19.6026 15.2406 19.6407L15.5387 19.6023L15.5389 19.6026ZM15.0722 19.6026C15.0264 19.5566 14.858 19.5566 14.7739 19.6026H15.072H15.0722ZM18.4237 19.3044C18.3395 19.3044 18.217 19.3427 18.1711 19.3886L18.4237 19.3044ZM18.0029 19.4346C17.957 19.4346 17.7886 19.4728 17.7044 19.5186L18.0031 19.4343L18.0029 19.4346ZM16.4722 19.6026C16.5564 19.6026 16.7247 19.6026 16.7706 19.6407L16.472 19.6023L16.4722 19.6026ZM16.9389 19.6026C16.9847 19.5566 17.1532 19.5566 17.2373 19.6026H16.9386H16.9389Z" fill="white" stroke="#C09300" stroke-width="0.0472069" stroke-linecap="round" stroke-linejoin="round"/>
<path d="M13.5157 19.9794C13.4872 19.974 13.4722 19.9514 13.4794 19.9248C13.4881 19.8923 13.5142 19.8737 13.5387 19.8824C13.5544 19.8879 13.583 19.9168 13.5831 19.9271C13.5833 19.939 13.5681 19.9673 13.5616 19.9673C13.5588 19.9674 13.5545 19.9698 13.552 19.9728C13.5466 19.9791 13.5299 19.9821 13.5157 19.9794V19.9794ZM16.4452 20.1885C16.4347 20.1846 16.4178 20.1608 16.4178 20.1499C16.4179 20.1292 16.4484 20.0956 16.4673 20.0954C16.4767 20.0953 16.5023 20.1086 16.5118 20.1186C16.5291 20.1366 16.5254 20.1662 16.5036 20.183C16.4929 20.1913 16.4609 20.1943 16.4453 20.1885L16.4452 20.1885ZM16.4645 20.3207C16.442 20.3132 16.4338 20.3022 16.432 20.2774C16.4301 20.2515 16.4326 20.2474 16.46 20.2325L16.4795 20.2219L16.498 20.2301C16.5236 20.2415 16.535 20.2539 16.5359 20.2711C16.5368 20.2896 16.5231 20.3086 16.5017 20.3181C16.483 20.3266 16.4818 20.3266 16.4645 20.3208V20.3207Z" fill="#C09300"/>
<path d="M13.7473 19.7387C13.7289 19.7382 13.7035 19.7551 13.689 19.7637C13.6544 19.7719 13.6141 19.7931 13.5807 19.7704C13.5477 19.7602 13.504 19.7683 13.499 19.8087C13.5074 19.8435 13.5561 19.8634 13.5857 19.8404C13.6076 19.8117 13.6673 19.7949 13.674 19.8437C13.6496 19.8807 13.6524 19.9295 13.6323 19.9687C13.6291 19.9932 13.6189 20.0163 13.6057 20.0371C13.581 20.0396 13.5548 20.0366 13.534 20.0521C13.5006 20.0539 13.4665 20.0705 13.4473 20.0987C13.4258 20.1296 13.4053 20.1609 13.399 20.1987C13.4047 20.2374 13.449 20.2485 13.4823 20.2504C13.5179 20.2602 13.5535 20.273 13.589 20.2837C13.6469 20.2967 13.7011 20.3176 13.759 20.3304C13.8435 20.3559 13.9322 20.3676 14.0173 20.3904C14.0262 20.3934 14.0346 20.3959 14.044 20.3971C14.0793 20.4044 14.0977 20.366 14.1006 20.3371C14.1182 20.2752 14.1316 20.2123 14.149 20.1504C14.161 20.1256 14.1755 20.0695 14.1273 20.0821C14.0999 20.0985 14.0766 20.1233 14.0423 20.1254C13.9957 20.1281 14.0223 20.1758 14.0407 20.1954C14.0447 20.2267 14.0348 20.2642 14.014 20.2887C13.9863 20.3063 13.9515 20.2858 13.9223 20.2787C13.8917 20.2793 13.8304 20.2636 13.859 20.2221C13.8691 20.1913 13.87 20.1576 13.8823 20.1271C13.898 20.0943 13.9002 20.0585 13.9073 20.0238C13.888 19.9823 13.8551 20.0374 13.829 20.0421C13.811 20.0546 13.7434 20.0599 13.779 20.0921C13.8097 20.1154 13.7861 20.1559 13.7806 20.1854C13.7787 20.2265 13.736 20.2363 13.7023 20.2271C13.6688 20.2255 13.6222 20.2005 13.6506 20.1637C13.6571 20.1331 13.6678 20.1029 13.674 20.0721C13.6866 20.0349 13.6973 19.9994 13.7107 19.9621C13.7164 19.929 13.7283 19.8977 13.744 19.8687C13.7449 19.8322 13.7695 19.8007 13.769 19.7637C13.7665 19.7457 13.7584 19.7391 13.7473 19.7387ZM13.5557 20.1254C13.56 20.1247 13.5631 20.1253 13.5673 20.1271C13.5806 20.1327 13.581 20.1436 13.5673 20.1554C13.5613 20.1606 13.5545 20.1656 13.5523 20.1654C13.5274 20.1633 13.52 20.1596 13.519 20.1504C13.5181 20.1423 13.5206 20.14 13.5373 20.1321C13.5456 20.1281 13.5513 20.1262 13.5557 20.1254ZM13.5004 20.3931C13.4739 20.3683 13.4782 20.3501 13.5173 20.321C13.5341 20.3085 13.5442 20.3099 13.5633 20.3274C13.5928 20.3542 13.594 20.3713 13.568 20.3943C13.5551 20.4057 13.5495 20.408 13.5345 20.4082C13.5189 20.4083 13.5144 20.4064 13.5004 20.3931ZM13.6631 20.4422C13.657 20.4408 13.6512 20.4381 13.6462 20.4343C13.6412 20.4306 13.637 20.4258 13.6339 20.4204C13.6308 20.415 13.6288 20.4089 13.6281 20.4027C13.6274 20.3965 13.628 20.3902 13.6299 20.3842C13.6367 20.361 13.6407 20.3587 13.6747 20.3584C13.7128 20.358 13.7202 20.3644 13.7206 20.398C13.7208 20.4169 13.7193 20.4212 13.7099 20.43C13.6989 20.4403 13.6776 20.4458 13.6631 20.4422V20.4422ZM18.4156 20.4465C18.4035 20.4364 18.401 20.4318 18.4009 20.419C18.4007 20.3971 18.4133 20.3811 18.4407 20.3687C18.477 20.3522 18.4919 20.3545 18.5056 20.3786C18.5238 20.4107 18.5229 20.4238 18.5011 20.4454C18.489 20.4573 18.4868 20.458 18.4592 20.4583C18.4321 20.4584 18.4291 20.4577 18.4156 20.4465ZM13.8791 20.5078C13.8596 20.5026 13.8496 20.4881 13.8493 20.4648C13.8491 20.447 13.8504 20.4441 13.8629 20.4344C13.8709 20.4281 13.8837 20.4227 13.8937 20.4213C13.9079 20.4194 13.9132 20.4206 13.9246 20.4286C13.954 20.4493 13.9602 20.4697 13.9432 20.4895C13.9251 20.5106 13.9079 20.5155 13.8791 20.5078ZM15.0481 20.5601C15.0438 20.5547 15.0343 20.5515 15.0333 20.5448C15.035 20.5152 15.0364 20.4852 15.0459 20.4569C15.051 20.429 15.0465 20.3998 15.0562 20.3727C15.0662 20.3232 15.0662 20.2723 15.0777 20.2231C15.0782 20.1978 15.0806 20.1725 15.0879 20.1482C15.0963 20.1097 15.0887 20.0695 15.1 20.0314C15.0988 20.0171 15.1152 19.979 15.1297 20.0016C15.1506 20.0323 15.1783 20.0573 15.2055 20.0824C15.2288 20.0959 15.2074 20.1157 15.1912 20.1224C15.1691 20.1311 15.1637 20.1555 15.1653 20.1769C15.1622 20.199 15.1533 20.2199 15.1524 20.2425C15.1477 20.2757 15.1486 20.3094 15.1443 20.3426C15.1346 20.3751 15.1383 20.4098 15.1351 20.4432C15.1355 20.4645 15.1254 20.4838 15.1268 20.5051C15.1242 20.5268 15.1232 20.5528 15.1051 20.5677C15.0876 20.5765 15.0622 20.575 15.0481 20.5601H15.0481ZM16.6321 20.0374C16.6064 20.0569 16.5834 20.0798 16.5604 20.1024C16.5288 20.1264 16.5864 20.1403 16.5938 20.1607C16.6022 20.192 16.6017 20.2253 16.6038 20.2574C16.6133 20.2868 16.6175 20.3181 16.6154 20.3491C16.6127 20.3823 16.5694 20.3753 16.5504 20.3941C16.5242 20.4051 16.5137 20.4309 16.4938 20.4491C16.4806 20.4748 16.4771 20.5065 16.4754 20.5357C16.4773 20.5596 16.4593 20.5864 16.4754 20.6074C16.4775 20.6104 16.48 20.6145 16.4821 20.6174C16.4875 20.6252 16.5004 20.619 16.5088 20.6207C16.5356 20.6193 16.5636 20.6233 16.5888 20.6124C16.6533 20.6012 16.7184 20.6004 16.7838 20.5974C16.8237 20.5987 16.8622 20.5848 16.9021 20.5857C16.9334 20.5927 16.9475 20.5587 16.9471 20.5341C16.9294 20.4992 16.9447 20.4579 16.9304 20.4224C16.9179 20.3865 16.9228 20.3463 16.9171 20.3091C16.9163 20.2798 16.8792 20.269 16.8604 20.2907C16.8422 20.3091 16.8128 20.3128 16.7988 20.3357C16.7829 20.3679 16.8322 20.3679 16.8404 20.3924C16.8498 20.4172 16.8467 20.4447 16.8488 20.4707C16.8549 20.5023 16.8205 20.5041 16.7988 20.5074C16.7701 20.5181 16.73 20.5253 16.7138 20.4908C16.7036 20.4652 16.705 20.4378 16.7021 20.4107C16.7014 20.3632 16.69 20.3164 16.6871 20.2691C16.6844 20.2106 16.6743 20.1525 16.6704 20.0941C16.6699 20.0698 16.6667 20.0302 16.6321 20.0374V20.0374ZM16.5988 20.4774L16.6154 20.4791L16.6171 20.4991L16.6188 20.5191L16.5971 20.5257C16.5856 20.5291 16.5756 20.5308 16.5754 20.5307C16.572 20.5287 16.5687 20.5264 16.5654 20.5241C16.5537 20.5156 16.5567 20.5035 16.5721 20.4874C16.5808 20.4783 16.5849 20.4766 16.5988 20.4774ZM15.0006 19.9825C14.9804 19.9897 14.9546 20.0194 14.934 20.0192C14.887 20.0225 14.8936 20.0682 14.9273 20.0841C14.9318 20.098 14.9276 20.1155 14.929 20.1308C14.9355 20.1729 14.909 20.2068 14.914 20.2491C14.9116 20.2956 14.8976 20.3408 14.8956 20.3875C14.8825 20.4357 14.8823 20.4852 14.874 20.5341C14.8684 20.5781 14.8367 20.5626 14.809 20.5508C14.8088 20.5318 14.8075 20.5132 14.8073 20.4942C14.8189 20.4506 14.7838 20.4378 14.749 20.4325C14.7124 20.4359 14.6944 20.4046 14.7023 20.3725C14.718 20.3538 14.7576 20.359 14.7823 20.3558C14.8346 20.3667 14.8325 20.2965 14.8056 20.2725C14.7873 20.2386 14.7417 20.224 14.729 20.1892C14.7341 20.1429 14.7034 20.0968 14.6657 20.0742C14.6076 20.0701 14.5638 20.1202 14.5423 20.1692C14.5182 20.1761 14.4941 20.1834 14.4706 20.1925C14.4328 20.2019 14.3789 20.2675 14.4306 20.2925C14.4597 20.3005 14.548 20.3206 14.509 20.3608C14.487 20.3985 14.4449 20.3992 14.4073 20.3892C14.3687 20.3892 14.3258 20.3704 14.3273 20.3258C14.3194 20.2858 14.3207 20.2427 14.3023 20.2058C14.2944 20.1611 14.2436 20.1715 14.2407 20.2125C14.2015 20.241 14.2068 20.287 14.234 20.3208C14.251 20.3597 14.2341 20.405 14.2173 20.4408C14.2071 20.4875 14.1557 20.4891 14.119 20.5041C14.101 20.5111 14.0321 20.5 14.0573 20.5391C14.0975 20.5533 14.1455 20.5661 14.1873 20.5558C14.2312 20.5504 14.2693 20.5204 14.2907 20.4825C14.3201 20.4526 14.3708 20.4682 14.409 20.4675C14.4502 20.4674 14.4923 20.4964 14.5323 20.4775C14.5439 20.4474 14.5975 20.3977 14.614 20.4491C14.6112 20.4952 14.6518 20.5198 14.694 20.5142C14.7401 20.5115 14.723 20.5467 14.7223 20.5741C14.7254 20.624 14.7575 20.6501 14.799 20.6708C14.8131 20.6746 14.828 20.6733 14.8423 20.6708C14.8822 20.6583 14.9252 20.6405 14.9373 20.5958C14.9535 20.5595 14.9539 20.5184 14.9656 20.4808C14.9751 20.4206 14.9873 20.3603 14.989 20.2992C15.0037 20.2438 14.9995 20.1852 15.0106 20.1292C15.0177 20.0875 15.0229 20.0458 15.0273 20.0042C15.0224 19.9819 15.0128 19.9782 15.0006 19.9825ZM14.639 20.2041C14.6471 20.2051 14.6515 20.215 14.6523 20.2325C14.6532 20.2519 14.6633 20.2677 14.6757 20.2708C14.6854 20.2732 14.6845 20.2835 14.674 20.2908C14.6679 20.295 14.6569 20.2976 14.6373 20.2975C14.6065 20.2973 14.5874 20.2893 14.5707 20.2725L14.5607 20.2625L14.5757 20.2525C14.5862 20.2442 14.5962 20.2353 14.6057 20.2258C14.6208 20.2103 14.6309 20.2032 14.639 20.2041ZM18.1606 19.7841C18.1304 19.7855 18.1 19.7904 18.0723 19.7974C18.0168 19.794 17.989 19.8522 18.0423 19.8807C18.0744 19.9626 18.1245 19.8638 18.1756 19.8707C18.2523 19.8857 18.2588 19.9685 18.2706 20.0307C18.275 20.0924 18.2927 20.1524 18.3106 20.2107C18.3619 20.2678 18.2722 20.3036 18.234 20.2591C18.2014 20.2236 18.1315 20.1802 18.0923 20.2291C18.0441 20.2495 18.0421 20.3139 18.0023 20.3324C17.9378 20.352 17.9297 20.2727 17.8956 20.2391C17.8643 20.1951 17.8044 20.1913 17.7556 20.1757C17.7328 20.1294 17.7447 20.0506 17.6973 20.0191C17.6575 20.0353 17.5846 20.1099 17.6456 20.1441C17.7052 20.1953 17.6196 20.2188 17.5923 20.2541C17.5533 20.2975 17.5471 20.3573 17.5406 20.4124C17.4735 20.4495 17.4604 20.3704 17.4523 20.3207C17.4471 20.2615 17.3971 20.2789 17.3623 20.3007C17.3115 20.3213 17.2861 20.3696 17.2506 20.4074C17.2464 20.442 17.2526 20.4798 17.2523 20.5157C17.2638 20.559 17.3164 20.5387 17.349 20.5357C17.4012 20.5139 17.4225 20.5692 17.3806 20.6008C17.3523 20.6368 17.2622 20.618 17.2706 20.6757C17.2996 20.6791 17.3299 20.678 17.359 20.6757C17.4171 20.6599 17.4796 20.6188 17.4856 20.5541C17.4933 20.4976 17.5746 20.5079 17.619 20.4957C17.6745 20.4797 17.7414 20.4756 17.754 20.5457C17.7918 20.5855 17.8739 20.6302 17.9156 20.5757C17.958 20.5499 17.9784 20.5044 17.9756 20.4557C17.967 20.4139 18.0433 20.4124 18.0623 20.4357C18.0901 20.4815 18.177 20.468 18.219 20.4424C18.2636 20.4095 18.2732 20.3515 18.3373 20.3507C18.4323 20.3223 18.5311 20.3059 18.624 20.2707C18.6992 20.2543 18.6128 20.2069 18.594 20.1791C18.5367 20.1508 18.4869 20.2666 18.4223 20.2091C18.3724 20.1709 18.3758 20.0983 18.3573 20.0424C18.3446 19.97 18.3478 19.8865 18.2956 19.8291C18.2598 19.7909 18.2111 19.7818 18.1606 19.7841ZM17.7973 20.2891C17.804 20.2889 17.8116 20.2922 17.824 20.2991C17.8473 20.312 17.864 20.3334 17.864 20.3507C17.864 20.3621 17.8611 20.3628 17.844 20.3707C17.8335 20.3756 17.8215 20.3808 17.8173 20.3807C17.8076 20.3806 17.784 20.3617 17.784 20.3541C17.7839 20.3509 17.7809 20.3388 17.7773 20.3291C17.771 20.312 17.772 20.3122 17.7806 20.3007C17.7862 20.2934 17.7906 20.2893 17.7973 20.2891ZM18.1456 20.3074C18.1655 20.3061 18.1773 20.3123 18.1856 20.3274C18.1953 20.3449 18.1887 20.3584 18.164 20.3691C18.1531 20.3738 18.1423 20.3776 18.1406 20.3774C18.139 20.3772 18.13 20.3719 18.1206 20.3657C18.1062 20.3563 18.1041 20.3517 18.104 20.3407C18.1038 20.3239 18.1226 20.3089 18.1456 20.3074ZM17.669 20.3124C17.6748 20.3115 17.6801 20.3145 17.6873 20.3207C17.6969 20.329 17.6999 20.3356 17.7023 20.3524C17.704 20.3641 17.7037 20.3792 17.7023 20.3857C17.6997 20.3978 17.6995 20.3972 17.6723 20.3974C17.6382 20.3977 17.635 20.394 17.6356 20.3624C17.6361 20.3423 17.6363 20.3369 17.6473 20.3257C17.6559 20.3171 17.6632 20.3133 17.669 20.3124ZM17.3756 20.3891C17.3863 20.3916 17.3963 20.3996 17.399 20.4124C17.4025 20.4293 17.3994 20.4371 17.3856 20.4441C17.3738 20.4501 17.3465 20.4521 17.339 20.4474C17.3365 20.4459 17.3315 20.4419 17.329 20.4374C17.3253 20.4309 17.326 20.4278 17.3306 20.4241C17.3339 20.4215 17.3373 20.4177 17.3373 20.4157C17.3373 20.4138 17.3409 20.407 17.3456 20.4007C17.3534 20.3904 17.365 20.3866 17.3756 20.3891ZM17.869 20.4524C17.8785 20.4524 17.8865 20.4557 17.8923 20.4607C17.9022 20.4694 17.9018 20.4821 17.8906 20.4907C17.8834 20.4963 17.8441 20.4958 17.8306 20.4907C17.8246 20.4885 17.8223 20.4855 17.8223 20.4791C17.8222 20.4716 17.8243 20.4669 17.8373 20.4607C17.8482 20.4555 17.8595 20.4525 17.869 20.4524ZM16.9532 20.7094C16.9481 20.7061 16.9405 20.7032 16.9481 20.6976C16.9573 20.6815 16.9757 20.6759 16.9921 20.6699C17.0213 20.6572 17.0465 20.6357 17.0653 20.6102C17.068 20.5925 17.0879 20.5828 17.0879 20.5643C17.088 20.5389 17.0895 20.513 17.0833 20.4882C17.0765 20.4655 17.0593 20.4481 17.0393 20.4363C17.0256 20.4255 17.0033 20.4226 16.9983 20.4035C16.9955 20.3852 17.0118 20.3713 17.0175 20.355C17.0294 20.3325 17.0394 20.309 17.0522 20.287C17.066 20.2717 17.0873 20.2862 17.0945 20.301C17.1046 20.3158 17.1135 20.3317 17.1185 20.3489C17.1347 20.3666 17.149 20.3873 17.1548 20.4108C17.1627 20.4274 17.1752 20.443 17.1745 20.4624C17.1745 20.4846 17.187 20.5044 17.1862 20.5267C17.1869 20.5566 17.1869 20.5878 17.176 20.616C17.1685 20.6316 17.1535 20.641 17.1436 20.6551C17.1266 20.6708 17.1079 20.6859 17.086 20.6943C17.0706 20.6992 17.0617 20.717 17.0423 20.7127C17.0149 20.7132 16.9871 20.7169 16.9598 20.7125C16.9616 20.7154 16.9515 20.7076 16.9532 20.7094V20.7094ZM16.5878 20.7334C16.5749 20.7201 16.5721 20.7145 16.5719 20.7014C16.5718 20.6882 16.5743 20.683 16.587 20.6701C16.6104 20.6465 16.6218 20.646 16.6622 20.6664C16.7007 20.6859 16.7138 20.6877 16.7172 20.6739C16.7205 20.6605 16.7427 20.6483 16.7638 20.6482C16.7772 20.6481 16.7847 20.6508 16.7954 20.6591C16.8088 20.6695 16.8095 20.6711 16.8098 20.6953C16.81 20.72 16.8097 20.7209 16.7943 20.7346C16.7795 20.7476 16.7771 20.7484 16.7588 20.7466C16.7355 20.7442 16.7215 20.7335 16.7177 20.7152C16.715 20.7018 16.7103 20.6987 16.7068 20.7077C16.7057 20.7106 16.6999 20.7142 16.694 20.7157C16.6832 20.7184 16.6648 20.73 16.6517 20.7424C16.6467 20.747 16.6381 20.7492 16.624 20.7494C16.605 20.7495 16.6024 20.7484 16.5878 20.7334ZM15.5308 20.2587C15.4953 20.2591 15.4572 20.2889 15.4524 20.3237C15.4606 20.3639 15.4939 20.4032 15.4724 20.4454C15.4872 20.4994 15.4318 20.5199 15.3941 20.4887C15.3713 20.4369 15.3598 20.3802 15.3258 20.3337C15.2829 20.3216 15.2642 20.3901 15.2341 20.4137C15.249 20.454 15.2926 20.4901 15.2974 20.5404C15.3079 20.5892 15.2782 20.6434 15.2358 20.6687C15.1992 20.7037 15.1491 20.6912 15.1041 20.6987C15.0495 20.7307 15.1442 20.7423 15.1691 20.7437C15.225 20.7494 15.283 20.7421 15.3241 20.7004C15.3651 20.6808 15.362 20.6099 15.4108 20.6021C15.4955 20.5983 15.5794 20.6151 15.6641 20.6171C15.7094 20.6279 15.7795 20.6117 15.8108 20.6454C15.8109 20.7045 15.8609 20.7409 15.9091 20.7637C15.9357 20.7711 15.9637 20.7382 15.9908 20.7321C16.0423 20.7157 16.0266 20.652 16.0574 20.6271C16.1455 20.6223 16.2343 20.6233 16.3224 20.6221C16.3392 20.6225 16.3442 20.5986 16.3558 20.5887C16.3538 20.5547 16.3526 20.5209 16.3474 20.4871C16.3305 20.4441 16.3502 20.3887 16.3191 20.3521C16.2748 20.34 16.2372 20.3805 16.1924 20.3837C16.143 20.4058 16.1014 20.4514 16.0991 20.5071C16.0699 20.5549 16.023 20.4986 16.0391 20.4587C16.0373 20.4414 16.0429 20.4212 16.0374 20.4054C16.0104 20.373 15.9631 20.3836 15.9258 20.3787C15.8715 20.3809 15.8184 20.3692 15.7641 20.3704C15.7165 20.3668 15.6669 20.3746 15.6208 20.3621C15.5658 20.3605 15.5733 20.3067 15.5641 20.2687C15.5543 20.2615 15.5426 20.2586 15.5308 20.2587ZM15.6375 20.4554C15.6557 20.4558 15.673 20.4582 15.6908 20.4604C15.7138 20.4642 15.7382 20.4525 15.7608 20.4604C15.8129 20.4693 15.865 20.4672 15.9174 20.4721C15.9313 20.4719 15.9412 20.4819 15.9508 20.4904C15.9509 20.5269 15.9508 20.5639 15.9508 20.6004C15.9492 20.6141 15.9548 20.6323 15.9424 20.6421C15.9385 20.6448 15.934 20.6478 15.9291 20.6487C15.9147 20.645 15.8994 20.6355 15.8924 20.6221C15.8902 20.603 15.8934 20.5845 15.8941 20.5654C15.8937 20.5605 15.8963 20.5528 15.8941 20.5487C15.8828 20.5407 15.8699 20.5355 15.8558 20.5354C15.8105 20.5338 15.7661 20.5305 15.7208 20.5287C15.6831 20.5264 15.6443 20.532 15.6074 20.5221C15.5931 20.5169 15.5745 20.5187 15.5658 20.5037C15.5533 20.4892 15.5713 20.4719 15.5841 20.4654C15.6011 20.4577 15.6192 20.4551 15.6374 20.4554L15.6375 20.4554ZM16.2391 20.4687C16.2476 20.4686 16.2503 20.4714 16.2541 20.4871C16.2565 20.4971 16.2594 20.5093 16.2608 20.5137C16.2627 20.52 16.2596 20.5221 16.2508 20.5254C16.2244 20.5353 16.1982 20.5344 16.1891 20.5221C16.185 20.5165 16.1898 20.4989 16.1974 20.4921C16.2129 20.4783 16.23 20.4688 16.2391 20.4687Z" fill="#C09300"/>
<path d="M16.6588 13.4999C16.6944 13.502 16.6107 13.3096 16.6107 13.3096C16.7048 13.4058 17.0603 13.4288 17.0603 13.4288C16.847 13.3346 16.6338 12.6237 16.6588 12.057C16.6819 11.4883 16.5773 11.2645 16.4937 11.1809C16.387 11.0742 16.0441 10.9801 15.8182 10.9675C15.6907 10.9613 15.7116 11.0638 15.7116 11.0638C15.4753 11.0031 15.239 10.9801 15.1324 11.0512C15.032 11.1182 15.011 11.4527 15.0843 11.3942C15.262 11.252 15.4167 11.3816 15.5234 11.5363C15.6174 11.6723 15.6112 12.057 15.4753 12.5066C15.3331 12.9792 14.9441 13.4517 14.9441 13.4517C15.1553 13.4517 15.4523 13.2636 15.4523 13.2636L15.3812 13.5584C15.6049 13.4517 15.7827 13.2866 15.7827 13.2866L15.9959 13.5103C16.067 13.4162 16.2093 13.2866 16.2093 13.2866C16.2093 13.2866 16.387 13.4748 16.6588 13.4999Z" fill="white" stroke="#C09300" stroke-width="0.0645404"/>
<path d="M15.7948 12.1363C15.7948 12.1363 15.6754 13.0139 15.4513 13.2631M15.9834 12.1133C15.9834 12.1133 15.9373 13.0013 15.7823 13.2862M16.1506 12.1491C16.1506 12.1491 16.1506 13.1209 16.2092 13.2864M16.3621 12.1972C16.3621 12.1972 16.4103 13.0141 16.6114 13.3094" stroke="#C09300" stroke-width="0.0672958"/>
<path d="M15.5778 11.7165C15.5674 11.6391 15.5485 11.5783 15.5213 11.5385C15.4145 11.3837 15.2597 11.2539 15.0817 11.3962C15.0817 11.3962 15.1424 11.2078 15.2722 11.2015C15.3727 11.1952 15.6008 11.2769 15.8019 11.6202C15.8019 11.6202 15.6532 11.5867 15.6177 11.6181C15.5506 11.6767 15.5778 11.7165 15.5778 11.7165Z" fill="#C09300" stroke="#C09300" stroke-width="0.018758"/>
<path d="M15.0663 11.1623C15.0809 11.1141 15.104 11.0702 15.1333 11.0513C15.2402 10.9801 15.4768 11.0031 15.7135 11.0639C15.7135 11.0639 15.6925 10.9612 15.8203 10.9676C16.0465 10.9801 16.39 11.0744 16.4968 11.1812C16.5219 11.2084 16.5512 11.2482 16.5764 11.3089H16.5722C16.5198 11.2356 16.3711 11.2398 16.3355 11.244C16.2789 11.2503 16.2433 11.2482 16.1679 11.267C16.1323 11.2754 16.0778 11.2859 16.0485 11.3089C16.0255 11.3278 16.0066 11.3969 15.9711 11.3969C15.9145 11.3969 15.9187 11.3822 15.904 11.3655C15.8852 11.3425 15.8747 11.3089 15.8558 11.311C15.7972 11.3215 15.7029 11.2754 15.5836 11.1812C15.4642 11.0869 15.4181 11.0639 15.2631 11.0743C15.1102 11.0869 15.0621 11.1728 15.0621 11.1728L15.0663 11.1623Z" fill="#C09300" stroke="#C09300" stroke-width="0.018758"/>
<path d="M15.9389 11.2997C15.9737 11.2997 16.0019 11.2715 16.0019 11.2367C16.0019 11.2019 15.9737 11.1737 15.9389 11.1737C15.9041 11.1737 15.8759 11.2019 15.8759 11.2367C15.8759 11.2715 15.9041 11.2997 15.9389 11.2997Z" fill="white"/>
<path d="M15.9982 17.4528C17.7391 16.1138 17.5898 14.1524 17.5898 14.1524C17.5439 14.1616 17.5002 14.1662 17.4543 14.1662C17.0891 14.1662 16.2181 13.9572 16.0149 13.6919C15.7973 13.9321 14.9072 14.1662 14.5443 14.1662C14.4984 14.1662 14.4525 14.1616 14.4088 14.1524C14.4088 14.1524 14.2573 16.1138 15.9982 17.4528Z" fill="white" stroke="#C09300" stroke-width="0.0609374"/>
<path d="M17.451 14.2957C17.436 14.2967 17.421 14.2971 17.4058 14.2971C17.0749 14.2971 16.3061 14.1273 16.0098 13.8727C15.6994 14.1079 14.918 14.2971 14.5924 14.2971C14.5772 14.2971 14.5621 14.2953 14.5471 14.2925C14.5464 14.3667 14.5502 14.4436 14.5548 14.5135C14.572 14.7749 14.6179 15.0372 14.6875 15.2896C14.9066 16.084 15.355 16.7591 15.998 17.2712C16.6415 16.7587 17.0905 16.0829 17.31 15.288C17.3798 15.0356 17.4258 14.7733 17.4431 14.512C17.4472 14.4388 17.4513 14.3492 17.451 14.2957Z" stroke="#C09300" stroke-width="0.048538"/>
<mask id="mask0_464_35824" style="mask-type:luminance" maskUnits="userSpaceOnUse" x="14" y="13" width="4" height="5">
<path d="M17.4398 14.3067C17.425 14.3077 17.4101 14.3081 17.395 14.3081C17.0676 14.3081 16.3071 14.1401 16.0139 13.8882C15.7068 14.1209 14.9337 14.3081 14.6116 14.3081C14.5965 14.3081 14.5816 14.3063 14.5668 14.3035C14.566 14.3769 14.5699 14.453 14.5744 14.5222C14.5915 14.7808 14.6368 15.0403 14.7057 15.29C14.9224 16.0759 15.3661 16.7438 16.0022 17.2505C16.6389 16.7434 17.0831 16.0749 17.3003 15.2884C17.3693 15.0387 17.4148 14.7792 17.432 14.5206C17.436 14.4482 17.44 14.3596 17.4398 14.3067Z" fill="white"/>
</mask>
<g mask="url(#mask0_464_35824)">
<path fill-rule="evenodd" clip-rule="evenodd" d="M14.5431 13.8548H15.5169V17.2846H14.5431V13.8548Z" fill="#C09300"/>
<path fill-rule="evenodd" clip-rule="evenodd" d="M15.5142 13.8549H16.488V17.2847H15.5142V13.8549Z" fill="white"/>
<path fill-rule="evenodd" clip-rule="evenodd" d="M16.4932 13.8549H17.467V17.2847H16.4932V13.8549Z" fill="#C09300"/>
</g>
</g>
<defs>
<clipPath id="clip0_464_35824">
<rect width="31.9999" height="31.9999" rx="15.8967" fill="white"/>
</clipPath>
</defs>
</svg>
