<svg width="36" height="36" viewBox="0 0 36 36" fill="none" xmlns="http://www.w3.org/2000/svg">
<g clip-path="url(#clip0_464_35969)">
<path d="M-8.99877 0H45.0013V36H-8.99877V0Z" fill="black"/>
<path d="M-8.99877 0H45.0013V24H-8.99877V0Z" fill="white"/>
<path d="M-8.99877 0H45.0013V12H-8.99877V0Z" fill="#CE1126"/>
<path d="M18.0474 18.1445L22.1567 21.9592L21.8641 15.031C21.8211 13.981 20.9087 14.2219 20.2459 14.6007C19.5744 15.031 18.8084 15.031 17.9991 14.7469C17.19 15.031 16.4239 15.031 15.7524 14.6007C15.0897 14.2219 14.1773 13.981 14.1343 15.031L13.8415 21.9592L18.0474 18.1445Z" fill="white" stroke="#C09300" stroke-width="0.075438" stroke-linejoin="round"/>
<path d="M14.6077 14.7927L14.3236 21.5319L13.8415 21.962L14.1343 15.0338C14.2719 14.9391 14.513 14.7927 14.6077 14.7927ZM15.1849 15.2751L14.9438 20.9124L14.4619 21.4056L14.7545 14.8962C14.8493 14.9908 15.1334 15.2232 15.1849 15.2748V15.2751ZM15.7099 15.7053L15.5206 20.407L15.1333 20.7856L15.3743 15.4213C15.4688 15.5159 15.6581 15.6537 15.7099 15.7053ZM16.2781 15.9465L16.0887 19.9537L15.7099 20.2609L15.8993 15.8002C15.994 15.8432 16.1834 15.9465 16.2781 15.9465ZM16.8031 15.9465L16.6652 19.2859L16.2779 19.6647L16.4243 15.9896C16.5188 15.9896 16.7599 15.9896 16.8031 15.9465Z" fill="#C09300"/>
<path d="M21.3913 14.7927L21.6754 21.5319L22.1575 21.962L21.8647 15.0338C21.7271 14.9391 21.486 14.7927 21.3913 14.7927ZM20.8141 15.2751L21.0552 20.9124L21.5371 21.4056L21.2445 14.8962C21.1497 14.9908 20.8656 15.2232 20.8141 15.2748V15.2751ZM20.2891 15.7053L20.4784 20.407L20.8657 20.7856L20.6247 15.4213C20.5302 15.5159 20.3409 15.6537 20.2891 15.7053ZM19.7209 15.9465L19.9103 19.9537L20.2891 20.2609L20.0997 15.8002C20.005 15.8432 19.8156 15.9465 19.7209 15.9465ZM19.1959 15.9465L19.3338 19.2859L19.7211 19.6647L19.5747 15.9896C19.4802 15.9896 19.2391 15.9896 19.1959 15.9465Z" fill="#C09300"/>
<path d="M18.1873 18.9056L18.7641 21.5309L18.5746 21.7202L18.3767 21.5739L18.0496 19.2328L18.1873 21.5739L17.9979 21.8148L17.8085 21.5739L17.9463 19.2328L17.6193 21.5739L17.4211 21.7202L17.2318 21.5309L17.8085 18.9056L18.1873 18.9056Z" fill="#C09300" stroke="#C09300" stroke-width="0.0637693"/>
<path d="M16.7111 17.7528L15.5663 21.8151L17.1416 22.0562L17.8129 19.0008L16.7111 17.7528L16.7111 17.7528Z" fill="white" stroke="#C09300" stroke-width="0.0706072" stroke-linejoin="round"/>
<path d="M16.332 19.1409L16.4699 19.4769L17.215 18.7652" stroke="#C09300" stroke-width="0.0754103" stroke-linejoin="round"/>
<path d="M16.849 18.2975L17.0047 19.7582L17.4781 19.1386M17.2888 19.3793L17.5474 20.2718M17.6488 19.9439L17.1257 20.7383M17.2888 21.5313L17.1214 20.7394L16.9753 19.934L16.6249 20.4086L16.4712 19.8614L15.9807 20.3645L16.2302 21.2796L16.5744 20.7135L16.7637 21.2902L17.1172 20.7405" stroke="#C09300" stroke-width="0.0754103" stroke-linejoin="round"/>
<path d="M15.9018 21.7188L16.2203 21.2714L16.4278 21.96L16.7123 21.4772L16.902 22.055" stroke="#C09300" stroke-width="0.0754103" stroke-linejoin="round"/>
<path d="M19.2919 17.7528L20.4367 21.8151L18.8614 22.0562L18.1901 19.0008L19.2919 17.7528L19.2919 17.7528Z" fill="white" stroke="#C09300" stroke-width="0.0706072" stroke-linejoin="round"/>
<path d="M19.671 19.1409L19.5331 19.4769L18.788 18.7652" stroke="#C09300" stroke-width="0.0754103" stroke-linejoin="round"/>
<path d="M19.154 18.2975L18.9982 19.7582L18.5248 19.1386M18.7142 19.3793L18.4556 20.2718M18.3542 19.9439L18.8773 20.7383M18.7141 21.5313L18.8815 20.7394L19.0277 19.934L19.3781 20.4086L19.5318 19.8614L20.0223 20.3645L19.7728 21.2796L19.4286 20.7135L19.2392 21.2902L18.8858 20.7405" stroke="#C09300" stroke-width="0.0754103" stroke-linejoin="round"/>
<path d="M20.1012 21.7188L19.7827 21.2714L19.5752 21.96L19.2907 21.4772L19.1009 22.055" stroke="#C09300" stroke-width="0.0754103" stroke-linejoin="round"/>
<path d="M17.9989 23.6302C19.1954 23.6302 20.3403 23.5356 21.0116 23.3462C21.2958 23.2947 21.2958 23.1483 21.2958 22.9589C21.5799 22.8642 21.4335 22.5286 21.6314 22.5286C21.4335 22.5804 21.3905 22.193 21.1495 22.2448C21.1495 21.909 20.8137 21.866 20.5297 21.9605C19.9615 22.1499 18.9544 22.193 17.9989 22.193C17.0434 22.1499 16.0448 22.1499 15.4681 21.9605C15.1841 21.866 14.8485 21.909 14.8485 22.2448C14.6074 22.193 14.5644 22.5804 14.3665 22.5287C14.5644 22.5287 14.418 22.8642 14.7021 22.9589C14.7021 23.1483 14.7021 23.2947 14.9948 23.3462C15.6575 23.5356 16.8025 23.6302 17.9989 23.6302Z" fill="white" stroke="#C09300" stroke-width="0.141214" stroke-linecap="round" stroke-linejoin="round"/>
<path d="M16.3697 21.8127C16.7569 21.8644 17.1873 21.9074 17.5232 21.8644C17.7124 21.8644 17.8501 22.1914 17.4714 22.2432C17.1358 22.2861 16.6107 22.2432 16.3266 22.1914C16.0856 22.1484 15.5605 22.0538 15.2248 21.9589C14.8891 21.8128 15.1302 21.5289 15.3194 21.5718C15.6121 21.6664 15.9909 21.7612 16.3697 21.8128L16.3697 21.8127ZM19.6235 21.8127C19.2361 21.8644 18.8058 21.9074 18.4786 21.8644C18.2806 21.8644 18.1428 22.1914 18.5216 22.2432C18.8574 22.2861 19.3824 22.2432 19.6663 22.1914C19.9075 22.1484 20.4324 22.0538 20.7682 21.9589C21.1039 21.8128 20.863 21.5289 20.6735 21.5718C20.3809 21.6664 20.0021 21.7612 19.6235 21.8127Z" fill="white" stroke="#C09300" stroke-width="0.0754103" stroke-linecap="round" stroke-linejoin="round"/>
<path d="M15.1856 21.6241C14.8929 21.5724 14.7552 21.908 14.85 22.0973C14.893 22.0026 15.091 22.0026 15.1341 21.908C15.1856 21.7618 15.091 21.7618 15.1856 21.6241ZM16.3304 22.5043C16.3304 22.3151 16.5196 22.3384 16.5196 22.149C16.5196 22.0544 16.4681 21.908 16.3734 21.908C16.2787 21.908 16.184 22.0026 16.184 22.0973C16.1409 22.2867 16.3304 22.3151 16.3304 22.5043ZM17.693 21.9595C17.9768 21.9595 17.9487 22.3383 17.8109 22.5277C17.8109 22.39 17.5699 22.3383 17.5699 22.2438C17.5699 22.0973 17.7875 22.0973 17.693 21.9595ZM20.8148 21.6241C21.1074 21.5724 21.2452 21.908 21.1505 22.0973C21.1074 22.0026 20.9095 22.0026 20.8664 21.908C20.8148 21.7618 20.9095 21.7618 20.8148 21.6241ZM19.67 22.5043C19.67 22.3151 19.4808 22.3384 19.4808 22.149C19.4808 22.0544 19.5324 21.908 19.6271 21.908C19.7217 21.908 19.8164 22.0026 19.8164 22.0973C19.8595 22.2867 19.67 22.3151 19.67 22.5043ZM18.3074 21.9595C18.0234 21.9595 18.0516 22.3383 18.1893 22.5277C18.1893 22.39 18.4303 22.3383 18.4303 22.2438C18.4303 22.0973 18.2127 22.0973 18.3074 21.9595Z" fill="white" stroke="#C09300" stroke-width="0.0754103" stroke-linecap="round" stroke-linejoin="round"/>
<path d="M15.2824 21.7196C15.3772 21.7196 15.5235 21.7626 15.5665 21.8142L15.2821 21.7194L15.2824 21.7196ZM15.7552 21.866C15.8069 21.866 15.9963 21.909 16.0909 21.9605L15.7549 21.8657L15.7552 21.866ZM17.4772 22.055C17.3825 22.055 17.1932 22.055 17.1416 22.0979L17.477 22.0547L17.4772 22.055ZM16.9522 22.055C16.9007 22.0032 16.7112 22.0032 16.6166 22.055H16.952H16.9522ZM20.7226 21.7196C20.6279 21.7196 20.4901 21.7626 20.4385 21.8142L20.7226 21.7196ZM20.2492 21.866C20.1976 21.866 20.0082 21.909 19.9135 21.9605L20.2495 21.8657L20.2492 21.866ZM18.5272 22.055C18.622 22.055 18.8113 22.055 18.8629 22.0979L18.5269 22.0547L18.5272 22.055ZM19.0522 22.055C19.1038 22.0032 19.2933 22.0032 19.3879 22.055H19.0519H19.0522Z" fill="white" stroke="#C09300" stroke-width="0.0529035" stroke-linecap="round" stroke-linejoin="round"/>
<path d="M15.1986 22.4782C15.1666 22.4721 15.1498 22.4467 15.1578 22.4167C15.1676 22.3802 15.1969 22.3593 15.2246 22.3691C15.2422 22.3753 15.2744 22.4077 15.2745 22.4194C15.2747 22.4328 15.2576 22.4646 15.2503 22.4646C15.2472 22.4647 15.2423 22.4674 15.2395 22.4707C15.2335 22.4778 15.2147 22.4813 15.1986 22.4782V22.4782ZM18.4944 22.7134C18.4825 22.709 18.4635 22.6823 18.4635 22.67C18.4637 22.6468 18.498 22.6089 18.5193 22.6087C18.5298 22.6086 18.5586 22.6236 18.5693 22.6348C18.5888 22.6551 18.5846 22.6883 18.5601 22.7072C18.548 22.7166 18.512 22.7199 18.4944 22.7134L18.4944 22.7134ZM18.516 22.8622C18.4908 22.8537 18.4816 22.8413 18.4795 22.8134C18.4774 22.7843 18.4802 22.7797 18.511 22.763L18.533 22.751L18.5537 22.7603C18.5825 22.7731 18.5953 22.787 18.5964 22.8063C18.5975 22.8272 18.582 22.8485 18.5579 22.8593C18.5369 22.8687 18.5356 22.8688 18.516 22.8622V22.8622Z" fill="#C09300"/>
<path d="M15.4609 22.2068C15.4401 22.2062 15.4116 22.2253 15.3952 22.235C15.3563 22.2441 15.311 22.268 15.2734 22.2425C15.2363 22.231 15.1871 22.24 15.1815 22.2856C15.191 22.3247 15.2458 22.347 15.279 22.3212C15.3036 22.289 15.3709 22.27 15.3784 22.325C15.351 22.3665 15.3541 22.4215 15.3315 22.4656C15.3278 22.4931 15.3164 22.5191 15.3015 22.5425C15.2738 22.5453 15.2443 22.542 15.2209 22.5593C15.1833 22.5614 15.145 22.5801 15.1234 22.6118C15.0992 22.6465 15.076 22.6818 15.069 22.7243C15.0754 22.7678 15.1252 22.7803 15.1627 22.7825C15.2027 22.7935 15.2428 22.8079 15.2827 22.82C15.3479 22.8345 15.4089 22.8581 15.474 22.8725C15.5691 22.9011 15.6689 22.9143 15.7646 22.94C15.7747 22.9433 15.7841 22.9462 15.7946 22.9475C15.8344 22.9557 15.8551 22.9125 15.8584 22.88C15.8781 22.8104 15.8931 22.7396 15.9127 22.67C15.9262 22.642 15.9425 22.5789 15.8884 22.5931C15.8575 22.6116 15.8313 22.6395 15.7927 22.6418C15.7403 22.6449 15.7702 22.6985 15.7909 22.7206C15.7954 22.7558 15.7843 22.7979 15.7609 22.8256C15.7297 22.8454 15.6906 22.8222 15.6577 22.8143C15.6233 22.8149 15.5543 22.7973 15.5865 22.7506C15.5979 22.716 15.5989 22.6781 15.6127 22.6437C15.6304 22.6068 15.6329 22.5666 15.6409 22.5275C15.6192 22.4808 15.5821 22.5428 15.5527 22.5481C15.5325 22.5622 15.4564 22.5681 15.4965 22.6043C15.531 22.6306 15.5045 22.6761 15.4984 22.7093C15.4961 22.7556 15.4481 22.7666 15.4102 22.7562C15.3726 22.7544 15.3202 22.7264 15.3521 22.685C15.3594 22.6505 15.3714 22.6166 15.3784 22.5818C15.3926 22.54 15.4046 22.5001 15.4196 22.4581C15.4261 22.4209 15.4395 22.3856 15.4571 22.3531C15.4582 22.312 15.4858 22.2766 15.4852 22.235C15.4824 22.2146 15.4733 22.2072 15.4609 22.2068ZM15.2452 22.6418C15.2501 22.641 15.2536 22.6417 15.2584 22.6437C15.2733 22.6501 15.2738 22.6623 15.2584 22.6756C15.2516 22.6814 15.244 22.687 15.2415 22.6868C15.2134 22.6844 15.2052 22.6803 15.204 22.67C15.203 22.6609 15.2058 22.6583 15.2246 22.6493C15.2339 22.6449 15.2403 22.6427 15.2452 22.6418ZM15.1831 22.943C15.1533 22.9151 15.1581 22.8947 15.2021 22.8618C15.2209 22.8478 15.2324 22.8494 15.2539 22.869C15.287 22.8993 15.2884 22.9184 15.2591 22.9443C15.2446 22.9571 15.2383 22.9598 15.2215 22.9599C15.2039 22.9601 15.1989 22.9579 15.1831 22.943ZM15.3661 22.9982C15.3592 22.9966 15.3528 22.9936 15.3471 22.9894C15.3415 22.9851 15.3368 22.9798 15.3333 22.9737C15.3298 22.9676 15.3276 22.9608 15.3268 22.9538C15.326 22.9468 15.3267 22.9397 15.3287 22.933C15.3364 22.9069 15.3409 22.9043 15.3791 22.904C15.422 22.9035 15.4303 22.9107 15.4308 22.9485C15.431 22.9697 15.4294 22.9747 15.4188 22.9845C15.4063 22.996 15.3825 23.0023 15.3661 22.9982V22.9982ZM20.7127 23.003C20.6991 22.9917 20.6963 22.9866 20.6962 22.9721C20.696 22.9475 20.7102 22.9295 20.7409 22.9155C20.7818 22.897 20.7985 22.8995 20.8139 22.9267C20.8344 22.9627 20.8334 22.9775 20.8089 23.0018C20.7953 23.0152 20.7928 23.016 20.7618 23.0163C20.7313 23.0165 20.7278 23.0157 20.7127 23.003ZM15.6091 23.072C15.5872 23.0662 15.5759 23.0498 15.5756 23.0236C15.5754 23.0036 15.5768 23.0004 15.5908 22.9894C15.5999 22.9823 15.6143 22.9763 15.6256 22.9747C15.6416 22.9725 15.6474 22.9739 15.6603 22.983C15.6933 23.0062 15.7004 23.0292 15.6812 23.0515C15.6609 23.0752 15.6416 23.0807 15.6091 23.072ZM16.9243 23.1308C16.9194 23.1248 16.9087 23.1212 16.9076 23.1136C16.9095 23.0803 16.9111 23.0466 16.9217 23.0147C16.9275 22.9834 16.9224 22.9506 16.9334 22.92C16.9446 22.8644 16.9446 22.807 16.9575 22.7518C16.9581 22.7233 16.9608 22.6949 16.9691 22.6675C16.9785 22.6242 16.9699 22.5789 16.9826 22.5361C16.9813 22.52 16.9998 22.4771 17.016 22.5025C17.0396 22.5371 17.0707 22.5652 17.1013 22.5934C17.1275 22.6086 17.1034 22.6309 17.0853 22.6384C17.0604 22.6483 17.0543 22.6757 17.0561 22.6998C17.0526 22.7246 17.0426 22.7482 17.0416 22.7736C17.0363 22.8109 17.0374 22.8489 17.0325 22.8862C17.0216 22.9227 17.0258 22.9617 17.0221 22.9994C17.0226 23.0233 17.0112 23.045 17.0128 23.069C17.0099 23.0934 17.0088 23.1227 16.9884 23.1394C16.9686 23.1493 16.9401 23.1476 16.9243 23.1308H16.9243ZM18.7063 22.5428C18.6773 22.5647 18.6515 22.5906 18.6256 22.616C18.5901 22.6429 18.6548 22.6586 18.6631 22.6816C18.6726 22.7168 18.672 22.7542 18.6744 22.7903C18.6851 22.8234 18.6899 22.8587 18.6875 22.8935C18.6844 22.9308 18.6357 22.9229 18.6144 22.9441C18.5849 22.9565 18.5731 22.9855 18.5506 23.006C18.5359 23.0349 18.5319 23.0706 18.53 23.1035C18.5321 23.1303 18.5119 23.1604 18.53 23.1841C18.5324 23.1874 18.5351 23.192 18.5375 23.1953C18.5436 23.2041 18.5581 23.1971 18.5675 23.1991C18.5977 23.1974 18.6292 23.2019 18.6575 23.1897C18.7301 23.1772 18.8034 23.1762 18.8769 23.1728C18.9218 23.1743 18.9651 23.1586 19.01 23.1597C19.0452 23.1675 19.0611 23.1293 19.0607 23.1016C19.0407 23.0624 19.0579 23.0159 19.0419 22.976C19.0278 22.9356 19.0334 22.8903 19.0269 22.8485C19.026 22.8156 18.9842 22.8034 18.9631 22.8278C18.9427 22.8485 18.9096 22.8527 18.8938 22.8785C18.876 22.9146 18.9314 22.9147 18.9406 22.9422C18.9512 22.9701 18.9477 23.0011 18.95 23.0303C18.9569 23.0659 18.9183 23.0679 18.8938 23.0716C18.8616 23.0837 18.8164 23.0917 18.7981 23.0529C18.7867 23.0241 18.7883 22.9933 18.785 22.9628C18.7842 22.9093 18.7714 22.8567 18.7681 22.8035C18.7651 22.7377 18.7537 22.6723 18.7494 22.6066C18.7488 22.5793 18.7451 22.5347 18.7063 22.5429V22.5428ZM18.6688 23.0378L18.6875 23.0397L18.6894 23.0622L18.6913 23.0847L18.6669 23.0922C18.654 23.096 18.6427 23.0979 18.6425 23.0978C18.6387 23.0955 18.6349 23.093 18.6313 23.0903C18.6181 23.0808 18.6215 23.0672 18.6388 23.0491C18.6485 23.0389 18.6531 23.0369 18.6688 23.0378ZM16.8709 22.481C16.8481 22.4891 16.8191 22.5226 16.7959 22.5223C16.7431 22.526 16.7504 22.5774 16.7884 22.5954C16.7934 22.611 16.7887 22.6307 16.7902 22.6479C16.7976 22.6953 16.7677 22.7334 16.7734 22.781C16.7707 22.8333 16.755 22.8841 16.7527 22.9367C16.7379 22.9909 16.7378 23.0466 16.7284 23.1017C16.7221 23.1511 16.6864 23.1336 16.6552 23.1204C16.655 23.099 16.6536 23.0781 16.6534 23.0567C16.6664 23.0076 16.6269 22.9933 16.5877 22.9873C16.5466 22.9912 16.5264 22.9559 16.5352 22.9198C16.5529 22.8987 16.5974 22.9046 16.6252 22.9011C16.6841 22.9133 16.6817 22.8343 16.6515 22.8073C16.6308 22.7692 16.5796 22.7528 16.5652 22.7136C16.571 22.6616 16.5365 22.6096 16.494 22.5842C16.4287 22.5796 16.3794 22.636 16.3552 22.6911C16.3281 22.6989 16.301 22.7071 16.2746 22.7173C16.2321 22.7279 16.1714 22.8017 16.2296 22.8298C16.2623 22.8388 16.3616 22.8615 16.3177 22.9067C16.293 22.9491 16.2457 22.9498 16.2034 22.9386C16.1599 22.9386 16.1116 22.9174 16.1134 22.8673C16.1045 22.8223 16.106 22.7738 16.0853 22.7323C16.0763 22.6819 16.0192 22.6937 16.0159 22.7398C15.9719 22.7718 15.9777 22.8237 16.0084 22.8617C16.0275 22.9054 16.0086 22.9563 15.9896 22.9967C15.9782 23.0492 15.9203 23.051 15.879 23.0679C15.8587 23.0758 15.7813 23.0633 15.8096 23.1073C15.8548 23.1232 15.9088 23.1376 15.9559 23.126C16.0052 23.1199 16.0481 23.0862 16.0721 23.0435C16.1053 23.0099 16.1622 23.0275 16.2052 23.0267C16.2516 23.0266 16.299 23.0592 16.344 23.0379C16.357 23.0041 16.4173 22.9482 16.4359 23.006C16.4327 23.0578 16.4784 23.0856 16.5259 23.0792C16.5777 23.0762 16.5585 23.1158 16.5578 23.1467C16.5612 23.2027 16.5973 23.2322 16.644 23.2554C16.6599 23.2597 16.6767 23.2583 16.6927 23.2554C16.7376 23.2413 16.786 23.2213 16.7996 23.1711C16.8178 23.1302 16.8183 23.084 16.8315 23.0417C16.8421 22.9739 16.8558 22.9061 16.8577 22.8373C16.8743 22.775 16.8696 22.7091 16.8821 22.6461C16.8901 22.5992 16.896 22.5523 16.9009 22.5054C16.8954 22.4804 16.8846 22.4762 16.8709 22.481ZM16.464 22.7304C16.4731 22.7315 16.4781 22.7427 16.479 22.7623C16.48 22.7841 16.4914 22.8019 16.5053 22.8054C16.5162 22.8082 16.5153 22.8197 16.5034 22.8279C16.4965 22.8327 16.4841 22.8355 16.4621 22.8354C16.4274 22.8352 16.4059 22.8263 16.3871 22.8073L16.3759 22.796L16.3928 22.7848C16.4046 22.7755 16.4158 22.7654 16.4265 22.7548C16.4436 22.7373 16.4549 22.7293 16.464 22.7304ZM20.4259 22.2578C20.3918 22.2594 20.3576 22.2649 20.3265 22.2728C20.2641 22.269 20.2328 22.3345 20.2928 22.3666C20.3288 22.4587 20.3852 22.3476 20.4428 22.3553C20.529 22.3721 20.5363 22.4653 20.5496 22.5353C20.5545 22.6047 20.5745 22.6722 20.5946 22.7378C20.6524 22.802 20.5514 22.8422 20.5084 22.7922C20.4717 22.7524 20.3931 22.7034 20.349 22.7585C20.2948 22.7814 20.2926 22.8539 20.2477 22.8747C20.1752 22.8968 20.1661 22.8076 20.1278 22.7697C20.0925 22.7203 20.0251 22.7159 19.9702 22.6985C19.9445 22.6463 19.9579 22.5577 19.9046 22.5222C19.8599 22.5405 19.7778 22.6243 19.8465 22.6628C19.9136 22.7205 19.8172 22.7469 19.7865 22.7866C19.7426 22.8355 19.7356 22.9028 19.7284 22.9647C19.6528 23.0065 19.6381 22.9175 19.629 22.8616C19.6231 22.7949 19.5668 22.8145 19.5277 22.8391C19.4706 22.8622 19.4421 22.9165 19.4021 22.9591C19.3973 22.998 19.4044 23.0405 19.404 23.081C19.417 23.1296 19.4761 23.1068 19.5127 23.1035C19.5715 23.0789 19.5955 23.1411 19.5484 23.1766C19.5165 23.2172 19.4152 23.196 19.4246 23.261C19.4573 23.2648 19.4913 23.2636 19.524 23.261C19.5894 23.2431 19.6597 23.1969 19.6665 23.1241C19.6751 23.0606 19.7665 23.0722 19.8165 23.0585C19.8789 23.0405 19.9542 23.0358 19.9684 23.1147C20.0109 23.1594 20.1033 23.2097 20.1502 23.1485C20.1979 23.1193 20.2208 23.0682 20.2177 23.0135C20.208 22.9664 20.2939 22.9647 20.3152 22.991C20.3465 23.0424 20.4443 23.0273 20.4915 22.9985C20.5417 22.9614 20.5525 22.8962 20.6246 22.8953C20.7316 22.8633 20.8427 22.8449 20.9471 22.8053C21.0317 22.7869 20.9345 22.7335 20.9134 22.7022C20.8489 22.6704 20.7929 22.8007 20.7202 22.736C20.6641 22.693 20.6679 22.6114 20.6471 22.5485C20.6329 22.467 20.6365 22.3731 20.5777 22.3085C20.5374 22.2656 20.4826 22.2552 20.4259 22.2578ZM20.0171 22.826C20.0247 22.8258 20.0332 22.8295 20.0471 22.8372C20.0734 22.8517 20.0922 22.8758 20.0921 22.8953C20.0921 22.9081 20.0889 22.909 20.0696 22.9178C20.0578 22.9233 20.0443 22.9292 20.0396 22.9291C20.0288 22.929 20.0022 22.9077 20.0021 22.8991C20.0021 22.8955 19.9986 22.8819 19.9946 22.871C19.9876 22.8517 19.9887 22.852 19.9984 22.8391C20.0046 22.8308 20.0096 22.8262 20.0171 22.826ZM20.409 22.8466C20.4313 22.8451 20.4446 22.8521 20.454 22.8691C20.4649 22.8888 20.4575 22.904 20.4296 22.916C20.4174 22.9212 20.4052 22.9255 20.4034 22.9253C20.4015 22.9252 20.3915 22.9192 20.3809 22.9122C20.3647 22.9015 20.3623 22.8964 20.3621 22.8841C20.3619 22.8652 20.3831 22.8483 20.409 22.8466ZM19.8727 22.8522C19.8793 22.8512 19.8852 22.8546 19.8934 22.8616C19.9042 22.8709 19.9076 22.8783 19.9102 22.8972C19.9121 22.9103 19.9118 22.9273 19.9102 22.9347C19.9073 22.9483 19.907 22.9477 19.8765 22.9478C19.8381 22.9482 19.8345 22.944 19.8352 22.9085C19.8357 22.8859 19.8359 22.8798 19.8484 22.8672C19.858 22.8575 19.8662 22.8532 19.8727 22.8522ZM19.5427 22.9385C19.5547 22.9413 19.566 22.9503 19.569 22.9647C19.5729 22.9838 19.5695 22.9924 19.554 23.0003C19.5407 23.0071 19.51 23.0094 19.5015 23.0041C19.4987 23.0024 19.4931 22.9979 19.4902 22.9928C19.4862 22.9856 19.4869 22.9821 19.4921 22.9778C19.4958 22.9749 19.4996 22.9707 19.4996 22.9685C19.4996 22.9663 19.5037 22.9587 19.509 22.9516C19.5178 22.94 19.5308 22.9356 19.5427 22.9385ZM20.0977 23.0097C20.1084 23.0097 20.1175 23.0134 20.124 23.0191C20.1351 23.0288 20.1347 23.0431 20.1221 23.0528C20.114 23.0591 20.0698 23.0585 20.0546 23.0528C20.0479 23.0503 20.0453 23.0469 20.0453 23.0397C20.0451 23.0313 20.0475 23.026 20.0621 23.0191C20.0744 23.0132 20.0871 23.0098 20.0977 23.0097ZM19.0675 23.2988C19.0617 23.2951 19.0532 23.2918 19.0618 23.2856C19.0721 23.2674 19.0929 23.2611 19.1113 23.2544C19.1441 23.2401 19.1725 23.2159 19.1937 23.1873C19.1967 23.1673 19.2191 23.1564 19.219 23.1356C19.2192 23.1071 19.2209 23.0779 19.2139 23.05C19.2062 23.0245 19.1868 23.0049 19.1643 22.9916C19.1489 22.9795 19.1239 22.9761 19.1182 22.9547C19.1151 22.9341 19.1334 22.9185 19.1398 22.9002C19.1532 22.8749 19.1645 22.8483 19.1789 22.8237C19.1944 22.8064 19.2184 22.8227 19.2265 22.8394C19.2378 22.8561 19.2479 22.8739 19.2535 22.8932C19.2717 22.9132 19.2877 22.9365 19.2943 22.963C19.3032 22.9816 19.3172 22.9991 19.3164 23.0209C19.3164 23.0459 19.3305 23.0682 19.3296 23.0933C19.3304 23.1269 19.3304 23.162 19.3181 23.1937C19.3097 23.2114 19.2929 23.2219 19.2817 23.2377C19.2626 23.2554 19.2415 23.2724 19.217 23.2819C19.1996 23.2874 19.1895 23.3074 19.1678 23.3025C19.1369 23.3031 19.1056 23.3073 19.075 23.3023C19.0769 23.3056 19.0656 23.2968 19.0675 23.2989V23.2988ZM18.6565 23.3258C18.6419 23.3109 18.6388 23.3045 18.6386 23.2898C18.6384 23.275 18.6413 23.2691 18.6555 23.2547C18.6818 23.2281 18.6947 23.2275 18.7401 23.2504C18.7835 23.2724 18.7981 23.2744 18.802 23.2588C18.8058 23.2438 18.8307 23.2301 18.8545 23.23C18.8695 23.2299 18.878 23.2329 18.89 23.2422C18.9051 23.254 18.9058 23.2558 18.9062 23.283C18.9064 23.3108 18.9061 23.3118 18.8888 23.3271C18.8721 23.3418 18.8694 23.3427 18.8488 23.3406C18.8226 23.338 18.8069 23.326 18.8026 23.3053C18.7995 23.2903 18.7942 23.2867 18.7903 23.2969C18.789 23.3002 18.7825 23.3043 18.7759 23.3059C18.7637 23.309 18.743 23.322 18.7283 23.3359C18.7227 23.3412 18.713 23.3436 18.6972 23.3438C18.6758 23.344 18.6729 23.3427 18.6565 23.3258ZM17.4673 22.7918C17.4274 22.7923 17.3844 22.8258 17.3791 22.865C17.3883 22.9101 17.4258 22.9543 17.4016 23.0018C17.4183 23.0626 17.356 23.0857 17.3135 23.0506C17.2879 22.9923 17.2749 22.9284 17.2366 22.8762C17.1884 22.8626 17.1674 22.9396 17.1335 22.9662C17.1503 23.0115 17.1993 23.0522 17.2048 23.1087C17.2165 23.1636 17.1831 23.2245 17.1354 23.2531C17.0942 23.2924 17.0379 23.2783 16.9873 23.2868C16.9258 23.3228 17.0324 23.3359 17.0604 23.3375C17.1233 23.3439 17.1885 23.3356 17.2348 23.2887C17.2809 23.2667 17.2773 23.1869 17.3323 23.1781C17.4276 23.1738 17.522 23.1927 17.6173 23.195C17.6682 23.2072 17.7471 23.1889 17.7823 23.2268C17.7824 23.2933 17.8387 23.3343 17.8929 23.36C17.9228 23.3683 17.9543 23.3312 17.9848 23.3243C18.0427 23.3059 18.0251 23.2342 18.0598 23.2062C18.1588 23.2009 18.2587 23.202 18.3579 23.2006C18.3768 23.2011 18.3823 23.1742 18.3954 23.1631C18.3932 23.1248 18.3918 23.0867 18.386 23.0487C18.3669 23.0003 18.3891 22.938 18.3541 22.8968C18.3043 22.8833 18.262 22.9289 18.2116 22.9325C18.1561 22.9572 18.1093 23.0085 18.1066 23.0712C18.0737 23.125 18.021 23.0616 18.0391 23.0168C18.0371 22.9973 18.0434 22.9746 18.0373 22.9568C18.0068 22.9203 17.9536 22.9323 17.9116 22.9268C17.8505 22.9293 17.7909 22.9161 17.7298 22.9175C17.6762 22.9134 17.6205 22.9221 17.5685 22.9081C17.5066 22.9063 17.5151 22.8458 17.5048 22.8031C17.4938 22.795 17.4806 22.7917 17.4673 22.7918ZM17.5873 23.0131C17.6079 23.0135 17.6273 23.0162 17.6473 23.0187C17.6731 23.023 17.7007 23.0098 17.726 23.0187C17.7846 23.0287 17.8432 23.0263 17.9023 23.0318C17.9179 23.0316 17.929 23.0429 17.9398 23.0525C17.9399 23.0935 17.9398 23.1352 17.9398 23.1762C17.938 23.1917 17.9443 23.2121 17.9304 23.2231C17.9259 23.2262 17.9209 23.2295 17.9154 23.2306C17.8992 23.2264 17.882 23.2157 17.8741 23.2006C17.8717 23.1791 17.8752 23.1584 17.876 23.1368C17.8756 23.1313 17.8784 23.1226 17.876 23.1181C17.8633 23.109 17.8488 23.1032 17.8329 23.1031C17.7819 23.1013 17.732 23.0976 17.681 23.0956C17.6386 23.0929 17.595 23.0992 17.5535 23.0881C17.5374 23.0822 17.5165 23.0842 17.5067 23.0675C17.4926 23.0511 17.5129 23.0317 17.5273 23.0243C17.5464 23.0157 17.5667 23.0127 17.5873 23.0131L17.5873 23.0131ZM18.2641 23.0281C18.2737 23.028 18.2767 23.0311 18.281 23.0487C18.2838 23.06 18.287 23.0738 18.2885 23.0787C18.2907 23.0858 18.2872 23.0881 18.2773 23.0918C18.2476 23.103 18.2181 23.1019 18.2079 23.0881C18.2032 23.0818 18.2087 23.062 18.2173 23.0543C18.2346 23.0388 18.2538 23.0281 18.2641 23.0281Z" fill="#C09300"/>
<path d="M18.7386 15.189C18.7786 15.1914 18.6845 14.9749 18.6845 14.9749C18.7904 15.0831 19.1903 15.109 19.1903 15.109C18.9503 15.003 18.7104 14.2032 18.7386 13.5657C18.7645 12.9259 18.6469 12.6741 18.5528 12.5801C18.4328 12.4601 18.047 12.3542 17.7929 12.3401C17.6494 12.333 17.6729 12.4483 17.6729 12.4483C17.4071 12.3801 17.1413 12.3542 17.0213 12.4342C16.9084 12.5095 16.8848 12.8859 16.9672 12.82C17.1671 12.66 17.3413 12.8059 17.4612 12.98C17.567 13.1329 17.56 13.5657 17.4071 14.0715C17.2471 14.6031 16.8095 15.1348 16.8095 15.1348C17.0471 15.1348 17.3812 14.9231 17.3812 14.9231L17.3012 15.2548C17.5529 15.1348 17.7529 14.949 17.7529 14.949L17.9929 15.2007C18.0728 15.0948 18.2329 14.949 18.2329 14.949C18.2329 14.949 18.4328 15.1607 18.7386 15.189Z" fill="white" stroke="#C09300" stroke-width="0.0723286"/>
<path d="M17.7683 13.6542C17.7683 13.6542 17.6339 14.6415 17.3818 14.9219M17.9804 13.6284C17.9804 13.6284 17.9285 14.6274 17.7542 14.9479M18.1685 13.6687C18.1685 13.6687 18.1685 14.762 18.2345 14.9481M18.4065 13.7227C18.4065 13.7227 18.4607 14.6417 18.6869 14.9739" stroke="#C09300" stroke-width="0.0754166"/>
<path d="M17.5255 13.1819C17.5138 13.0948 17.4926 13.0265 17.4619 12.9817C17.3418 12.8075 17.1676 12.6615 16.9674 12.8216C16.9674 12.8216 17.0357 12.6096 17.1817 12.6026C17.2948 12.5955 17.5514 12.6873 17.7776 13.0736C17.7776 13.0736 17.6103 13.0359 17.5703 13.0712C17.4949 13.1372 17.5255 13.1819 17.5255 13.1819Z" fill="#C09300" stroke="#C09300" stroke-width="0.0210216"/>
<path d="M16.9485 12.5592C16.9649 12.505 16.9909 12.4555 17.0239 12.4343C17.1441 12.3542 17.4103 12.3801 17.6766 12.4484C17.6766 12.4484 17.653 12.333 17.7968 12.3401C18.0512 12.3542 18.4376 12.4603 18.5578 12.5804C18.586 12.611 18.6191 12.6558 18.6473 12.7241H18.6426C18.5837 12.6416 18.4164 12.6464 18.3763 12.6511C18.3127 12.6582 18.2727 12.6558 18.1878 12.677C18.1478 12.6864 18.0865 12.6982 18.0535 12.7241C18.0276 12.7453 18.0064 12.8231 17.9664 12.8231C17.9027 12.8231 17.9075 12.8066 17.8909 12.7877C17.8697 12.7618 17.8579 12.7241 17.8367 12.7264C17.7708 12.7383 17.6647 12.6864 17.5305 12.5804C17.3961 12.4743 17.3443 12.4484 17.1699 12.4602C16.9979 12.4743 16.9437 12.571 16.9437 12.571L16.9485 12.5592Z" fill="#C09300" stroke="#C09300" stroke-width="0.0210216"/>
<path d="M17.9306 12.7151C17.9699 12.7151 18.0018 12.6832 18.0018 12.6438C18.0018 12.6045 17.9699 12.5726 17.9306 12.5726C17.8913 12.5726 17.8594 12.6045 17.8594 12.6438C17.8594 12.6832 17.8913 12.7151 17.9306 12.7151Z" fill="white"/>
<path d="M17.9975 19.6355C19.956 18.1292 19.7881 15.9225 19.7881 15.9225C19.7364 15.9329 19.6873 15.938 19.6356 15.938C19.2248 15.938 18.2449 15.703 18.0163 15.4045C17.7714 15.6747 16.7701 15.938 16.3619 15.938C16.3102 15.938 16.2585 15.9329 16.2094 15.9225C16.2094 15.9225 16.0389 18.1291 17.9975 19.6355Z" fill="white" stroke="#C09300" stroke-width="0.0682909"/>
<path d="M19.6306 16.0836C19.6137 16.0846 19.5968 16.0852 19.5797 16.0852C19.2074 16.0852 18.3426 15.8941 18.0092 15.6077C17.66 15.8723 16.7809 16.0852 16.4146 16.0852C16.3975 16.0852 16.3805 16.0831 16.3637 16.08C16.3628 16.1634 16.3671 16.2499 16.3723 16.3286C16.3917 16.6226 16.4433 16.9177 16.5216 17.2017C16.7681 18.0954 17.2725 18.8549 17.9959 19.431C18.7199 18.8544 19.225 18.0942 19.472 17.1999C19.5504 16.9159 19.6021 16.6209 19.6217 16.3269C19.6263 16.2445 19.6309 16.1437 19.6306 16.0836Z" stroke="#C09300" stroke-width="0.0543952"/>
<mask id="mask0_464_35969" style="mask-type:luminance" maskUnits="userSpaceOnUse" x="16" y="15" width="4" height="5">
<path d="M19.6195 16.0963C19.6028 16.0974 19.586 16.0978 19.5692 16.0978C19.2008 16.0978 18.3452 15.9088 18.0154 15.6255C17.6699 15.8872 16.8002 16.0978 16.4378 16.0978C16.4208 16.0978 16.404 16.0958 16.3873 16.0927C16.3864 16.1753 16.3908 16.2608 16.3959 16.3387C16.4151 16.6296 16.4661 16.9215 16.5436 17.2025C16.7874 18.0867 17.2865 18.8381 18.0022 19.4081C18.7185 18.8376 19.2182 18.0855 19.4626 17.2007C19.5402 16.9198 19.5913 16.6278 19.6107 16.337C19.6152 16.2555 19.6198 16.1558 19.6195 16.0963Z" fill="white"/>
</mask>
<g mask="url(#mask0_464_35969)">
<path fill-rule="evenodd" clip-rule="evenodd" d="M16.3635 15.588H17.4591V19.4465H16.3635V15.588Z" fill="#C09300"/>
<path fill-rule="evenodd" clip-rule="evenodd" d="M17.4568 15.588H18.5524V19.4465H17.4568V15.588Z" fill="white"/>
<path fill-rule="evenodd" clip-rule="evenodd" d="M18.558 15.588H19.6535V19.4465H18.558V15.588Z" fill="#C09300"/>
</g>
</g>
<defs>
<clipPath id="clip0_464_35969">
<rect width="36" height="36" rx="17.815" fill="white"/>
</clipPath>
</defs>
</svg>
