<svg width="24" height="24" viewBox="0 0 24 24" fill="none" xmlns="http://www.w3.org/2000/svg">
<g clip-path="url(#clip0_464_33432)">
<g clip-path="url(#clip1_464_33432)">
<mask id="mask0_464_33432" style="mask-type:luminance" maskUnits="userSpaceOnUse" x="2" y="1" width="21" height="21">
<path d="M22.0078 1.99805H2.00781V21.998H22.0078V1.99805Z" fill="white"/>
</mask>
<g mask="url(#mask0_464_33432)">
<path d="M12.0078 21.998C17.5306 21.998 22.0078 17.5208 22.0078 11.998C22.0078 6.4752 17.5306 1.99805 12.0078 1.99805C6.48496 1.99805 2.00781 6.4752 2.00781 11.998C2.00781 17.5208 6.48496 21.998 12.0078 21.998Z" fill="#F0F0F0"/>
<path d="M4.06644 5.9082C3.28094 6.93019 2.68863 8.10812 2.34375 9.38777H7.54601L4.06644 5.9082Z" fill="#0052B4"/>
<path d="M21.6631 9.38773C21.3182 8.10812 20.7259 6.93019 19.9404 5.9082L16.4609 9.38773H21.6631Z" fill="#0052B4"/>
<path d="M2.34375 14.6074C2.68867 15.887 3.28097 17.065 4.06644 18.0869L7.5459 14.6074H2.34375Z" fill="#0052B4"/>
<path d="M18.0967 4.06648C17.0747 3.28098 15.8968 2.68867 14.6172 2.34375V7.54598L18.0967 4.06648Z" fill="#0052B4"/>
<path d="M5.91406 19.9326C6.93605 20.7181 8.11398 21.3104 9.39359 21.6553V16.4531L5.91406 19.9326Z" fill="#0052B4"/>
<path d="M9.39355 2.34375C8.11394 2.68867 6.93601 3.28098 5.91406 4.06645L9.39355 7.54594V2.34375Z" fill="#0052B4"/>
<path d="M14.6172 21.6553C15.8968 21.3104 17.0747 20.7181 18.0967 19.9326L14.6172 16.4531V21.6553Z" fill="#0052B4"/>
<path d="M16.4609 14.6074L19.9404 18.087C20.7259 17.065 21.3182 15.887 21.6631 14.6074H16.4609Z" fill="#0052B4"/>
<path d="M21.9232 10.6937H13.3122V2.0827C12.8852 2.02711 12.4499 1.99805 12.0078 1.99805C11.5657 1.99805 11.1304 2.02711 10.7035 2.0827V10.6936H2.09246C2.03687 11.1206 2.00781 11.5559 2.00781 11.998C2.00781 12.4401 2.03687 12.8754 2.09246 13.3023H10.7034V21.9134C11.1304 21.9689 11.5657 21.998 12.0078 21.998C12.4499 21.998 12.8852 21.969 13.3121 21.9134V13.3024H21.9232C21.9787 12.8754 22.0078 12.4401 22.0078 11.998C22.0078 11.5559 21.9787 11.1206 21.9232 10.6937Z" fill="#D80027"/>
<path d="M14.6172 14.6074L19.0795 19.0698C19.2848 18.8646 19.4806 18.6501 19.6674 18.4278L15.847 14.6074H14.6172Z" fill="#D80027"/>
<path d="M9.39207 14.6074L4.92969 19.0697C5.13485 19.2749 5.34934 19.4707 5.57168 19.6575L9.39207 15.837V14.6074Z" fill="#D80027"/>
<path d="M9.40172 9.39019L4.93937 4.92773C4.73414 5.13288 4.53836 5.34738 4.35156 5.56972L8.17199 9.39015L9.40172 9.39019Z" fill="#D80027"/>
<path d="M14.6172 9.39199L19.0796 4.92957C18.8744 4.72434 18.6599 4.52855 18.4376 4.3418L14.6172 8.16223V9.39199Z" fill="#D80027"/>
</g>
</g>
</g>
<defs>
<clipPath id="clip0_464_33432">
<rect width="24" height="24" fill="white"/>
</clipPath>
<clipPath id="clip1_464_33432">
<rect width="24" height="24" fill="white"/>
</clipPath>
</defs>
</svg>
