<svg width="119" height="22" viewBox="0 0 119 22" fill="none" xmlns="http://www.w3.org/2000/svg">
<path d="M32.3821 14.2801V4.38012H30.5206C29.3989 4.38012 28.6797 3.74689 28.6797 2.69152C28.6797 1.61564 29.3989 0.982422 30.5206 0.982422H37.9242C39.0242 0.982422 39.7434 1.61564 39.7434 2.69152C39.7434 3.74689 39.0181 4.38012 37.9242 4.38012H36.041V14.2801C36.041 15.4404 35.3012 16.1376 34.2218 16.1376C33.1206 16.1376 32.3821 15.4404 32.3821 14.2801Z" fill="white"/>
<path d="M40.9688 14.2779V2.71097C40.9688 1.54946 41.7303 0.853516 42.8097 0.853516C43.8891 0.853516 44.6494 1.54946 44.6494 2.71097V14.2779C44.6494 15.4382 43.8879 16.1353 42.8097 16.1353C41.7315 16.1353 40.9688 15.4382 40.9688 14.2779Z" fill="white"/>
<path d="M46.4688 14.3828C46.4688 14.0451 46.5752 13.1163 47.0611 10.4568L48.3303 3.38641C48.6688 1.50724 49.5149 0.853516 50.7418 0.853516C52.4981 0.853516 52.9635 1.99332 53.6827 4.14628L55.3955 9.44364H55.4378L56.8979 4.90614C57.8069 1.9511 58.294 0.853516 59.9198 0.853516C61.3377 0.853516 62.1197 1.48674 62.4799 3.38641L64.1081 12.5893C64.2294 13.1807 64.3073 13.7801 64.3414 14.3828C64.3438 14.6136 64.3001 14.8426 64.2127 15.0563C64.1253 15.27 63.996 15.4642 63.8324 15.6274C63.6688 15.7906 63.4743 15.9196 63.2601 16.0068C63.0459 16.0941 62.8164 16.1377 62.5851 16.1353C61.1261 16.1353 60.7454 15.3537 60.4698 13.5385L59.5814 7.69233H59.5391L57.3633 14.6578C57.0454 15.6492 56.4954 16.1353 55.4172 16.1353C54.2532 16.1353 53.7455 15.6529 53.4071 14.5517L51.2712 7.69233H51.2289L50.3187 13.7496C49.9803 15.882 49.1982 16.1353 48.2252 16.1353C47.9938 16.1377 47.7644 16.0941 47.5502 16.0068C47.336 15.9196 47.1414 15.7906 46.9779 15.6274C46.8143 15.4642 46.685 15.27 46.5976 15.0563C46.5102 14.8426 46.4664 14.6136 46.4688 14.3828Z" fill="white"/>
<path d="M66.1602 14.2779V2.71097C66.1602 1.54946 66.9217 0.853516 67.9999 0.853516C69.0781 0.853516 69.8408 1.54946 69.8408 2.71097V14.2779C69.8408 15.4382 69.0793 16.1353 67.9999 16.1353C66.9205 16.1353 66.1602 15.4382 66.1602 14.2779Z" fill="white"/>
<path d="M71.4062 14.0051C71.4062 13.4563 71.5537 13.1186 72.0191 12.5071L78.365 4.23297H73.4998C72.3575 4.23297 71.6178 3.59975 71.6178 2.60709C71.6178 1.61444 72.3575 0.982422 73.5216 0.982422H80.8635C82.2814 0.982422 83.0852 1.72058 83.0852 2.83988C83.0852 3.32233 82.7467 4.06411 82.0904 4.92891L76.1494 12.612H81.5223C82.6851 12.612 83.4043 13.2452 83.4043 14.3006C83.4043 15.3777 82.679 16.0109 81.5223 16.0109H73.8806C72.2729 16.0109 71.4062 15.4404 71.4062 14.0051Z" fill="white"/>
<path d="M84.9453 14.2162V2.77595C84.9437 2.30333 85.1297 1.84931 85.4627 1.5132C85.7957 1.17709 86.2486 0.986246 86.7222 0.982422H92.1156C93.131 0.982422 93.8719 1.65786 93.8719 2.69152C93.8719 3.7686 93.131 4.38012 92.1156 4.38012H88.6006V6.74415H91.7953C92.8312 6.74415 93.5565 7.3822 93.5565 8.45446C93.5565 9.50983 92.8796 10.1431 91.8013 10.1431H88.626V12.612H92.2002C93.2797 12.612 93.9771 13.2247 93.9771 14.3006C93.9771 15.3355 93.2519 16.0109 92.222 16.0109H86.7222C86.2484 16.0068 85.7956 15.8157 85.4627 15.4794C85.1297 15.1431 84.9437 14.6889 84.9453 14.2162Z" fill="white"/>
<path d="M95.6094 14.2801V2.77595C95.6078 2.30333 95.7938 1.84931 96.1268 1.5132C96.4598 1.17709 96.9126 0.986246 97.3862 0.982422H101.681C104.663 0.982422 106.758 2.81817 106.758 5.73099C106.758 7.48352 105.805 9.29875 103.563 9.86805L103.442 9.91027L106.171 12.8448C106.595 13.3092 106.953 13.8157 106.953 14.4273C106.953 15.2293 106.277 16.1376 105.029 16.1376C104.373 16.1376 103.865 15.947 103.252 15.1244L99.3384 10.0791H99.2961V14.2801C99.2961 15.4404 98.5346 16.1376 97.4564 16.1376C96.3782 16.1376 95.6094 15.4404 95.6094 14.2801ZM101.554 7.39909C102.442 7.39909 103.077 6.76586 103.077 5.83713C103.077 4.90841 102.336 4.38012 101.554 4.38012H99.284V7.39547L101.554 7.39909Z" fill="white"/>
<path d="M109.267 15.5466C108.485 15.1028 107.938 14.5335 107.938 13.7941C107.938 12.7809 108.572 11.8944 109.693 11.8944C110.011 11.8944 110.307 12.0006 110.687 12.1272C111.407 12.3588 112.253 12.7387 113.395 12.7387C114.431 12.7387 115.023 12.2744 115.023 11.5567C115.023 10.8185 114.368 10.4386 113.057 10.0165C110.623 9.29279 108.191 8.62337 108.191 5.51998C108.191 2.39607 110.476 0.623047 113.752 0.623047C114.916 0.623047 115.867 0.791907 116.586 1.08741C117.581 1.48906 118.131 2.16449 118.131 2.98708C118.131 3.97974 117.475 4.69739 116.481 4.69739C116.216 4.69783 115.953 4.66212 115.698 4.59125C115.105 4.42239 114.535 4.1486 113.604 4.1486C112.736 4.1486 112.144 4.52853 112.144 5.20397C112.144 5.87941 112.905 6.06877 114.239 6.51263C117.073 7.41965 118.998 8.17952 118.998 11.3251C118.998 14.5118 116.755 16.3692 113.139 16.3692C111.763 16.3692 110.304 16.0954 109.267 15.5466Z" fill="white"/>
<path d="M10.75 1.2832L11.5622 1.56903C11.2968 1.45947 11.0256 1.36406 10.75 1.2832Z" fill="white"/>
<path d="M17.2462 9.74006L16.7421 12.1921L16.3868 14.3258C16.3723 14.4104 16.3342 14.4892 16.2769 14.5532C16.2196 14.6173 16.1454 14.6639 16.0628 14.6878C15.9802 14.7117 15.8925 14.7119 15.8098 14.6884C15.7271 14.665 15.6526 14.6187 15.595 14.555L15.2046 14.1196C14.4321 15.2107 13.4082 16.1007 12.219 16.7146C11.0299 17.3286 9.71041 17.6485 8.37154 17.6475C2.68075 17.6475 -1.68525 11.9787 0.635547 5.99379C1.02644 4.98917 1.62325 4.07707 2.38776 3.31587C3.15228 2.55467 4.06765 1.96114 5.07528 1.57328C7.06851 0.803766 9.02669 0.774819 10.7564 1.2826L11.3088 1.478C11.463 1.53015 11.5989 1.62561 11.7001 1.75291C11.8013 1.8802 11.8635 2.03393 11.8793 2.19565C11.8793 2.21736 11.8793 2.24028 11.8793 2.26199C11.8794 2.30964 11.8758 2.35722 11.8685 2.40431C11.8609 2.45414 11.8458 2.50254 11.8237 2.54784L11.7137 2.78907L10.9583 4.42942C10.8701 4.61661 10.7138 4.76329 10.5212 4.83967C10.3286 4.91606 10.114 4.91644 9.92116 4.84072C9.37367 4.63134 8.79226 4.52423 8.20595 4.52471C4.89397 4.52471 2.36769 7.88381 3.86291 11.3768C4.28386 12.3637 5.062 13.1561 6.04228 13.5961C8.84175 14.8336 11.5699 13.4924 12.5695 11.22L11.9507 10.5445C11.8937 10.4828 11.8549 10.4066 11.8386 10.3243C11.8224 10.242 11.8293 10.1567 11.8586 10.0781C11.8878 9.99941 11.9384 9.93037 12.0045 9.87859C12.0707 9.82681 12.15 9.7943 12.2335 9.78468L12.9587 9.69664L14.1675 9.55069L15.8271 9.32153L16.724 9.20092H16.73C16.8024 9.19034 16.8763 9.19721 16.9455 9.22097C17.0147 9.24473 17.0771 9.28467 17.1277 9.33746C17.1782 9.39025 17.2153 9.45434 17.236 9.52439C17.2566 9.59443 17.2601 9.66838 17.2462 9.74006Z" fill="white"/>
<path d="M28.4916 11.6586C28.1005 12.6633 27.5035 13.5755 26.7388 14.3367C25.9741 15.0979 25.0585 15.6913 24.0506 16.0791C23.2395 16.3977 22.3874 16.6007 21.5195 16.6821V20.7323C21.5185 21.0683 21.3844 21.3901 21.1464 21.6277C20.9083 21.8652 20.5857 21.999 20.2491 22H19.3728C19.0361 21.999 18.7135 21.8652 18.4755 21.6277C18.2375 21.3901 18.1033 21.0683 18.1024 20.7323V16.2732L17.8219 16.1743C17.6677 16.1222 17.5319 16.0267 17.4307 15.8994C17.3295 15.7721 17.2672 15.6184 17.2514 15.4567C17.2514 15.435 17.2514 15.4121 17.2514 15.3891C17.2514 15.3419 17.255 15.2947 17.2623 15.248C17.2696 15.1981 17.2847 15.1497 17.307 15.1045L17.417 14.8633L18.1048 13.3713V9.19923C18.1057 8.86333 18.2399 8.54145 18.4779 8.30392C18.716 8.0664 19.0385 7.93254 19.3752 7.93158H20.2515C20.5882 7.93254 20.9107 8.0664 21.1488 8.30392C21.3868 8.54145 21.521 8.86333 21.5219 9.19923V13.0939C24.5305 12.72 26.6712 9.55866 25.269 6.27917C24.8474 5.28983 24.0668 4.49589 23.0836 4.05625C20.2842 2.81755 17.556 4.15998 16.5564 6.43235L17.1753 7.10779C17.2322 7.16949 17.271 7.24573 17.2873 7.32806C17.3035 7.41039 17.2966 7.4956 17.2673 7.57427C17.2381 7.65293 17.1875 7.72197 17.1214 7.77375C17.0552 7.82554 16.9759 7.85804 16.8924 7.86766L16.1672 7.95571L14.9584 8.10164L13.2927 8.33081L12.3959 8.45143C12.3239 8.4601 12.2509 8.45161 12.1829 8.42667C12.1149 8.40173 12.0538 8.36103 12.0046 8.30793C11.9554 8.25484 11.9195 8.19086 11.8999 8.12124C11.8803 8.05162 11.8775 7.97835 11.8918 7.90746L12.3959 5.45538L12.7512 3.32171C12.7657 3.23711 12.8038 3.15829 12.8611 3.09427C12.9184 3.03025 12.9926 2.98362 13.0752 2.95971C13.1578 2.9358 13.2455 2.93558 13.3282 2.95907C13.4109 2.98256 13.4853 3.02882 13.543 3.09255L13.9334 3.52796C14.7059 2.43682 15.7298 1.54682 16.9189 0.932869C18.1081 0.31892 19.4276 -0.00101086 20.7664 2.39933e-06C26.4464 0.00482696 30.8124 5.67248 28.4916 11.6586Z" fill="white"/>
<path d="M11.8436 2.49219C11.8161 2.5972 11.7698 2.69645 11.707 2.78522L11.8436 2.49219Z" fill="white"/>
</svg>
