<svg width="119" height="26" viewBox="0 0 119 26" fill="none" xmlns="http://www.w3.org/2000/svg">
<path d="M32.3821 18.2821V8.38207H30.5206C29.3989 8.38207 28.6797 7.74885 28.6797 6.69347C28.6797 5.6176 29.3989 4.98438 30.5206 4.98438H37.9242C39.0242 4.98438 39.7434 5.6176 39.7434 6.69347C39.7434 7.74885 39.0181 8.38207 37.9242 8.38207H36.041V18.2821C36.041 19.4424 35.3012 20.1395 34.2218 20.1395C33.1206 20.1395 32.3821 19.4424 32.3821 18.2821Z" fill="white"/>
<path d="M40.9688 18.2759V6.70902C40.9688 5.5475 41.7303 4.85156 42.8097 4.85156C43.8891 4.85156 44.6494 5.5475 44.6494 6.70902V18.2759C44.6494 19.4362 43.8879 20.1334 42.8097 20.1334C41.7315 20.1334 40.9688 19.4362 40.9688 18.2759Z" fill="white"/>
<path d="M46.4688 18.3808C46.4688 18.0431 46.5752 17.1144 47.0611 14.4549L48.3303 7.38446C48.6688 5.50529 49.5149 4.85156 50.7418 4.85156C52.4981 4.85156 52.9635 5.99136 53.6827 8.14432L55.3955 13.4417H55.4378L56.8979 8.90419C57.8069 5.94915 58.294 4.85156 59.9198 4.85156C61.3377 4.85156 62.1197 5.48479 62.4799 7.38446L64.1081 16.5873C64.2294 17.1787 64.3073 17.7781 64.3414 18.3808C64.3438 18.6117 64.3001 18.8406 64.2127 19.0543C64.1253 19.2681 63.996 19.4622 63.8324 19.6254C63.6688 19.7887 63.4743 19.9177 63.2601 20.0049C63.0459 20.0921 62.8164 20.1358 62.5851 20.1334C61.1261 20.1334 60.7454 19.3518 60.4698 17.5365L59.5814 11.6904H59.5391L57.3633 18.6558C57.0454 19.6473 56.4954 20.1334 55.4172 20.1334C54.2532 20.1334 53.7455 19.6509 53.4071 18.5497L51.2712 11.6904H51.2289L50.3187 17.7476C49.9803 19.8801 49.1982 20.1334 48.2252 20.1334C47.9938 20.1358 47.7644 20.0921 47.5502 20.0049C47.336 19.9177 47.1414 19.7887 46.9779 19.6254C46.8143 19.4622 46.685 19.2681 46.5976 19.0543C46.5102 18.8406 46.4664 18.6117 46.4688 18.3808Z" fill="white"/>
<path d="M66.1602 18.2759V6.70902C66.1602 5.5475 66.9217 4.85156 67.9999 4.85156C69.0781 4.85156 69.8408 5.5475 69.8408 6.70902V18.2759C69.8408 19.4362 69.0793 20.1334 67.9999 20.1334C66.9205 20.1334 66.1602 19.4362 66.1602 18.2759Z" fill="white"/>
<path d="M71.4062 18.0071C71.4062 17.4583 71.5537 17.1206 72.0191 16.509L78.365 8.23492H73.4998C72.3575 8.23492 71.6178 7.6017 71.6178 6.60905C71.6178 5.61639 72.3575 4.98438 73.5216 4.98438H80.8635C82.2814 4.98438 83.0852 5.72253 83.0852 6.84183C83.0852 7.32429 82.7467 8.06606 82.0904 8.93086L76.1494 16.614H81.5223C82.6851 16.614 83.4043 17.2472 83.4043 18.3026C83.4043 19.3797 82.679 20.0129 81.5223 20.0129H73.8806C72.2729 20.0129 71.4062 19.4424 71.4062 18.0071Z" fill="white"/>
<path d="M84.9453 18.2181V6.7779C84.9437 6.30528 85.1297 5.85126 85.4627 5.51515C85.7957 5.17904 86.2486 4.9882 86.7222 4.98438H92.1156C93.131 4.98438 93.8719 5.65981 93.8719 6.69347C93.8719 7.77056 93.131 8.38207 92.1156 8.38207H88.6006V10.7461H91.7953C92.8312 10.7461 93.5565 11.3842 93.5565 12.4564C93.5565 13.5118 92.8796 14.145 91.8013 14.145H88.626V16.614H92.2002C93.2797 16.614 93.9771 17.2267 93.9771 18.3026C93.9771 19.3374 93.2519 20.0129 92.222 20.0129H86.7222C86.2484 20.0087 85.7956 19.8176 85.4627 19.4813C85.1297 19.145 84.9437 18.6909 84.9453 18.2181Z" fill="white"/>
<path d="M95.6094 18.2821V6.7779C95.6078 6.30528 95.7938 5.85126 96.1268 5.51515C96.4598 5.17904 96.9126 4.9882 97.3862 4.98438H101.681C104.663 4.98438 106.758 6.82012 106.758 9.73295C106.758 11.4855 105.805 13.3007 103.563 13.87L103.442 13.9122L106.171 16.8468C106.595 17.3111 106.953 17.8177 106.953 18.4292C106.953 19.2313 106.277 20.1395 105.029 20.1395C104.373 20.1395 103.865 19.949 103.252 19.1264L99.3384 14.0811H99.2961V18.2821C99.2961 19.4424 98.5346 20.1395 97.4564 20.1395C96.3782 20.1395 95.6094 19.4424 95.6094 18.2821ZM101.554 11.401C102.442 11.401 103.077 10.7678 103.077 9.83909C103.077 8.91036 102.336 8.38207 101.554 8.38207H99.284V11.3974L101.554 11.401Z" fill="white"/>
<path d="M109.267 19.5486C108.485 19.1047 107.938 18.5354 107.938 17.796C107.938 16.7829 108.572 15.8964 109.693 15.8964C110.011 15.8964 110.307 16.0025 110.687 16.1292C111.407 16.3607 112.253 16.7407 113.395 16.7407C114.431 16.7407 115.023 16.2763 115.023 15.5587C115.023 14.8205 114.368 14.4406 113.057 14.0184C110.623 13.2947 108.191 12.6253 108.191 9.52193C108.191 6.39803 110.476 4.625 113.752 4.625C114.916 4.625 115.867 4.79386 116.586 5.08936C117.581 5.49101 118.131 6.16645 118.131 6.98904C118.131 7.98169 117.475 8.69934 116.481 8.69934C116.216 8.69979 115.953 8.66407 115.698 8.5932C115.105 8.42434 114.535 8.15055 113.604 8.15055C112.736 8.15055 112.144 8.53048 112.144 9.20592C112.144 9.88136 112.905 10.0707 114.239 10.5146C117.073 11.4216 118.998 12.1815 118.998 15.3271C118.998 18.5137 116.755 20.3712 113.139 20.3712C111.763 20.3712 110.304 20.0974 109.267 19.5486Z" fill="white"/>
<path d="M10.75 5.28125L11.5622 5.56708C11.2968 5.45752 11.0256 5.36211 10.75 5.28125Z" fill="white"/>
<path d="M17.2462 13.7401L16.7421 16.1921L16.3868 18.3258C16.3723 18.4104 16.3342 18.4892 16.2769 18.5532C16.2196 18.6173 16.1454 18.6639 16.0628 18.6878C15.9802 18.7117 15.8925 18.7119 15.8098 18.6884C15.7271 18.665 15.6526 18.6187 15.595 18.555L15.2046 18.1196C14.4321 19.2107 13.4082 20.1007 12.219 20.7146C11.0299 21.3286 9.71041 21.6485 8.37154 21.6475C2.68075 21.6475 -1.68525 15.9787 0.635547 9.99379C1.02644 8.98917 1.62325 8.07707 2.38776 7.31587C3.15228 6.55467 4.06765 5.96114 5.07528 5.57328C7.06851 4.80377 9.02669 4.77482 10.7564 5.2826L11.3088 5.478C11.463 5.53015 11.5989 5.62561 11.7001 5.75291C11.8013 5.8802 11.8635 6.03393 11.8793 6.19565C11.8793 6.21736 11.8793 6.24028 11.8793 6.26199C11.8794 6.30964 11.8758 6.35722 11.8685 6.40431C11.8609 6.45414 11.8458 6.50254 11.8237 6.54784L11.7137 6.78907L10.9583 8.42942C10.8701 8.61661 10.7138 8.76329 10.5212 8.83967C10.3286 8.91606 10.114 8.91644 9.92116 8.84072C9.37367 8.63134 8.79226 8.52423 8.20595 8.52471C4.89397 8.52471 2.36769 11.8838 3.86291 15.3768C4.28386 16.3637 5.062 17.1561 6.04228 17.5961C8.84175 18.8336 11.5699 17.4924 12.5695 15.22L11.9507 14.5445C11.8937 14.4828 11.8549 14.4066 11.8386 14.3243C11.8224 14.242 11.8293 14.1567 11.8586 14.0781C11.8878 13.9994 11.9384 13.9304 12.0045 13.8786C12.0707 13.8268 12.15 13.7943 12.2335 13.7847L12.9587 13.6966L14.1675 13.5507L15.8271 13.3215L16.724 13.2009H16.73C16.8024 13.1903 16.8763 13.1972 16.9455 13.221C17.0147 13.2447 17.0771 13.2847 17.1277 13.3375C17.1782 13.3902 17.2153 13.4543 17.236 13.5244C17.2566 13.5944 17.2601 13.6684 17.2462 13.7401Z" fill="white"/>
<path d="M28.4916 15.6586C28.1005 16.6633 27.5035 17.5755 26.7388 18.3367C25.9741 19.0979 25.0585 19.6913 24.0506 20.0791C23.2395 20.3977 22.3874 20.6007 21.5195 20.6821V24.7323C21.5185 25.0683 21.3844 25.3901 21.1464 25.6277C20.9083 25.8652 20.5857 25.999 20.2491 26H19.3728C19.0361 25.999 18.7135 25.8652 18.4755 25.6277C18.2375 25.3901 18.1033 25.0683 18.1024 24.7323V20.2732L17.8219 20.1743C17.6677 20.1222 17.5319 20.0267 17.4307 19.8994C17.3295 19.7721 17.2672 19.6184 17.2514 19.4567C17.2514 19.435 17.2514 19.4121 17.2514 19.3891C17.2514 19.3419 17.255 19.2947 17.2623 19.248C17.2696 19.1981 17.2847 19.1497 17.307 19.1045L17.417 18.8633L18.1048 17.3713V13.1992C18.1057 12.8633 18.2399 12.5414 18.4779 12.3039C18.716 12.0664 19.0385 11.9325 19.3752 11.9316H20.2515C20.5882 11.9325 20.9107 12.0664 21.1488 12.3039C21.3868 12.5414 21.521 12.8633 21.5219 13.1992V17.0939C24.5305 16.72 26.6712 13.5587 25.269 10.2792C24.8474 9.28983 24.0668 8.49589 23.0836 8.05625C20.2842 6.81755 17.556 8.15998 16.5564 10.4323L17.1753 11.1078C17.2322 11.1695 17.271 11.2457 17.2873 11.3281C17.3035 11.4104 17.2966 11.4956 17.2673 11.5743C17.2381 11.6529 17.1875 11.722 17.1214 11.7738C17.0552 11.8255 16.9759 11.858 16.8924 11.8677L16.1672 11.9557L14.9584 12.1016L13.2927 12.3308L12.3959 12.4514C12.3239 12.4601 12.2509 12.4516 12.1829 12.4267C12.1149 12.4017 12.0538 12.361 12.0046 12.3079C11.9554 12.2548 11.9195 12.1909 11.8999 12.1212C11.8803 12.0516 11.8775 11.9784 11.8918 11.9075L12.3959 9.45538L12.7512 7.32171C12.7657 7.23711 12.8038 7.15829 12.8611 7.09427C12.9184 7.03025 12.9926 6.98362 13.0752 6.95971C13.1578 6.9358 13.2455 6.93558 13.3282 6.95907C13.4109 6.98256 13.4853 7.02882 13.543 7.09255L13.9334 7.52796C14.7059 6.43682 15.7298 5.54682 16.9189 4.93287C18.1081 4.31892 19.4276 3.99899 20.7664 4C26.4464 4.00483 30.8124 9.67248 28.4916 15.6586Z" fill="white"/>
<path d="M11.8436 6.49219C11.8161 6.5972 11.7698 6.69645 11.707 6.78522L11.8436 6.49219Z" fill="white"/>
</svg>
