<svg width="36" height="36" viewBox="0 0 36 36" fill="none" xmlns="http://www.w3.org/2000/svg">
<g clip-path="url(#clip0_464_36082)">
<path d="M-9.00271 0H44.9973V36H-9.00271V0Z" fill="#006C35"/>
<path d="M24.8583 24.7525C24.7697 24.7525 24.5302 24.9973 24.5302 25.0858C24.5302 25.1535 24.65 25.2889 24.7489 25.3671V25.5703H7.87392C8.47288 26.1692 9.36351 26.1848 11.1552 26.1848H24.7489V26.388C24.6448 26.4713 24.5302 26.6015 24.5302 26.6692C24.5302 26.7578 24.7697 27.0025 24.8583 27.0025C24.9312 27.0025 25.0615 26.8724 25.1448 26.763H25.8948C25.9184 26.8012 25.9584 26.8339 26.0099 26.8569C26.0613 26.8799 26.1219 26.8921 26.1838 26.8921C26.2458 26.8921 26.3064 26.8799 26.3578 26.8569C26.4093 26.8339 26.4493 26.8012 26.4729 26.763H27.3635C27.4729 26.888 27.6187 26.8932 27.7072 26.8932C27.9624 26.8932 28.1239 26.7838 28.1239 26.1848C28.1239 25.6223 27.8739 25.5703 27.2593 25.5703H24.9677V25.3671C25.0667 25.2889 25.1864 25.1535 25.1864 25.0858C25.1864 24.9973 24.9468 24.7525 24.8583 24.7525ZM24.9677 26.1848H27.2593C27.2177 26.341 27.2177 26.4609 27.2593 26.5755H26.4729C26.4493 26.5373 26.4093 26.5046 26.3578 26.4816C26.3064 26.4586 26.2458 26.4464 26.1838 26.4464C26.1219 26.4464 26.0613 26.4586 26.0099 26.4816C25.9584 26.5046 25.9184 26.5373 25.8948 26.5755H25.1448C25.1031 26.5182 25.025 26.4297 24.9677 26.388V26.1848Z" fill="white"/>
<path d="M29.2256 9.82343C29.5483 9.55543 29.8611 9.28007 30.1711 9.00271C30.1848 9.25198 30.0228 9.48116 29.8419 9.67588C29.745 9.7891 29.6084 9.87385 29.4855 9.96797C29.4266 10.0102 29.3695 10.0536 29.313 10.0975C29.3293 10.1642 29.3541 10.2298 29.3632 10.2975C29.3585 10.3603 29.3457 10.4227 29.3362 10.4852C29.2667 10.3989 29.217 10.3025 29.1375 10.2216C29.1725 10.5043 29.1895 10.7883 29.2133 11.0718C29.2755 11.9041 29.3324 12.7366 29.3861 13.5693C29.3829 13.5907 29.4068 13.6043 29.4221 13.6196C29.6516 13.8215 29.8802 14.0242 30.0951 14.2362C30.2639 14.4139 30.4237 14.5977 30.5592 14.7928C30.7367 15.0482 30.8772 15.3248 30.9187 15.6164C30.9413 15.7997 30.9301 15.989 30.8547 16.1646C30.7788 15.7233 30.5398 15.3052 30.2014 14.9514C30.1941 14.9505 30.1793 14.9488 30.172 14.948C30.1758 14.9453 30.1837 14.9398 30.1875 14.9371C29.9477 14.6786 29.6901 14.4307 29.4254 14.188C29.4438 14.4848 29.4623 14.7818 29.4766 15.0787C29.4907 15.4618 29.4728 15.845 29.4523 16.2277C29.4525 16.3003 29.4112 16.3665 29.3899 16.4358C29.3282 16.5913 29.2785 16.7506 29.1995 16.9014C29.1868 16.5479 29.1717 16.194 29.1447 15.8409C29.0963 15.2084 29.0453 14.5762 28.9996 13.9437C28.9928 13.8939 28.9963 13.8431 28.9843 13.7942C28.8101 13.633 28.622 13.4815 28.4401 13.326C28.1197 13.0611 27.796 12.7987 27.46 12.5463C27.5237 13.207 27.5897 13.8676 27.6493 14.5285C27.6748 14.8286 27.7086 15.1287 27.7122 15.4296C27.7168 15.6914 27.7135 15.9533 27.7061 16.2149C27.707 16.38 27.7099 16.5507 27.6359 16.7077C27.5264 16.9022 27.33 17.0646 27.0932 17.1648C26.9083 17.2424 26.6993 17.2837 26.4901 17.2851C26.3489 17.2876 26.2085 17.2579 26.0837 17.2069C25.8652 17.1094 25.7093 16.9431 25.609 16.7641C25.5402 16.6409 25.4908 16.5107 25.4642 16.3775C25.4487 16.3192 25.4323 16.2518 25.3665 16.2154C25.3141 16.1874 25.2515 16.2098 25.2009 16.2285C25.0776 16.2804 24.959 16.3431 24.8699 16.4293C24.5796 16.7057 24.4416 17.0584 24.3551 17.4056C24.3128 17.5554 24.2458 17.7043 24.1281 17.828C24.0427 17.9161 23.9205 17.9924 23.7766 18.0027C23.6638 17.9964 23.5546 17.9664 23.4538 17.927C23.2307 17.8338 23.0738 17.6641 22.9838 17.4808C22.957 17.4332 22.9446 17.3812 22.9173 17.3339C22.9127 17.3333 22.9037 17.3323 22.8991 17.3317C22.9035 17.3294 22.9124 17.3248 22.9166 17.3224C22.8243 17.0426 22.8108 16.7504 22.831 16.4628C22.8407 16.4349 22.8043 16.4248 22.7843 16.4094C22.7048 16.3554 22.6723 16.2698 22.6734 16.1892C22.6712 15.8932 22.7254 15.5921 22.8829 15.3214C23.0105 15.0981 23.2017 14.9031 23.3879 14.7089C23.4054 14.6879 23.4363 14.6712 23.4448 14.6467C23.3289 14.542 23.2064 14.4416 23.0828 14.3426C23.0122 14.2781 22.9264 14.2257 22.857 14.1605C22.5961 13.9367 22.3395 13.7098 22.0832 13.4827C22.1076 13.8149 22.1263 14.1473 22.1472 14.4797C22.1632 14.7875 22.1901 15.0952 22.1846 15.4034C22.1857 15.6781 22.1701 15.9526 22.1559 16.227C22.1551 16.2954 22.1203 16.359 22.0982 16.4242C22.036 16.5848 21.9799 16.7474 21.9044 16.9046C21.8904 16.7746 21.8989 16.6436 21.8885 16.5134C21.86 15.864 21.7957 15.216 21.7502 14.5673C21.7113 14.071 21.6771 13.5744 21.6358 13.0783C21.4649 12.9105 21.2846 12.7481 21.1157 12.5788C20.9178 12.3813 20.7201 12.1824 20.5545 11.9669C20.3168 11.6284 20.0498 11.2997 19.7203 11.0121C19.7015 10.9981 19.7073 10.9773 19.7075 10.9594C19.7188 10.7733 19.7278 10.5872 19.7395 10.4011C19.9741 10.5219 20.1978 10.6559 20.4128 10.7978C20.5794 10.9115 20.738 11.0334 20.8729 11.1714C20.9424 11.2365 21.0066 11.3197 20.9833 11.4087C20.9041 11.3838 20.8222 11.364 20.7473 11.3318C20.7172 11.3187 20.6844 11.3103 20.6506 11.3063C20.6457 11.3584 20.6905 11.3994 20.7241 11.4404C20.9685 11.7236 21.2234 12.0008 21.485 12.2742C21.5186 12.3093 21.5556 12.3427 21.5815 12.3822C21.565 12.0616 21.534 11.7414 21.5121 11.421C21.475 10.9262 21.437 10.4315 21.3999 9.93675C21.3932 9.86286 21.3977 9.78659 21.3602 9.71706C21.342 9.68935 21.3689 9.66402 21.3837 9.64005C21.4735 9.50274 21.5602 9.36407 21.6454 9.22476C21.6495 9.21503 21.6692 9.18994 21.6752 9.21403C21.8366 9.54594 21.9622 9.8887 22.055 10.2366C22.0835 10.3198 22.0483 10.4047 22.0378 10.488C21.9775 10.3937 21.9092 10.303 21.8423 10.2116C21.928 11.0805 21.9777 11.9515 22.0419 12.8214C22.0853 12.8791 22.1518 12.9248 22.2048 12.9775C22.7168 13.4445 23.2483 13.8978 23.7794 14.351C24.1742 14.0043 24.5728 13.6602 24.9729 13.3174C24.9903 13.3046 25.0021 13.289 24.9959 13.2697C24.8756 12.1881 24.755 11.1064 24.6345 10.0248C24.6192 9.91542 24.6233 9.80283 24.5714 9.69897C24.67 9.53133 24.7781 9.36707 24.876 9.19905C24.9297 9.2873 24.9666 9.38155 25.0089 9.47367C25.1083 9.70322 25.1943 9.93651 25.2622 10.1731C25.2764 10.2264 25.2998 10.2802 25.2905 10.3353C25.2834 10.3851 25.2747 10.4348 25.2679 10.4847C25.202 10.3966 25.1387 10.3072 25.0723 10.2194C25.0627 10.2222 25.0535 10.2252 25.0447 10.2282C25.0541 10.2301 25.0639 10.2318 25.074 10.2335C25.1742 11.1534 25.2496 12.0754 25.3479 12.9957C25.7626 12.647 26.1741 12.2958 26.5907 11.9487C26.6365 11.9075 26.6885 11.8707 26.7307 11.827C26.5279 11.6114 26.3388 11.3881 26.1501 11.1648C26.0845 11.0913 26.0335 11.0106 25.9709 10.9356C25.839 10.7738 25.7043 10.6102 25.5232 10.4797C25.5074 10.2695 25.4989 10.0588 25.4875 9.84826C25.9128 10.1423 26.3449 10.4307 26.7583 10.7355C26.7979 10.7636 26.8294 10.798 26.8515 10.8365C26.8143 10.5076 26.7802 10.1785 26.745 9.84951C26.7407 9.8193 26.742 9.78785 26.7261 9.75963C26.7155 9.73068 26.6863 9.69972 26.71 9.67013C26.8078 9.51099 26.9001 9.34971 26.9968 9.19007C27.1661 9.50711 27.298 9.8364 27.4024 10.1704C27.4131 10.2174 27.439 10.2634 27.4311 10.3119C27.4234 10.3653 27.4188 10.4189 27.4111 10.4724C27.3513 10.3937 27.2915 10.3151 27.2323 10.2363C27.2221 10.2238 27.2124 10.2114 27.2038 10.1986C27.2577 10.575 27.2934 10.9528 27.3355 11.33C27.6471 11.0684 27.967 10.8131 28.2893 10.5596C28.4329 10.4521 28.5818 10.349 28.7194 10.2366C28.7064 10.0905 28.699 9.94424 28.6845 9.79833C28.6818 9.75202 28.628 9.70533 28.6657 9.66102C28.7675 9.50799 28.8639 9.35258 28.9588 9.19667C29.0701 9.39891 29.1452 9.6126 29.2256 9.82343ZM27.3697 11.6568C27.3746 11.7159 27.3809 11.7749 27.3877 11.8338C27.489 11.9328 27.5919 12.0309 27.6988 12.1262C28.1066 12.4904 28.5285 12.8445 28.9423 13.2044C28.8782 12.3143 28.8063 11.4243 28.7427 10.534C28.2759 10.9013 27.8181 11.2755 27.3697 11.6568ZM26.489 10.8495C26.6198 11.0112 26.7559 11.1706 26.901 11.3245C26.8894 11.1819 26.8719 11.0393 26.8561 10.8969C26.8482 10.9095 26.8397 10.9221 26.833 10.935C26.7344 10.8781 26.6141 10.8334 26.489 10.8495ZM25.6506 13.152C25.5661 13.2307 25.4719 13.3034 25.3924 13.3853C25.4112 13.6376 25.4519 13.8894 25.4769 14.1417C25.4892 14.5587 25.4017 15.0013 25.0776 15.3426C25.087 15.2883 25.0825 15.2334 25.0833 15.1787C25.0829 14.9916 25.0832 14.8045 25.0832 14.6173C25.081 14.4379 25.0923 14.2585 25.0858 14.0791C25.0767 13.9875 25.0649 13.8959 25.0559 13.8043C25.0518 13.7896 25.0571 13.7635 25.0308 13.7627C25.0516 13.7421 25.047 13.7165 25.0422 13.6923C24.929 13.7869 24.8213 13.8855 24.7085 13.9804C24.4865 14.1766 24.2505 14.3624 24.023 14.5545C24.2541 14.7514 24.3991 15.0107 24.4365 15.2775C24.4742 15.5612 24.3849 15.8629 24.1496 16.0834C23.9419 16.2768 23.6441 16.3989 23.3347 16.455C23.1896 16.4805 23.0345 16.498 22.8905 16.4595C22.9085 16.5786 22.931 16.6973 22.9611 16.8149C23.0129 17.0131 23.0803 17.2132 23.2139 17.3878C23.2853 17.4771 23.3833 17.5636 23.518 17.5898C23.6621 17.6175 23.8086 17.5604 23.9099 17.482C24.0002 17.4179 24.042 17.3251 24.08 17.2367C24.1944 16.9764 24.233 16.6968 24.3843 16.4466C24.4905 16.248 24.6254 16.0552 24.82 15.9022C24.921 15.8191 25.0371 15.7482 25.1588 15.685C25.2425 15.6453 25.344 15.6122 25.4426 15.6355C25.5364 15.6573 25.5997 15.7228 25.6431 15.7889C25.7418 15.9375 25.7675 16.1075 25.8475 16.2621C25.9061 16.3898 25.9837 16.5194 26.1216 16.6056C26.2609 16.6926 26.4445 16.7192 26.6182 16.7134C26.9214 16.7031 27.2063 16.5953 27.4453 16.4524C27.424 16.2068 27.4016 15.9612 27.3753 15.7158C27.2426 14.5173 27.117 13.3182 26.988 12.1196C26.9836 12.0866 26.9462 12.0643 26.9277 12.0363C26.4943 12.4026 26.0742 12.7786 25.6506 13.152ZM23.6748 14.8717C23.5841 14.9545 23.4985 15.041 23.4131 15.1274C23.2508 15.3007 23.0883 15.4759 22.9681 15.6701C22.9378 15.7195 22.9102 15.781 22.9451 15.8334C22.9862 15.8871 23.0743 15.8951 23.1465 15.8952C23.4655 15.8851 23.763 15.7721 24.0221 15.6311C24.1087 15.5972 24.1901 15.5224 24.1574 15.4411C24.1145 15.3319 24.0333 15.2355 23.9538 15.141C23.8713 15.0482 23.7843 14.9574 23.6917 14.8707C23.6875 14.8709 23.6791 14.8714 23.6748 14.8717Z" fill="white"/>
<path d="M30.6227 9.65292C30.7175 9.47492 30.8053 9.2948 30.9012 9.11717C31.0482 9.5005 31.1918 9.88496 31.3117 10.2742C31.3297 10.3412 31.3532 10.4077 31.362 10.476C31.3495 10.53 31.3287 10.5831 31.327 10.6386C31.2746 10.5588 31.2219 10.4791 31.1687 10.3997C31.2356 11.3954 31.3164 12.3907 31.4066 13.3854C31.4346 13.7053 31.4754 14.0246 31.4902 14.3451C31.5174 14.9389 31.4912 15.5456 31.2632 16.1164C31.1776 16.3227 31.0686 16.5238 30.9301 16.7115C30.7439 16.9542 30.4675 17.1456 30.1635 17.2926C29.6221 17.5504 29.0024 17.6844 28.3836 17.7672C28.3486 17.7773 28.3344 17.7451 28.3145 17.7305C28.8665 17.5201 29.3972 17.273 29.8926 16.9874C30.1403 16.8406 30.3828 16.686 30.5912 16.5042C30.83 16.2914 31.0102 16.0351 31.0921 15.757C31.1818 15.4774 31.1509 15.1864 31.1312 14.9019C31.0795 14.2458 31.0154 13.5903 30.9608 12.9344C30.8767 11.9236 30.792 10.9126 30.7078 9.9018C30.6899 9.83078 30.6339 9.76986 30.6081 9.70072C30.6011 9.68375 30.6172 9.66852 30.6227 9.65292Z" fill="white"/>
<path d="M7.18942 9.64839C7.29701 9.48337 7.40035 9.31673 7.50526 9.15072C7.67564 9.50284 7.81053 9.86583 7.90408 10.2356C7.91023 10.3028 7.88704 10.3699 7.87947 10.4368C7.80249 10.3544 7.75626 10.2552 7.67786 10.1729C7.72061 10.4506 7.73592 10.7306 7.76384 11.0095C7.79492 11.3701 7.82426 11.7308 7.85344 12.0916C8.08709 12.0606 8.29706 11.9514 8.4381 11.8023C8.65028 11.5792 8.74446 11.2983 8.77113 11.0234C8.76939 10.6703 8.74557 10.3111 8.60532 9.97305C8.58055 9.9039 8.53496 9.837 8.5359 9.76372C8.55263 9.62754 8.6102 9.49698 8.6711 9.36978C8.68656 9.34007 8.69665 9.30226 8.74209 9.29339C8.81135 9.46278 8.88297 9.63204 8.92903 9.80654C9.0005 10.0799 9.03505 10.3583 9.0748 10.6354C9.10131 10.8031 9.1092 10.9736 9.16284 11.138C9.2324 11.3591 9.37345 11.5745 9.60567 11.7151C9.7803 11.8199 10.0034 11.8917 10.2255 11.8639C10.3822 11.8415 10.5407 11.7922 10.6504 11.6976C10.6999 11.6557 10.734 11.5943 10.7128 11.5368C10.4885 11.0799 10.3053 10.6112 10.1201 10.1436C10.0569 9.98092 9.9947 9.81791 9.93271 9.655C9.91504 9.61369 9.93808 9.57112 9.94659 9.53031C9.98556 9.40573 10.036 9.28228 10.1058 9.16644C10.1817 9.19527 10.2309 9.25232 10.2804 9.30387C10.4298 9.47414 10.5489 9.65962 10.6584 9.84748C10.6532 9.87145 10.6481 9.89554 10.644 9.91976C10.5885 9.8652 10.5172 9.81628 10.4279 9.80243C10.4137 9.82914 10.4144 9.85834 10.4266 9.88543C10.526 10.1232 10.6321 10.3593 10.7332 10.5966C10.8192 10.8081 10.9054 11.0234 10.9166 11.2471C10.9252 11.4293 10.8894 11.6117 10.824 11.7861C10.8155 11.8012 10.8138 11.8309 10.7849 11.8272C10.8098 11.8415 10.7868 11.8648 10.7808 11.8827C10.7032 12.0356 10.5825 12.1841 10.3984 12.2681C10.2405 12.3432 10.0455 12.3548 9.86754 12.3271C9.63326 12.29 9.43228 12.1702 9.2884 12.0227C9.08615 11.8147 8.96199 11.5648 8.88848 11.3107C8.87744 11.3109 8.85535 11.3117 8.84431 11.312C8.77552 11.5677 8.67093 11.8194 8.50938 12.0482C8.36457 12.2528 8.16436 12.4462 7.88828 12.5438C7.93655 13.1768 7.98704 13.8096 8.02158 14.4432C8.02663 14.7557 8.0107 15.068 7.99113 15.38C7.99082 15.4225 7.96841 15.4618 7.9517 15.5015C7.89758 15.6369 7.84032 15.7716 7.77942 15.9054C7.76981 15.9278 7.75734 15.9496 7.73951 15.9688C7.73163 15.3723 7.66773 14.7773 7.61678 14.1824C7.57055 13.6585 7.52434 13.1346 7.47938 12.6107C7.25836 12.6068 7.03071 12.5557 6.86758 12.4328C6.67749 12.2944 6.58045 12.0948 6.53408 11.8978C6.49306 11.7233 6.48438 11.5445 6.50158 11.3678C6.53945 11.1372 6.61407 10.9116 6.68522 10.6862C6.69499 10.6459 6.7021 10.6035 6.69059 10.563C6.68617 10.5482 6.6819 10.5308 6.66029 10.5266C6.62717 10.5233 6.60255 10.5429 6.58015 10.5587C6.45615 10.6536 6.37506 10.7763 6.30423 10.8991C6.16998 11.1529 6.09094 11.4234 6.04787 11.6959C6.01221 11.8755 5.96015 12.0544 5.87496 12.2237C5.80728 12.3496 5.72289 12.4791 5.57617 12.558C5.4509 12.6263 5.28526 12.6179 5.14817 12.5787C4.97463 12.5278 4.8511 12.4047 4.78548 12.2714C4.67142 12.0422 4.664 11.7913 4.67095 11.5483C4.6872 11.2635 4.73831 10.9801 4.81704 10.702C4.83187 10.6995 4.84685 10.6971 4.86168 10.6949C4.79795 11.0139 4.74605 11.3375 4.77618 11.6609C4.79085 11.8011 4.82241 11.9426 4.89813 12.0709C4.9625 12.1805 5.07546 12.279 5.22501 12.3149C5.35216 12.3458 5.50283 12.3433 5.61105 12.2757C5.72874 12.2011 5.78443 12.0847 5.82749 11.9741C5.92877 11.6939 5.96679 11.4019 6.0717 11.1224C6.17346 10.8484 6.31181 10.5827 6.48298 10.3313C6.58222 10.201 6.68949 10.0735 6.81412 9.95744C6.85103 9.92698 6.88811 9.88367 6.9468 9.88317C6.97898 9.89952 6.96747 9.93534 6.96825 9.96094C6.95184 10.087 6.95027 10.216 6.90262 10.3379C6.81553 10.5882 6.75685 10.8439 6.69296 11.0983C6.64863 11.2964 6.6368 11.508 6.73255 11.698C6.80307 11.8429 6.94979 11.9605 7.12679 12.0259C7.22302 12.0618 7.32699 12.0838 7.43222 12.0958C7.37416 11.389 7.30822 10.6827 7.24811 9.97592C7.23438 9.86596 7.24354 9.75249 7.18942 9.64839Z" fill="white"/>
<path d="M19.9726 9.31927C20.0173 9.26051 20.06 9.19562 20.1363 9.15861C20.0253 9.3344 19.9122 9.51319 19.8623 9.70723C19.8428 9.79113 19.8362 9.89327 19.9233 9.95616C19.9738 9.97566 20.0321 9.98729 20.0873 9.97191C20.1881 9.95403 20.2352 9.87102 20.2745 9.80376C20.2854 9.83076 20.2927 9.85876 20.281 9.88652C20.2451 10.0033 20.1974 10.1256 20.0895 10.214C19.968 10.317 19.7229 10.2577 19.6766 10.1257C19.636 10.0059 19.6731 9.88039 19.7177 9.76462C19.7825 9.60958 19.8722 9.46168 19.9726 9.31927Z" fill="white"/>
<path d="M10.98 9.68605C11.0756 9.51529 11.1711 9.34441 11.2687 9.1744C11.4575 9.51816 11.6112 9.87391 11.7264 10.2375C11.7399 10.311 11.7125 10.3849 11.7158 10.4588C11.6499 10.3662 11.5741 10.2782 11.505 10.1871C11.5229 10.3538 11.5552 10.5197 11.5748 10.6865C11.707 11.6715 11.8232 12.6578 11.9225 13.6453C12.0362 13.5802 12.123 13.4867 12.1717 13.3827C12.2353 13.2656 12.3039 13.1491 12.3968 13.0445C12.4317 13.007 12.4778 12.9588 12.5453 12.9704C12.5835 12.9721 12.6016 13.0046 12.6054 13.0309C12.6223 13.1237 12.5336 13.2037 12.5488 13.2957C12.5529 13.3712 12.6275 13.436 12.7161 13.4588C12.8695 13.5026 13.0361 13.483 13.1934 13.4654C13.2644 13.4531 13.353 13.4425 13.3876 13.3842C13.3507 13.2906 13.3096 13.198 13.2631 13.1071C13.3295 12.9731 13.4054 12.8421 13.4747 12.7089C13.4925 12.6774 13.5045 12.6427 13.5338 12.6163C13.5841 12.7686 13.5968 12.9266 13.6171 13.0826C13.6381 13.3349 13.587 13.5968 13.428 13.8187C13.3423 13.9323 13.2144 14.0355 13.0474 14.0683C12.902 14.0959 12.7422 14.0833 12.6103 14.0259C12.4576 13.9571 12.3528 13.8363 12.2984 13.7061C12.2157 13.8564 12.107 13.9984 11.9687 14.1206C11.9848 14.3156 12.0027 14.5105 12.0151 14.7056C12.0242 14.9231 11.9537 15.1363 11.8721 15.3423C11.8325 15.4308 11.7936 15.5198 11.7447 15.6054C11.3099 16.1676 10.7351 16.6657 10.0456 17.0375C9.59423 17.2828 9.09492 17.473 8.57068 17.598C8.29666 17.6609 8.01648 17.7122 7.73141 17.7286C7.43718 17.7319 7.13854 17.7018 6.86357 17.6164C6.60547 17.5368 6.38003 17.3918 6.23536 17.2043C5.72705 17.2458 5.21576 17.2687 4.70462 17.2697C5.16055 17.1404 5.61189 17.0007 6.05567 16.8469C5.9372 16.3897 6.03516 15.9182 6.1833 15.4728C6.27402 15.2029 6.39108 14.9389 6.52249 14.6797C6.60894 14.4897 6.69476 14.295 6.84164 14.1284C6.7555 14.2707 6.66574 14.4123 6.59475 14.5598L6.59869 14.5678C6.60058 14.5699 6.60452 14.5742 6.60658 14.5764C6.60184 14.5754 6.59223 14.5732 6.58749 14.5722C6.55736 14.6187 6.53164 14.667 6.51444 14.7174C6.39455 15.0211 6.31819 15.3357 6.29279 15.6533C6.26771 16.0026 6.29941 16.3693 6.50513 16.6854C7.05208 16.483 7.58452 16.2556 8.09504 16.0005C8.52794 15.781 8.94615 15.5416 9.3262 15.2671C9.50636 15.1353 9.68147 14.9978 9.82945 14.8425C9.87315 14.8018 9.85186 14.7438 9.83766 14.6975C9.80469 14.6197 9.7673 14.5432 9.72928 14.467C9.47056 14.5499 9.19494 14.6067 8.91429 14.6057C8.76127 14.6092 8.60382 14.5861 8.47193 14.5223C8.35882 14.4672 8.2749 14.3765 8.24082 14.2749C8.19365 14.1416 8.21416 14.0009 8.2424 13.8665C8.28721 13.6719 8.37776 13.4773 8.54987 13.33C8.67072 13.2272 8.83069 13.148 9.00801 13.1273C9.20853 13.128 9.39736 13.2054 9.54045 13.3129C9.72266 13.4496 9.84697 13.6268 9.94258 13.8087C10.121 13.7264 10.2925 13.6291 10.4253 13.5026C10.5556 13.3954 10.6897 13.2859 10.8562 13.2139C10.8977 13.1951 10.9693 13.1742 10.9969 13.2183C11.027 13.2837 10.9983 13.3556 10.9781 13.4206C10.9245 13.5155 10.9893 13.6233 11.0695 13.6959C11.181 13.7955 11.3643 13.8051 11.5197 13.7827C11.3569 12.459 11.1914 11.1354 11.0284 9.8116C11.0251 9.76719 11.0008 9.72663 10.98 9.68605ZM8.76285 13.7509C8.68302 13.7781 8.58316 13.8185 8.57133 13.8945C8.5901 13.9523 8.67592 13.9701 8.74045 13.9825C8.9479 14.0143 9.16356 14.0137 9.37086 13.9815C9.36707 13.9756 9.35918 13.964 9.35524 13.9581C9.24717 13.8613 9.10944 13.7779 8.94569 13.7534C8.88558 13.7463 8.82169 13.7327 8.76285 13.7509ZM10.1213 14.2917C10.1428 14.5614 10.095 14.8341 9.98754 15.0904C9.94605 15.1794 9.9115 15.2736 9.83325 15.3478C9.44847 15.7547 8.9528 16.0871 8.43045 16.379C7.96506 16.6355 7.47364 16.863 6.95997 17.0531C7.04769 17.087 7.13982 17.1142 7.23559 17.1303C7.49211 17.1753 7.75698 17.1511 8.01398 17.1218C8.81856 17.0264 9.57612 16.7486 10.2286 16.3688C10.6612 16.1171 11.0553 15.8239 11.3992 15.4974C11.5142 15.3821 11.6557 15.2694 11.6838 15.1176C11.6563 14.8601 11.6201 14.6032 11.5898 14.3458C11.4109 14.4026 11.1894 14.416 11.027 14.3211C10.83 14.2034 10.755 14.0026 10.724 13.8171C10.5541 13.9977 10.3542 14.1615 10.1213 14.2917Z" fill="white"/>
<path d="M18.7958 9.19611C18.8778 9.22981 18.9314 9.29135 18.9843 9.34902C19.1132 9.49831 19.219 9.65921 19.3173 9.8221C19.3341 9.84607 19.3399 9.87628 19.3699 9.89313C19.3603 9.8945 19.3508 9.89562 19.3418 9.89662C19.3407 9.90961 19.3388 9.93569 19.3378 9.94868C19.2785 9.89762 19.2091 9.84832 19.1209 9.83334C19.1053 9.86068 19.1055 9.89014 19.1187 9.91809C19.2332 10.1961 19.3628 10.4702 19.4737 10.7492C19.5444 10.931 19.6064 11.1179 19.6087 11.3094C19.6136 11.4871 19.5753 11.6646 19.509 11.8341C19.4425 11.9934 19.3404 12.1513 19.1702 12.2564C19.0301 12.3464 18.8431 12.3837 18.6649 12.3705C18.4473 12.3576 18.2413 12.2746 18.0903 12.1513C18.0097 12.0905 17.9442 12.0187 17.8828 11.9456L17.9063 11.9412C17.8999 11.9418 17.8871 11.9431 17.8806 11.9437C17.7443 11.762 17.6432 11.5636 17.5848 11.3573C17.59 11.3306 17.5257 11.3328 17.5321 11.3594C17.449 11.6604 17.3163 11.9572 17.0967 12.2136C16.9685 12.3609 16.8025 12.4923 16.5966 12.5701C16.3723 12.6538 16.108 12.6593 15.8719 12.6056C15.6346 12.5515 15.4465 12.4032 15.3446 12.2284C15.197 11.978 15.1744 11.6946 15.1907 11.4223C15.2224 11.2024 15.2918 10.9873 15.3596 10.773C15.3825 10.7071 15.4028 10.6362 15.3733 10.5693C15.3639 10.5654 15.3451 10.5577 15.3358 10.5538C15.3041 10.5702 15.2714 10.5863 15.2467 10.6092C15.0728 10.761 14.9741 10.955 14.8952 11.1473C14.8355 11.3022 14.789 11.4604 14.7578 11.6205C14.7163 11.8737 14.6527 12.1298 14.5055 12.3592C14.4257 12.4812 14.3058 12.6079 14.1251 12.6359C13.9578 12.6536 13.7789 12.612 13.6563 12.5186C13.5061 12.4075 13.4403 12.246 13.4007 12.0907C13.3376 11.812 13.3572 11.5263 13.3968 11.2464C13.4233 11.0739 13.4611 10.9027 13.5083 10.733C13.5238 10.7319 13.5394 10.731 13.5553 10.7303C13.4928 11.0163 13.4498 11.3066 13.4607 11.5973C13.4704 11.763 13.495 11.9317 13.5801 12.085C13.6378 12.19 13.7358 12.2877 13.8719 12.3329C14.0005 12.3744 14.1592 12.3818 14.2796 12.3201C14.404 12.2554 14.4624 12.1399 14.5086 12.033C14.5997 11.7962 14.6399 11.5499 14.7114 11.3094C14.7863 11.0652 14.894 10.8277 15.0263 10.5992C15.102 10.4661 15.1854 10.3351 15.2926 10.2158C15.3877 10.1096 15.4751 9.99297 15.6101 9.91496C15.6202 9.91533 15.6401 9.91621 15.6502 9.91658C15.6749 9.99659 15.6458 10.0795 15.6413 10.1605C15.633 10.2943 15.5715 10.42 15.5361 10.5497C15.4923 10.698 15.4547 10.8475 15.4172 10.9969C15.3591 11.2109 15.3178 11.4365 15.3908 11.6517C15.446 11.8205 15.5932 11.9694 15.792 12.0463C15.9212 12.1001 16.0662 12.1274 16.2116 12.1316C16.4161 12.1479 16.6299 12.1284 16.8127 12.0506C17.0331 11.9597 17.1891 11.7949 17.2903 11.6189C17.3892 11.443 17.4457 11.2525 17.4621 11.0607C17.4643 10.6796 17.4308 10.2912 17.2661 9.9298C17.2451 9.87988 17.2177 9.82807 17.2297 9.77452C17.2557 9.6276 17.3177 9.48618 17.3904 9.35C17.395 9.33439 17.4187 9.33327 17.4329 9.32528C17.5106 9.50914 17.5862 9.69426 17.6334 9.88487C17.6929 10.1326 17.7271 10.3837 17.7623 10.6341C17.7902 10.8128 17.7984 10.9943 17.855 11.1696C17.9021 11.315 17.9753 11.4573 18.0903 11.5777C18.23 11.7314 18.4399 11.8455 18.6732 11.889C18.8729 11.9257 19.0862 11.8786 19.2542 11.7903C19.3426 11.7426 19.4342 11.6622 19.4049 11.5712C19.1252 10.9891 18.8952 10.3929 18.6666 9.79737C18.6514 9.74819 18.6225 9.70113 18.6178 9.65057C18.6475 9.49306 18.7172 9.34203 18.7958 9.19611Z" fill="white"/>
<path d="M15.8936 9.3007C16.1018 9.41335 16.2727 9.57589 16.3523 9.76692C16.3918 9.86719 16.4063 9.97408 16.391 10.0786C16.3796 10.1547 16.3643 10.2338 16.3104 10.2993C16.3028 10.2793 16.3079 10.2588 16.3126 10.2389C16.3485 10.0877 16.318 9.9257 16.2189 9.79267C16.1372 9.68177 16.0164 9.58876 15.8741 9.52736C15.8768 9.4516 15.8862 9.37621 15.8936 9.3007Z" fill="white"/>
<path d="M5.01569 9.50421C5.05488 9.44945 5.09817 9.39306 5.16612 9.35793C5.05772 9.54297 4.93162 9.72675 4.89133 9.93092C4.87868 9.99769 4.87821 10.0742 4.93225 10.1303C4.98282 10.1807 5.07478 10.1816 5.14637 10.164C5.22648 10.1386 5.26377 10.0706 5.30122 10.0139C5.31798 10.0143 5.32145 10.0299 5.3295 10.0393C5.28731 10.1705 5.24654 10.3127 5.12155 10.4121C5.00541 10.5093 4.77629 10.4593 4.71924 10.3386C4.67784 10.2519 4.69158 10.1558 4.71592 10.0673C4.77566 9.86804 4.8888 9.68162 5.01569 9.50421Z" fill="white"/>
<path d="M23.2845 9.45672C23.3148 9.41484 23.3617 9.3632 23.4313 9.37046C23.5051 9.38359 23.5773 9.41496 23.6226 9.46398C23.6457 9.49461 23.6648 9.54137 23.6239 9.56838C23.6024 9.585 23.5871 9.61314 23.5605 9.62151C23.5234 9.58313 23.4946 9.51461 23.4196 9.51661C23.3256 9.54399 23.2736 9.61938 23.2454 9.69102C23.1871 9.8388 23.1753 9.99458 23.157 10.1476C23.1383 10.1629 23.1132 10.1714 23.0907 10.1822C23.0907 10.0271 23.0452 9.86093 22.9048 9.74629C22.8371 9.73966 22.7567 9.73328 22.7188 9.6814C22.6726 9.61526 22.6395 9.53362 22.6714 9.45911C22.743 9.44798 22.801 9.49048 22.8496 9.52575C22.9783 9.61915 23.0614 9.74279 23.1364 9.8657C23.1682 9.72615 23.2001 9.58337 23.2845 9.45672Z" fill="white"/>
<path d="M13.5909 9.53654C13.6334 9.45464 13.7448 9.38588 13.861 9.40163C13.919 9.41151 13.9596 9.45189 13.9803 9.49378C14.0209 9.58004 14.0269 9.67406 14.0127 9.76483C14.0839 9.83235 14.1614 9.90073 14.1912 9.98826C14.2465 10.1034 14.1971 10.2263 14.15 10.3375C14.0898 10.4845 13.9754 10.618 13.954 10.7743C13.9466 10.8129 13.9654 10.8551 14.0154 10.8684C14.0956 10.8497 14.1081 10.7742 14.1245 10.7192C14.1497 10.7144 14.189 10.7123 14.1977 10.7374C14.2114 10.8069 14.1729 10.8738 14.1418 10.9372C14.1136 10.9853 14.0746 11.0422 14.0024 11.053C13.9447 11.0614 13.9006 11.0213 13.8776 10.9847C13.8118 10.8792 13.8325 10.754 13.8875 10.6486C13.9732 10.4807 14.0863 10.3117 14.0759 10.1254C14.0762 10.0463 14.0342 9.97075 13.967 9.91311C13.8667 10.1275 13.7044 10.3208 13.5174 10.4939C13.4207 10.5889 13.2818 10.6469 13.1493 10.7048C13.0306 10.7534 12.9102 10.8013 12.7838 10.8364C13.0271 10.6979 13.2605 10.5465 13.4625 10.3706C13.629 10.2227 13.7823 10.0559 13.8441 9.86086L13.84 9.84986C13.7499 9.80384 13.6417 9.76321 13.5947 9.68194C13.5748 9.63568 13.5774 9.58367 13.5909 9.53654ZM13.6812 9.56004C13.6579 9.57192 13.6739 9.59467 13.6929 9.60243C13.7496 9.62856 13.8079 9.65281 13.8668 9.67582C13.8654 9.62881 13.8762 9.57042 13.8242 9.53691C13.7791 9.50715 13.7175 9.53291 13.6812 9.56004Z" fill="white"/>
<path d="M12.0685 9.65986C12.102 9.66699 12.1261 9.68861 12.1538 9.70399C12.3213 9.81314 12.4608 9.95505 12.5273 10.12C12.5896 10.2692 12.5858 10.4331 12.5303 10.5833C12.5228 10.6093 12.5019 10.6303 12.4836 10.6521C12.4821 10.6493 12.4793 10.6437 12.4777 10.6409C12.5182 10.5022 12.5122 10.3528 12.4415 10.2207C12.3652 10.0761 12.2222 9.95629 12.0497 9.8809C12.0541 9.80715 12.0614 9.73338 12.0685 9.65986Z" fill="white"/>
<path d="M9.55596 9.80195L9.56844 9.81182C9.54096 9.83944 9.55502 9.87592 9.55943 9.90767C9.57444 9.97602 9.59591 10.0437 9.6256 10.1091C9.63539 10.1383 9.67377 10.1523 9.70646 10.1621C9.73504 10.1668 9.78132 10.178 9.79316 10.1477C9.77358 10.0769 9.72652 10.0136 9.69745 9.94565C9.71119 9.90641 9.71767 9.8643 9.7412 9.82794C9.75699 9.82819 9.7731 9.8287 9.7892 9.82956C9.805 9.90579 9.85507 9.97289 9.89107 10.0432C9.88902 10.1156 9.88617 10.1907 9.85174 10.2587C9.83026 10.3047 9.76188 10.3169 9.70692 10.3163C9.62653 10.3073 9.57378 10.2536 9.52625 10.2068C9.49561 10.275 9.41728 10.3284 9.32599 10.3378C9.24923 10.3409 9.18417 10.2919 9.16395 10.2361C9.13726 10.1622 9.14026 10.0829 9.1619 10.0085C9.17881 9.95652 9.21181 9.90029 9.27972 9.8803C9.22618 9.9519 9.21292 10.04 9.24293 10.1198C9.25462 10.1528 9.27625 10.1942 9.32552 10.1989C9.38016 10.1997 9.42076 10.1667 9.45976 10.1411C9.46987 10.0593 9.4577 9.97688 9.4705 9.89528C9.49026 9.86017 9.52974 9.83418 9.55596 9.80195Z" fill="white"/>
<path d="M23.2114 10.3043C23.5153 10.2003 23.8191 10.0952 24.13 10.0052C24.1205 10.0611 24.0949 10.1249 24.0261 10.1515C23.5848 10.3005 23.1417 10.4471 22.7097 10.6126C22.6239 10.6501 22.5357 10.6886 22.4689 10.7464C22.5166 10.788 22.588 10.8036 22.6525 10.8224C22.6517 10.8628 22.6519 10.9031 22.6519 10.9436C22.5605 10.9261 22.469 10.8998 22.3982 10.8494C22.4024 10.792 22.4011 10.7342 22.411 10.6772C22.4213 10.6255 22.4882 10.6011 22.5365 10.5729C22.7506 10.4674 22.9824 10.387 23.2114 10.3043Z" fill="white"/>
<path d="M16.2334 10.4671C16.2809 10.4204 16.3234 10.3668 16.3866 10.3328C16.3449 10.3829 16.3625 10.4448 16.3724 10.5001C16.3958 10.6032 16.4306 10.7047 16.4717 10.8044C16.4846 10.846 16.5388 10.8638 16.5835 10.8798C16.624 10.8918 16.6727 10.9029 16.7137 10.8869C16.7397 10.8689 16.7275 10.8382 16.7183 10.8159C16.6788 10.7286 16.6384 10.6411 16.5827 10.5594C16.5956 10.5207 16.6042 10.4808 16.6256 10.4443C16.6298 10.4437 16.6385 10.4425 16.643 10.4418C16.6377 10.4338 16.6328 10.4258 16.6281 10.418C16.6343 10.4017 16.6403 10.3853 16.6466 10.3691C16.6744 10.3708 16.7022 10.3723 16.7305 10.3737C16.7433 10.4908 16.8247 10.5931 16.8833 10.6983C16.8812 10.7879 16.873 10.8783 16.8485 10.9661C16.8346 11.0178 16.8044 11.0725 16.7427 11.0985C16.6717 11.1207 16.5872 11.1311 16.5178 11.1002C16.4374 11.0637 16.3731 11.0081 16.3227 10.9473C16.2822 11.0404 16.185 11.1142 16.067 11.1446C15.9858 11.1687 15.8892 11.143 15.8337 11.0921C15.7631 11.0341 15.7442 10.9501 15.7374 10.8727C15.7318 10.7731 15.7419 10.6705 15.7911 10.5779C15.8192 10.5241 15.8695 10.4767 15.936 10.4506C15.8707 10.5531 15.8372 10.6724 15.8737 10.7856C15.8899 10.845 15.9167 10.9208 16.0003 10.9394C16.0905 10.9486 16.1623 10.8943 16.2204 10.8473C16.2313 10.7208 16.2245 10.5935 16.2334 10.4671Z" fill="white"/>
<path d="M9.4661 10.6268C9.6761 10.7345 9.84329 10.8983 9.92323 11.0867C9.98818 11.239 9.9836 11.4065 9.92576 11.5596C9.91802 11.5845 9.89431 11.6032 9.87314 11.6214C9.91581 11.4769 9.91122 11.3202 9.83474 11.1831C9.75684 11.0414 9.61399 10.9246 9.44476 10.8491C9.45393 10.7751 9.45851 10.7008 9.4661 10.6268Z" fill="white"/>
<path d="M23.3851 11.4965C23.4292 11.4538 23.4722 11.4104 23.5205 11.3708C23.4746 11.4558 23.5096 11.5482 23.5315 11.6344C23.5563 11.7132 23.5801 11.7929 23.6177 11.8687C23.6647 11.9173 23.747 11.942 23.8228 11.9402C23.8581 11.94 23.8748 11.9074 23.8626 11.884C23.8255 11.789 23.7773 11.6967 23.7225 11.6074C23.7331 11.5417 23.7639 11.4786 23.7855 11.4146C23.8118 11.4164 23.8385 11.4182 23.8653 11.4203C23.8829 11.5367 23.9598 11.6399 24.0202 11.7444C24.0177 11.8285 24.0102 11.9132 23.9897 11.9959C23.9742 12.0536 23.9472 12.1203 23.8735 12.1463C23.8108 12.1656 23.7373 12.1763 23.674 12.1531C23.5809 12.1205 23.5148 12.0562 23.4576 11.9919C23.4215 12.0828 23.3295 12.1548 23.2167 12.1867C23.1239 12.2205 23.0111 12.1851 22.9523 12.1233C22.8848 12.0504 22.873 11.9565 22.8719 11.8689C22.8757 11.7848 22.884 11.6981 22.9299 11.6209C22.9596 11.569 23.0055 11.518 23.0762 11.4986C22.982 11.6217 22.9716 11.7796 23.0411 11.9119C23.0612 11.9494 23.1024 11.9857 23.1574 11.9869C23.241 11.9836 23.3059 11.9359 23.3612 11.8908C23.36 11.7834 23.366 11.6762 23.3661 11.5688C23.3701 11.5446 23.3608 11.5155 23.3851 11.4965Z" fill="white"/>
<path d="M29.5595 11.3984C29.8162 11.5351 30.0278 11.7301 30.1423 11.9586C30.2551 12.18 30.2542 12.4313 30.1633 12.6575C30.151 12.6836 30.1246 12.7032 30.1025 12.7242C30.142 12.5707 30.1556 12.4095 30.1006 12.2572C30.0229 12.0159 29.8005 11.8155 29.5302 11.6943C29.5436 11.5959 29.5466 11.4968 29.5595 11.3984Z" fill="white"/>
<path d="M12.6298 11.9522C12.8058 11.8663 12.9784 11.7755 13.1566 11.6925C13.1391 11.7811 13.1027 11.8838 12.9939 11.9279C12.6045 12.1164 12.2194 12.3106 11.8286 12.4971C11.8723 12.4265 11.9152 12.3551 11.9633 12.2864C12.1836 12.1728 12.4079 12.0638 12.6298 11.9522Z" fill="white"/>
<path d="M20.1189 12.241C20.1722 12.2166 20.2502 12.2183 20.2862 12.2628C20.3358 12.3221 20.349 12.3995 20.3222 12.4675C20.2715 12.6023 20.1595 12.7169 20.0374 12.8166C19.889 12.9314 19.7113 13.0371 19.5013 13.0629C19.5365 13.0284 19.588 13.0093 19.6333 12.9846C19.7634 12.9152 19.8887 12.8388 19.998 12.7494C20.0553 12.6969 20.1174 12.6402 20.1276 12.5683C20.1316 12.5081 20.0626 12.4566 19.9921 12.4466C19.8895 12.461 19.8255 12.5312 19.75 12.5806C19.732 12.537 19.7802 12.5064 19.8086 12.4744C19.8991 12.3874 19.9902 12.2941 20.1189 12.241Z" fill="white"/>
<path d="M23.0189 13.3031C23.5946 13.0211 24.1671 12.7352 24.7435 12.4542C24.7272 12.5419 24.6955 12.6379 24.6045 12.6956C24.0463 12.9711 23.4851 13.2428 22.9271 13.5187C22.951 13.4452 22.9886 13.375 23.0189 13.3031Z" fill="white"/>
<path d="M15.3211 12.6397C15.4049 12.695 15.4558 12.7745 15.5125 12.847C15.6575 13.0489 15.781 13.2598 15.9006 13.4717C16.1629 13.9264 16.3355 14.4118 16.4305 14.9055C16.4573 15.0585 16.4848 15.2124 16.4792 15.3675C16.4952 15.6752 16.5414 15.9897 16.7037 16.2729C16.735 16.3292 16.7782 16.3807 16.8186 16.4331C16.8167 16.4402 16.813 16.4543 16.8112 16.4614C16.8195 16.4557 16.828 16.4499 16.8364 16.4442C16.9419 16.5567 17.0593 16.6625 17.1854 16.7609C17.2174 16.7881 17.2822 16.8114 17.3138 16.7695C17.3198 16.7704 17.3319 16.7722 17.3379 16.7732C17.3338 16.7702 17.3256 16.7644 17.3215 16.7614C17.3479 16.698 17.3207 16.6302 17.346 16.5668C17.3819 16.4627 17.4643 16.3741 17.5518 16.2933C17.6498 16.2084 17.7607 16.1305 17.8916 16.0792C18.1538 15.974 18.4257 15.8845 18.7002 15.8016C18.9068 15.7409 19.117 15.6871 19.3318 15.6481C18.4096 15.6532 17.4873 15.6592 16.565 15.6675C16.6111 15.4903 16.658 15.3132 16.7055 15.1362C16.8033 15.0346 16.9263 14.9511 17.0478 14.8681C17.5766 14.5228 18.1871 14.2673 18.8054 14.0385C18.733 13.9487 18.6323 13.8651 18.6164 13.7549C18.579 13.6001 18.6603 13.4471 18.7625 13.3182C18.8231 13.2451 18.8797 13.1652 18.9729 13.1149C19.0665 13.0636 19.193 13.0603 19.2954 13.0967C19.3607 13.1201 19.4274 13.1412 19.4904 13.169C19.4917 13.1744 19.494 13.1855 19.4953 13.191C19.4988 13.1878 19.5055 13.1812 19.509 13.1779C19.7821 13.2986 20.0268 13.4557 20.2533 13.6254C20.2795 13.6464 20.3131 13.6645 20.3295 13.6918C20.268 13.8495 20.203 14.0065 20.1434 14.1648C19.8708 14.213 19.5967 14.259 19.3311 14.3283C19.358 14.4615 19.4062 14.6068 19.3339 14.7359C19.3087 14.7331 19.2744 14.7296 19.2702 14.7052C19.2599 14.5932 19.1918 14.4913 19.1217 14.396C18.7827 14.5016 18.4444 14.6108 18.1248 14.7497C17.8672 14.8629 17.606 14.9858 17.4151 15.1669C18.833 15.1673 20.2511 15.1673 21.6692 15.1669C21.5784 15.3249 21.4812 15.4808 21.3886 15.6382C20.4602 15.8172 19.5335 16.0086 18.6328 16.263C18.2548 16.3725 17.8772 16.4931 17.5419 16.6719C17.5072 16.6928 17.4872 16.7315 17.5124 16.763C17.5645 16.8263 17.6595 16.8524 17.7391 16.8884C17.9123 16.9643 18.1043 17.0056 18.293 17.05C18.4282 17.0815 18.5634 17.113 18.6985 17.145C18.6873 17.3343 18.6854 17.5242 18.6708 17.7133C18.5603 17.7133 18.4475 17.6978 18.3362 17.6901C18.1184 17.6696 17.8972 17.6559 17.6871 17.6029C17.4009 17.5313 17.1431 17.3952 16.9412 17.2202C16.7195 17.0315 16.5592 16.8024 16.4444 16.5624C16.2876 16.2298 16.2087 15.8764 16.1784 15.523C16.1645 15.5215 16.1509 15.5203 16.1375 15.5191C16.0983 15.6749 16.0538 15.8307 15.988 15.981C15.9755 16.0167 15.9424 16.0439 15.9132 16.0716C15.7021 16.2656 15.477 16.4499 15.2416 16.6253C15.0007 16.8029 14.7496 16.973 14.4782 17.121C14.1928 17.2759 13.8841 17.4152 13.5427 17.4737C13.3592 17.5038 13.1507 17.5096 12.9899 17.4217C12.8104 17.3246 12.7228 17.1558 12.6755 16.9941C12.5119 17.0923 12.347 17.1891 12.1785 17.2821C12.0265 17.3629 11.875 17.4483 11.7008 17.497C11.2654 17.6249 10.8123 17.7088 10.3616 17.7953C10.0384 17.8532 9.71496 17.9113 9.3895 17.9608C9.69099 17.8254 9.99719 17.6961 10.2974 17.5588C11.1119 17.19 11.9143 16.8026 12.6802 16.3732C12.7847 15.9774 12.9533 15.5792 13.28 15.2615C13.2841 15.2606 13.2925 15.2588 13.2966 15.2579C13.2706 15.3017 13.2581 15.3497 13.2313 15.3933C13.0344 15.6662 12.8945 15.9677 12.8449 16.2802C13.1936 16.0796 13.5339 15.8693 13.8541 15.6406C14.0519 15.5003 14.2378 15.3495 14.4075 15.1877C14.4542 15.1419 14.5177 15.1026 14.5353 15.0424C14.5599 14.974 14.523 14.906 14.484 14.8462C14.488 14.8383 14.4919 14.8306 14.496 14.823C14.4795 14.8194 14.4687 14.8116 14.4637 14.7999C14.2581 14.3811 14.0502 13.963 13.845 13.5441C13.9089 13.3517 13.968 13.1584 14.0325 12.9661C14.1185 13.0109 14.1745 13.0813 14.2357 13.145C14.3607 13.2902 14.4782 13.4395 14.5838 13.5941C14.6428 13.6791 14.654 13.7779 14.6756 13.8717C14.5909 13.8114 14.5319 13.7297 14.4378 13.6781C14.4419 13.6919 14.4476 13.7052 14.455 13.7183C14.6038 13.9506 14.7055 14.2009 14.7715 14.4558C14.8122 14.6072 14.8299 14.7625 14.8185 14.9172C14.81 15.085 14.7811 15.2569 14.6838 15.4083C14.5973 15.5427 14.4811 15.6632 14.3596 15.7788C13.9478 16.1611 13.4652 16.4906 12.9751 16.808C12.9757 16.8264 13.0022 16.8314 13.018 16.8415C13.1934 16.9282 13.4129 16.9194 13.6088 16.8925C13.7565 16.8654 13.9086 16.8448 14.0438 16.7876C14.3986 16.6407 14.7079 16.4358 15.0066 16.2272C15.3981 15.9452 15.767 15.6437 16.1188 15.3309C16.0012 15.0009 15.8791 14.672 15.7548 14.3436C15.6873 14.1721 15.6245 13.9991 15.5437 13.8312C15.4098 13.6097 15.2811 13.3857 15.1643 13.1584C15.2115 12.9847 15.2708 12.813 15.3211 12.6397ZM18.8898 13.5328C18.8469 13.5463 18.8109 13.5838 18.8289 13.6213C18.8355 13.6498 18.8748 13.6596 18.8955 13.6807C18.9815 13.7597 19.0629 13.842 19.1376 13.928C19.3243 13.8743 19.5137 13.8278 19.7021 13.7785C19.5619 13.6725 19.4062 13.5716 19.2191 13.5237C19.1126 13.4951 18.9934 13.4986 18.8898 13.5328Z" fill="white"/>
<path d="M5.76368 12.7349C5.8921 12.713 6.009 12.7765 6.10034 12.8403C6.2226 12.9348 6.32451 13.0474 6.38904 13.1731C6.4086 13.211 6.41727 13.2524 6.41001 13.2933C6.4007 13.3474 6.39534 13.4069 6.3518 13.4519C6.30069 13.4892 6.22007 13.4811 6.1658 13.4524C6.11184 13.4242 6.05552 13.3989 5.99684 13.3774C5.90881 13.5618 5.72896 13.7076 5.53287 13.8239C5.3789 13.916 5.21104 13.9934 5.03751 14.0599C4.91319 14.0973 4.78604 14.1293 4.65699 14.1548C4.60556 14.1659 4.55208 14.1648 4.49938 14.1637C4.53031 14.1579 4.56328 14.1561 4.59151 14.1435C4.8739 14.0173 5.14935 13.8803 5.40603 13.7233C5.57941 13.6128 5.75152 13.4959 5.87457 13.3475C5.81478 13.3367 5.75467 13.3266 5.69362 13.322C5.6455 13.211 5.64408 13.076 5.74552 12.9828C5.69661 12.949 5.68951 12.8933 5.68068 12.8457C5.67138 12.7995 5.7012 12.7447 5.76368 12.7349ZM6.00347 13.0112C6.02619 13.0939 6.0284 13.1789 6.03266 13.2632C6.11816 13.2708 6.2043 13.3029 6.29043 13.2861C6.33034 13.2684 6.30227 13.2279 6.28144 13.2071C6.20273 13.1306 6.10302 13.0696 6.00347 13.0112ZM5.7935 13.0467C5.76541 13.0797 5.73276 13.1176 5.73718 13.1592C5.78687 13.2086 5.87079 13.2292 5.94668 13.2401C5.95409 13.2164 5.96293 13.1932 5.96876 13.1693C5.98958 13.1209 5.94226 13.0774 5.9044 13.0437C5.87616 13.0167 5.81794 13.0158 5.7935 13.0467Z" fill="white"/>
<path d="M17.0514 12.9967C17.0955 12.9462 17.1453 12.8978 17.2011 12.8548C17.16 12.9286 17.1845 13.0091 17.2036 13.0845C17.2252 13.167 17.2545 13.248 17.2872 13.3283C17.3101 13.3888 17.3978 13.4101 17.468 13.4219C17.51 13.4326 17.5615 13.4078 17.5452 13.3698C17.5065 13.2718 17.4571 13.1766 17.4005 13.0844C17.4206 13.0225 17.4433 12.9612 17.4626 12.8992C17.4891 12.8992 17.516 12.8995 17.543 12.8997C17.5662 13.0143 17.6353 13.1184 17.6988 13.2214C17.699 13.3328 17.6906 13.4489 17.6407 13.5546C17.6073 13.6295 17.4958 13.6527 17.4057 13.6467C17.2861 13.6285 17.2068 13.5468 17.1366 13.4751C17.1017 13.5692 17.0029 13.6422 16.886 13.6717C16.7871 13.7005 16.673 13.6587 16.6199 13.5897C16.5617 13.5132 16.5507 13.4208 16.5534 13.3333C16.5586 13.2081 16.5892 13.0622 16.7311 12.9871C16.7411 12.9871 16.761 12.9872 16.771 12.9872C16.7646 12.9895 16.7517 12.9939 16.7454 12.9961C16.6591 13.121 16.6537 13.2779 16.7304 13.4066C16.7526 13.4472 16.809 13.4765 16.8661 13.467C16.9372 13.4533 16.9934 13.4133 17.042 13.3721C17.0437 13.2469 17.0431 13.1216 17.0514 12.9967Z" fill="white"/>
<path d="M5.07208 14.4961C5.64505 14.2114 6.22039 13.9293 6.79446 13.6462C6.77802 13.7451 6.7352 13.8594 6.6148 13.909C6.08338 14.1696 5.55071 14.4288 5.02009 14.6904C5.00635 14.6961 4.99196 14.7009 4.97695 14.7045C5.01078 14.6356 5.03653 14.5642 5.07208 14.4961Z" fill="white"/>
<path d="M20.9876 13.9321C21.0355 13.8831 21.1166 13.8592 21.1931 13.8573C21.2461 13.8569 21.2719 13.9021 21.2841 13.9365C21.3071 14.0176 21.3113 14.1059 21.2613 14.1815C21.2872 14.1964 21.3133 14.2115 21.3399 14.2263C21.3329 14.2782 21.328 14.3304 21.3267 14.3827C21.274 14.3603 21.2333 14.3247 21.1882 14.2947C21.0475 14.4866 20.8419 14.653 20.5858 14.747C20.4504 14.801 20.2954 14.8246 20.1446 14.8098C20.4301 14.729 20.7075 14.6125 20.9146 14.4337C20.9859 14.3724 21.0472 14.3047 21.099 14.2321C21.0589 14.1983 21.0108 14.1693 20.9796 14.1296C20.9546 14.0662 20.9363 13.9905 20.9876 13.9321ZM21.066 13.9946C21.0867 14.041 21.1264 14.0792 21.1676 14.1152C21.185 14.0751 21.2077 14.0315 21.1823 13.9902C21.1433 13.9842 21.1041 13.9876 21.066 13.9946Z" fill="white"/>
<path d="M26.3232 14.046C26.4194 14.0198 26.5207 14.0542 26.5994 14.0982C26.7308 14.1751 26.8334 14.2795 26.9126 14.3917C26.9549 14.4568 27.0031 14.5281 26.9861 14.6037C26.976 14.6546 26.971 14.7093 26.9325 14.7527C26.8899 14.7944 26.8099 14.7902 26.7562 14.7653C26.695 14.7379 26.6367 14.7066 26.5726 14.6833C26.486 14.8696 26.3035 15.0162 26.1056 15.1326C25.9717 15.2137 25.8248 15.2804 25.6761 15.3427C25.5842 15.3819 25.4826 15.4028 25.3842 15.4283C25.2859 15.4504 25.1859 15.4795 25.0821 15.4714C25.1476 15.4684 25.1993 15.4348 25.2545 15.4108C25.5423 15.2784 25.8242 15.1359 26.0802 14.9671C26.2162 14.8739 26.3552 14.777 26.4469 14.6529C26.3877 14.6428 26.3284 14.634 26.2686 14.6277C26.2205 14.5169 26.22 14.3815 26.3238 14.2899C26.2721 14.2584 26.2661 14.2014 26.2574 14.154C26.25 14.1126 26.2675 14.0602 26.3232 14.046ZM26.5813 14.3202C26.6009 14.4022 26.6067 14.4859 26.6083 14.5693C26.6894 14.5785 26.77 14.6039 26.8526 14.5966C26.8948 14.5917 26.8932 14.5479 26.8698 14.5271C26.793 14.4433 26.6864 14.3803 26.5813 14.3202ZM26.3066 14.454C26.3481 14.5148 26.4422 14.5303 26.519 14.5498C26.5348 14.5106 26.5551 14.4695 26.5474 14.428C26.5196 14.385 26.4819 14.3288 26.4122 14.3291C26.3519 14.3536 26.3281 14.407 26.3066 14.454Z" fill="white"/>
<path d="M13.0987 14.4303C13.1309 14.3818 13.1942 14.3243 13.2717 14.3485C13.365 14.3708 13.4759 14.4293 13.461 14.517C13.4361 14.5469 13.404 14.5725 13.3757 14.6004C13.3455 14.5552 13.3117 14.4973 13.2409 14.4877C13.1488 14.5115 13.0937 14.5847 13.0646 14.6543C13.0034 14.8065 12.9899 14.9671 12.9728 15.1253C12.9505 15.1347 12.9282 15.1439 12.9055 15.1524C12.9061 15.0069 12.8661 14.8524 12.7427 14.7396C12.7147 14.7022 12.6526 14.721 12.6106 14.703C12.5322 14.6807 12.5038 14.6131 12.4848 14.5552C12.4753 14.516 12.4584 14.469 12.4915 14.4342C12.5608 14.4184 12.6152 14.4665 12.6646 14.4969C12.792 14.5927 12.88 14.716 12.9521 14.8415C12.9824 14.7013 13.0145 14.5576 13.0987 14.4303Z" fill="white"/>
<path d="M5.05758 15.2226C5.10989 15.1488 5.15903 15.0684 5.25053 15.0197C5.13945 15.1971 5.02393 15.3769 4.97542 15.5728C4.9593 15.6477 4.95124 15.7342 5.01239 15.7986C5.05995 15.8389 5.13628 15.8463 5.20138 15.8338C5.30015 15.8166 5.34613 15.7348 5.3869 15.6699C5.41819 15.7183 5.38579 15.7706 5.37141 15.8188C5.33049 15.921 5.28166 16.0316 5.16868 16.098C5.08192 16.1505 4.95756 16.1295 4.87413 16.0832C4.76415 16.0152 4.76162 15.8918 4.7809 15.7919C4.82435 15.5898 4.9367 15.4021 5.05758 15.2226Z" fill="white"/>
<path d="M21.4134 16.4539C21.419 16.4494 21.4262 16.4476 21.4352 16.4487C21.4024 16.4785 21.3844 16.516 21.3591 16.5497C21.2872 16.6572 21.2042 16.7713 21.2233 16.8977C21.2253 16.9571 21.2675 17.0338 21.3552 17.0333C21.398 17.0164 21.409 16.9732 21.4305 16.9421C21.4278 17.0347 21.4106 17.1471 21.3007 17.2001C21.2094 17.1885 21.1409 17.1244 21.1372 17.052C21.1186 16.8332 21.2343 16.6174 21.4134 16.4539Z" fill="white"/>
<path d="M15.8867 16.4865C15.9713 16.4538 16.0879 16.4585 16.1546 16.5155C16.2103 16.5678 16.2163 16.6397 16.2122 16.7051C16.1675 16.7522 16.116 16.7956 16.0785 16.847C16.0002 16.8585 15.9178 16.8484 15.8412 16.8666C15.8026 16.8844 15.7522 16.8951 15.7337 16.9309C15.7096 16.977 15.7208 17.0283 15.7311 17.076C15.7709 17.2428 15.8445 17.4067 15.8407 17.5785C15.8365 17.6388 15.8314 17.7013 15.7954 17.7558C15.787 17.6603 15.7445 17.57 15.7137 17.4781C15.6555 17.3107 15.6094 17.1389 15.6026 16.9649C15.595 16.8978 15.6437 16.8402 15.6928 16.7897C15.7654 16.7094 15.8954 16.6859 16.0109 16.6686C15.9809 16.6467 15.9469 16.6214 15.9025 16.6263C15.8404 16.6334 15.7984 16.6746 15.7642 16.7124C15.7581 16.6288 15.787 16.53 15.8867 16.4865Z" fill="white"/>
<path d="M19.6982 16.635C19.7832 16.5781 19.9013 16.5726 20.0076 16.5727C20.1144 16.5786 20.2274 16.5824 20.3216 16.6275C20.3662 16.6685 20.3238 16.717 20.2781 16.7428C20.0929 16.8485 19.8889 16.9403 19.7387 17.0792C19.6979 17.1151 19.7191 17.171 19.7706 17.192C19.8485 17.2229 19.9387 17.2244 20.0244 17.2226C20.2277 17.2139 20.423 17.153 20.5932 17.0662C20.6406 17.0423 20.6831 17.0126 20.7321 16.9904C20.6272 17.0911 20.5093 17.1835 20.3793 17.2638C20.2696 17.3289 20.146 17.3854 20.0089 17.4024C19.901 17.4097 19.7848 17.4055 19.6916 17.3573C19.5878 17.3086 19.5391 17.1997 19.5775 17.1098C19.6007 17.0593 19.6437 17.0166 19.6889 16.9772C19.8055 16.8794 19.948 16.8047 20.0902 16.7325C19.9939 16.7289 19.8962 16.7248 19.8004 16.734C19.7379 16.739 19.6958 16.7761 19.6514 16.8063C19.638 16.7476 19.6377 16.6781 19.6982 16.635Z" fill="white"/>
<path d="M24.9219 16.7365C25.0541 16.8074 25.1708 16.8976 25.258 17.0038C25.2654 17.0041 25.2799 17.0046 25.2874 17.005C25.2829 17.0076 25.2741 17.013 25.2697 17.0157C25.4309 17.2121 25.4724 17.4668 25.3724 17.6877C25.3637 17.7058 25.3454 17.7193 25.3297 17.7339C25.3607 17.6116 25.3699 17.4821 25.3213 17.3619C25.2548 17.1874 25.0897 17.0421 24.8887 16.9563L24.9032 16.9551C24.9065 16.8819 24.9165 16.8093 24.9219 16.7365Z" fill="white"/>
<path d="M26.8929 17.5776C27.5262 17.3351 28.1572 17.0891 28.7906 16.847C28.7572 16.9365 28.7133 17.0389 28.6009 17.0841C28.017 17.3069 27.4342 17.5316 26.8505 17.7542C26.812 17.7696 26.7738 17.7863 26.7319 17.7944C26.7704 17.7332 26.8066 17.6711 26.8437 17.6095C26.8516 17.5922 26.8739 17.5854 26.8929 17.5776Z" fill="white"/>
</g>
<defs>
<clipPath id="clip0_464_36082">
<rect width="36" height="36" rx="17.815" fill="white"/>
</clipPath>
</defs>
</svg>
