<svg width="15" height="16" viewBox="0 0 15 16" fill="none" xmlns="http://www.w3.org/2000/svg">
<g clip-path="url(#clip0_464_32700)">
<path d="M9.37768 14.1746C9.10896 14.741 8.93133 15.3557 8.86328 16.0004L14.55 14.8512C14.8187 14.2849 14.9962 13.67 15.0644 13.0254L9.37768 14.1746Z" fill="white"/>
<path d="M14.5444 11.4079C14.8131 10.8416 14.9908 10.2268 15.0588 9.58212L10.6291 10.4778V8.75601L14.5443 7.96504C14.813 7.39872 14.9906 6.78388 15.0587 6.13924L10.6289 7.03412V0.842159C9.95018 1.20447 9.34736 1.68674 8.85734 2.25561V7.39223L7.08574 7.75021V0C6.40697 0.362181 5.80416 0.844579 5.31414 1.41345V8.10806L1.35017 8.90883C1.08145 9.47515 0.903685 10.09 0.8355 10.7346L5.31414 9.82981V11.9981L0.514401 12.9677C0.24568 13.534 0.068051 14.1489 0 14.7935L5.02398 13.7785C5.43296 13.6977 5.78447 13.4678 6.013 13.1515L6.93437 11.8529C7.03001 11.7185 7.08574 11.5563 7.08574 11.3818V9.47184L8.85734 9.11386V12.5574L14.5444 11.4079Z" fill="white"/>
</g>
<defs>
<clipPath id="clip0_464_32700">
<rect width="14.3729" height="16" fill="white"/>
</clipPath>
</defs>
</svg>
