<svg width="32" height="32" viewBox="0 0 32 32" fill="none" xmlns="http://www.w3.org/2000/svg">
<g clip-path="url(#clip0_464_35899)">
<path d="M-8.00086 0H39.9989V31.9999H-8.00086V0Z" fill="#006C35"/>
<path d="M22.0954 22.0014C22.0167 22.0014 21.8038 22.2189 21.8038 22.2976C21.8038 22.3578 21.9103 22.4782 21.9982 22.5476V22.7283H6.9983C7.5307 23.2607 8.32236 23.2745 9.91495 23.2745H21.9982V23.4551C21.9056 23.5292 21.8038 23.6449 21.8038 23.7051C21.8038 23.7838 22.0167 24.0014 22.0954 24.0014C22.1602 24.0014 22.276 23.8857 22.3501 23.7885H23.0168C23.0377 23.8224 23.0733 23.8515 23.1191 23.8719C23.1648 23.8923 23.2186 23.9032 23.2737 23.9032C23.3288 23.9032 23.3826 23.8923 23.4283 23.8719C23.4741 23.8515 23.5097 23.8224 23.5306 23.7885H24.3223C24.4195 23.8996 24.5491 23.9042 24.6278 23.9042C24.8547 23.9042 24.9982 23.8069 24.9982 23.2745C24.9982 22.7745 24.776 22.7283 24.2297 22.7283H22.1927V22.5476C22.2807 22.4782 22.3871 22.3578 22.3871 22.2976C22.3871 22.2189 22.1741 22.0014 22.0954 22.0014ZM22.1927 23.2745H24.2297C24.1926 23.4134 24.1926 23.5199 24.2297 23.6218H23.5306C23.5097 23.5878 23.4741 23.5588 23.4283 23.5384C23.3826 23.5179 23.3288 23.507 23.2737 23.507C23.2186 23.507 23.1648 23.5179 23.1191 23.5384C23.0733 23.5588 23.0377 23.5878 23.0168 23.6218H22.3501C22.3131 23.5709 22.2436 23.4922 22.1927 23.4551V23.2745Z" fill="white"/>
<path d="M25.9768 8.73038C26.2636 8.49216 26.5416 8.2474 26.8172 8.00086C26.8294 8.22243 26.6854 8.42615 26.5245 8.59923C26.4384 8.69986 26.317 8.7752 26.2078 8.85886C26.1555 8.89637 26.1047 8.93498 26.0545 8.97403C26.0689 9.03328 26.0909 9.09164 26.0991 9.15178C26.0949 9.20759 26.0835 9.26307 26.0751 9.31866C26.0133 9.24187 25.9691 9.15622 25.8984 9.08432C25.9296 9.33563 25.9447 9.58805 25.9659 9.84003C26.0211 10.5799 26.0717 11.3198 26.1194 12.06C26.1166 12.0791 26.1378 12.0912 26.1514 12.1047C26.3554 12.2842 26.5586 12.4644 26.7496 12.6528C26.8997 12.8108 27.0417 12.9741 27.1622 13.1475C27.3199 13.3746 27.4449 13.6204 27.4818 13.8796C27.5018 14.0426 27.4918 14.2108 27.4248 14.3669C27.3574 13.9747 27.1449 13.603 26.8441 13.2886C26.8377 13.2878 26.8245 13.2862 26.818 13.2856C26.8214 13.2831 26.8284 13.2782 26.8318 13.2758C26.6186 13.046 26.3896 12.8257 26.1543 12.61C26.1707 12.8738 26.1871 13.1378 26.1999 13.4017C26.2124 13.7423 26.1965 14.0829 26.1783 14.4231C26.1784 14.4875 26.1417 14.5464 26.1228 14.608C26.0679 14.7463 26.0238 14.8878 25.9535 15.0219C25.9423 14.7077 25.9288 14.3931 25.9049 14.0792C25.8618 13.517 25.8165 12.955 25.7758 12.3928C25.7698 12.3486 25.7729 12.3034 25.7622 12.2599C25.6074 12.1167 25.4403 11.982 25.2786 11.8437C24.9938 11.6083 24.706 11.3751 24.4073 11.1507C24.464 11.738 24.5226 12.3252 24.5756 12.9127C24.5983 13.1794 24.6283 13.4461 24.6316 13.7136C24.6356 13.9463 24.6327 14.1791 24.6261 14.4116C24.6269 14.5584 24.6295 14.7101 24.5637 14.8497C24.4664 15.0226 24.2918 15.1669 24.0813 15.256C23.9169 15.325 23.7311 15.3617 23.5452 15.363C23.4197 15.3652 23.2949 15.3388 23.184 15.2934C22.9897 15.2067 22.8512 15.0589 22.762 14.8998C22.7009 14.7903 22.657 14.6746 22.6333 14.5562C22.6195 14.5044 22.605 14.4445 22.5465 14.4121C22.4999 14.3872 22.4442 14.4071 22.3992 14.4237C22.2897 14.4699 22.1843 14.5256 22.105 14.6023C21.847 14.8479 21.7243 15.1615 21.6475 15.47C21.6099 15.6032 21.5503 15.7355 21.4457 15.8455C21.3698 15.9238 21.2611 15.9916 21.1332 16.0008C21.033 15.9952 20.9359 15.9685 20.8463 15.9335C20.648 15.8507 20.5085 15.6998 20.4286 15.5369C20.4047 15.4945 20.3936 15.4484 20.3694 15.4063C20.3653 15.4058 20.3573 15.4049 20.3533 15.4043C20.3572 15.4023 20.365 15.3982 20.3688 15.3961C20.2868 15.1474 20.2747 14.8876 20.2927 14.632C20.3014 14.6072 20.269 14.5983 20.2512 14.5845C20.1805 14.5366 20.1516 14.4605 20.1526 14.3888C20.1506 14.1257 20.1989 13.8581 20.3388 13.6174C20.4523 13.4189 20.6222 13.2456 20.7877 13.073C20.8033 13.0543 20.8307 13.0395 20.8383 13.0177C20.7353 12.9246 20.6264 12.8354 20.5165 12.7474C20.4538 12.6901 20.3775 12.6435 20.3158 12.5856C20.0839 12.3866 19.8559 12.1849 19.628 11.9831C19.6497 12.2783 19.6663 12.5738 19.6849 12.8693C19.6991 13.1429 19.7231 13.4164 19.7182 13.6903C19.7191 13.9345 19.7053 14.1785 19.6926 14.4224C19.6919 14.4832 19.6609 14.5398 19.6413 14.5977C19.5861 14.7405 19.5361 14.885 19.4691 15.0248C19.4566 14.9091 19.4642 14.7928 19.4549 14.677C19.4296 14.0997 19.3725 13.5238 19.332 12.9472C19.2975 12.506 19.267 12.0645 19.2303 11.6236C19.0784 11.4745 18.9181 11.3301 18.768 11.1796C18.5921 11.004 18.4164 10.8273 18.2692 10.6357C18.0578 10.3348 17.8206 10.0426 17.5276 9.78697C17.5109 9.77455 17.5161 9.75602 17.5163 9.74015C17.5264 9.57472 17.5344 9.40928 17.5447 9.24386C17.7533 9.35126 17.9521 9.47031 18.1432 9.59646C18.2913 9.69754 18.4323 9.80594 18.5522 9.92854C18.614 9.98646 18.6711 10.0604 18.6503 10.1395C18.5799 10.1174 18.5071 10.0997 18.4405 10.0711C18.4137 10.0595 18.3846 10.052 18.3546 10.0485C18.3502 10.0948 18.39 10.1313 18.4199 10.1677C18.6371 10.4194 18.8637 10.6658 19.0962 10.9088C19.1261 10.94 19.1591 10.9697 19.1821 11.0048C19.1673 10.7199 19.1399 10.4353 19.1204 10.1505C19.0874 9.71064 19.0536 9.27093 19.0207 8.83111C19.0146 8.76543 19.0187 8.69764 18.9853 8.63584C18.9692 8.6112 18.993 8.58868 19.0062 8.56738C19.086 8.44533 19.1631 8.32206 19.2389 8.19824C19.2425 8.18958 19.26 8.16728 19.2654 8.1887C19.4088 8.48372 19.5204 8.7884 19.6029 9.09763C19.6283 9.17164 19.597 9.24708 19.5876 9.32109C19.534 9.23732 19.4733 9.15665 19.4139 9.07544C19.49 9.84779 19.5342 10.622 19.5913 11.3952C19.6298 11.4465 19.689 11.4871 19.7361 11.5339C20.1912 11.9491 20.6636 12.352 21.1358 12.7549C21.4866 12.4467 21.841 12.1409 22.1966 11.8361C22.212 11.8248 22.2226 11.8109 22.2171 11.7937C22.1101 10.8323 22.003 9.87075 21.8958 8.90934C21.8822 8.81215 21.8859 8.71207 21.8397 8.61975C21.9274 8.47074 22.0234 8.32473 22.1105 8.17538C22.1582 8.25383 22.191 8.3376 22.2286 8.41948C22.3169 8.62353 22.3934 8.8309 22.4538 9.04116C22.4664 9.08854 22.4872 9.13636 22.4789 9.1854C22.4726 9.22967 22.4649 9.27383 22.4588 9.31821C22.4002 9.23988 22.344 9.16044 22.285 9.08232C22.2764 9.08487 22.2683 9.08753 22.2604 9.0902C22.2688 9.09186 22.2775 9.09342 22.2865 9.09486C22.3755 9.91258 22.4426 10.7321 22.5299 11.5501C22.8986 11.2402 23.2643 10.928 23.6347 10.6195C23.6753 10.5829 23.7216 10.5501 23.7591 10.5113C23.5789 10.3197 23.4107 10.1212 23.243 9.92268C23.1847 9.85733 23.1394 9.78566 23.0837 9.71897C22.9665 9.57517 22.8467 9.42972 22.6857 9.31377C22.6717 9.12692 22.6641 8.93963 22.654 8.75246C23.0321 9.01386 23.4162 9.27017 23.7836 9.54111C23.8188 9.56608 23.8468 9.5967 23.8665 9.63087C23.8334 9.33851 23.8031 9.04603 23.7718 8.75356C23.768 8.72671 23.7691 8.69875 23.755 8.67367C23.7456 8.64793 23.7196 8.62041 23.7407 8.59412C23.8276 8.45266 23.9096 8.3093 23.9956 8.16739C24.1461 8.44921 24.2633 8.74191 24.3561 9.03882C24.3657 9.08054 24.3887 9.12149 24.3817 9.16453C24.3748 9.21202 24.3707 9.25973 24.3639 9.30722C24.3107 9.23731 24.2576 9.16742 24.205 9.0974C24.1959 9.0863 24.1873 9.07521 24.1796 9.06389C24.2275 9.39842 24.2592 9.73428 24.2967 10.0696C24.5736 9.83702 24.858 9.61012 25.1445 9.38477C25.2721 9.28924 25.4045 9.19759 25.5268 9.09762C25.5153 8.96781 25.5087 8.83777 25.4958 8.70807C25.4934 8.66691 25.4456 8.62541 25.4791 8.58602C25.5696 8.44999 25.6552 8.31185 25.7397 8.17327C25.8385 8.35303 25.9053 8.54298 25.9768 8.73038ZM24.3271 10.3601C24.3315 10.4125 24.3371 10.465 24.3431 10.5174C24.4331 10.6054 24.5246 10.6926 24.6196 10.7772C24.9821 11.101 25.3571 11.4158 25.7249 11.7357C25.668 10.9445 25.6041 10.1534 25.5475 9.36203C25.1326 9.68846 24.7257 10.0211 24.3271 10.3601ZM23.5442 9.64241C23.6605 9.78621 23.7815 9.9279 23.9105 10.0647C23.9001 9.93788 23.8846 9.81117 23.8705 9.68458C23.8635 9.69578 23.856 9.70699 23.8501 9.71842C23.7624 9.66783 23.6554 9.62811 23.5442 9.64241ZM22.799 11.6891C22.7239 11.7591 22.6402 11.8236 22.5695 11.8964C22.5862 12.1208 22.6223 12.3446 22.6446 12.5688C22.6556 12.9395 22.5777 13.3329 22.2897 13.6363C22.298 13.588 22.2941 13.5392 22.2948 13.4906C22.2943 13.3243 22.2946 13.158 22.2946 12.9915C22.2927 12.8321 22.3028 12.6727 22.297 12.5132C22.2889 12.4318 22.2784 12.3503 22.2704 12.2689C22.2667 12.2558 22.2715 12.2326 22.2481 12.2319C22.2666 12.2136 22.2625 12.1909 22.2582 12.1694C22.1576 12.2535 22.0618 12.3411 21.9616 12.4255C21.7643 12.5999 21.5545 12.765 21.3523 12.9357C21.5577 13.1108 21.6866 13.3413 21.7198 13.5784C21.7533 13.8306 21.674 14.0987 21.4648 14.2948C21.2802 14.4667 21.0155 14.5752 20.7405 14.6251C20.6115 14.6477 20.4736 14.6633 20.3456 14.6291C20.3616 14.735 20.3816 14.8405 20.4084 14.945C20.4544 15.1212 20.5143 15.299 20.633 15.4543C20.6966 15.5336 20.7837 15.6105 20.9034 15.6338C21.0314 15.6584 21.1617 15.6076 21.2517 15.5379C21.332 15.481 21.3691 15.3985 21.4029 15.3199C21.5046 15.0886 21.5389 14.84 21.6734 14.6176C21.7678 14.441 21.8877 14.2697 22.0607 14.1337C22.1505 14.0598 22.2537 13.9968 22.3618 13.9406C22.4363 13.9054 22.5264 13.876 22.6141 13.8966C22.6975 13.916 22.7538 13.9743 22.7923 14.033C22.8801 14.1651 22.903 14.3162 22.974 14.4536C23.0261 14.5671 23.0951 14.6824 23.2176 14.7589C23.3415 14.8363 23.5047 14.8599 23.6591 14.8548C23.9286 14.8456 24.1819 14.7498 24.3943 14.6228C24.3754 14.4044 24.3555 14.1862 24.332 13.968C24.2141 12.9027 24.1025 11.8369 23.9878 10.7714C23.9839 10.7421 23.9506 10.7222 23.9342 10.6974C23.549 11.023 23.1756 11.3572 22.799 11.6891ZM21.0428 13.2177C20.9622 13.2913 20.886 13.3682 20.8101 13.445C20.6658 13.599 20.5214 13.7548 20.4146 13.9274C20.3876 13.9713 20.3631 14.026 20.3941 14.0726C20.4307 14.1203 20.5089 14.1274 20.5732 14.1275C20.8567 14.1185 21.1212 14.0181 21.3514 13.8927C21.4284 13.8626 21.5008 13.7961 21.4718 13.7238C21.4336 13.6268 21.3614 13.5411 21.2907 13.4571C21.2174 13.3746 21.1401 13.2939 21.0578 13.2168C21.054 13.217 21.0466 13.2174 21.0428 13.2177Z" fill="white"/>
<path d="M27.222 8.5793C27.3063 8.42108 27.3842 8.26098 27.4695 8.10308C27.6002 8.44382 27.7278 8.78556 27.8344 9.13151C27.8504 9.19108 27.8713 9.25023 27.8791 9.31092C27.868 9.35896 27.8495 9.40612 27.848 9.45549C27.8014 9.38448 27.7546 9.31369 27.7073 9.24312C27.7668 10.1282 27.8386 11.0128 27.9188 11.897C27.9436 12.1814 27.9799 12.4652 27.9931 12.7501C28.0172 13.2779 27.994 13.8172 27.7913 14.3246C27.7152 14.508 27.6183 14.6867 27.4952 14.8536C27.3297 15.0693 27.084 15.2394 26.8138 15.3701C26.3325 15.5992 25.7817 15.7184 25.2317 15.7919C25.2006 15.8009 25.1879 15.7723 25.1703 15.7593C25.6609 15.5723 26.1327 15.3527 26.573 15.0988C26.7932 14.9683 27.0087 14.8308 27.1939 14.6693C27.4062 14.4801 27.5664 14.2523 27.6392 14.0051C27.719 13.7566 27.6915 13.498 27.674 13.245C27.628 12.6618 27.571 12.0792 27.5225 11.4961C27.4478 10.5976 27.3725 9.69903 27.2976 8.80053C27.2817 8.7374 27.2319 8.68325 27.209 8.62179C27.2028 8.60671 27.2171 8.59317 27.222 8.5793Z" fill="white"/>
<path d="M6.39207 8.57494C6.48771 8.42826 6.57956 8.28014 6.67282 8.13257C6.82427 8.44557 6.94416 8.76822 7.02732 9.09687C7.03279 9.15667 7.01218 9.21626 7.00545 9.27572C6.93702 9.2025 6.89593 9.11428 6.82624 9.04117C6.86424 9.28804 6.87785 9.53691 6.90266 9.78478C6.93029 10.1053 6.95637 10.426 6.98231 10.7466C7.18999 10.7191 7.37664 10.622 7.502 10.4896C7.69061 10.2912 7.77433 10.0415 7.79803 9.7972C7.79648 9.48331 7.77531 9.16399 7.65064 8.86353C7.62863 8.80206 7.5881 8.74259 7.58894 8.67746C7.60381 8.55641 7.65498 8.44035 7.70911 8.32729C7.72286 8.30088 7.73183 8.26727 7.77222 8.25939C7.83378 8.40995 7.89744 8.56041 7.93839 8.71552C8.00191 8.95851 8.03263 9.20593 8.06796 9.45225C8.09152 9.60137 8.09853 9.75293 8.14621 9.89906C8.20805 10.0956 8.33342 10.2871 8.53984 10.412C8.69507 10.5052 8.89336 10.569 9.0908 10.5443C9.23005 10.5244 9.37098 10.4806 9.46845 10.3965C9.51248 10.3592 9.54277 10.3046 9.52397 10.2536C9.32457 9.84736 9.16176 9.43073 8.99713 9.0151C8.9409 8.87052 8.88564 8.72562 8.83054 8.58082C8.81483 8.54409 8.83531 8.50626 8.84287 8.46998C8.87751 8.35925 8.92238 8.24951 8.98437 8.14654C9.05182 8.17217 9.09558 8.22288 9.1396 8.26871C9.2724 8.42005 9.37827 8.58492 9.47559 8.75191C9.47096 8.77321 9.46648 8.79463 9.46283 8.81615C9.41347 8.76766 9.35009 8.72417 9.27072 8.71186C9.2581 8.7356 9.25866 8.76157 9.26959 8.78564C9.35794 8.99701 9.45217 9.20683 9.54206 9.41775C9.61848 9.60582 9.69519 9.79721 9.70515 9.99604C9.71272 10.1579 9.68088 10.3201 9.62283 10.4751C9.61526 10.4886 9.61372 10.515 9.58805 10.5116C9.61021 10.5244 9.58974 10.545 9.58441 10.561C9.51542 10.6969 9.40814 10.8289 9.24449 10.9035C9.10412 10.9703 8.93079 10.9806 8.77261 10.956C8.56436 10.9231 8.38571 10.8165 8.25782 10.6854C8.07805 10.5005 7.96768 10.2784 7.90234 10.0525C7.89253 10.0527 7.87289 10.0534 7.86308 10.0537C7.80194 10.281 7.70896 10.5048 7.56537 10.7081C7.43664 10.89 7.25868 11.0619 7.01328 11.1486C7.05619 11.7113 7.10106 12.2738 7.13177 12.837C7.13626 13.1147 7.12209 13.3923 7.1047 13.6697C7.10442 13.7074 7.08451 13.7424 7.06965 13.7777C7.02155 13.898 6.97065 14.0178 6.91652 14.1367C6.90797 14.1566 6.89689 14.176 6.88104 14.1931C6.87403 13.6628 6.81724 13.1339 6.77195 12.6051C6.73086 12.1394 6.68978 11.6738 6.64981 11.2081C6.45335 11.2047 6.251 11.1592 6.106 11.05C5.93702 10.9269 5.85077 10.7495 5.80955 10.5744C5.77309 10.4193 5.76538 10.2603 5.78067 10.1033C5.81432 9.89829 5.88065 9.6978 5.94389 9.49741C5.95258 9.46158 5.9589 9.42396 5.94867 9.3879C5.94474 9.37481 5.94095 9.35928 5.92174 9.35561C5.89229 9.35261 5.87041 9.37004 5.8505 9.38412C5.74028 9.46845 5.66821 9.57752 5.60524 9.68669C5.48591 9.91226 5.41565 10.1527 5.37737 10.3949C5.34567 10.5546 5.29939 10.7136 5.22367 10.8641C5.16351 10.976 5.0885 11.0911 4.95808 11.1613C4.84673 11.222 4.69949 11.2145 4.57764 11.1797C4.42338 11.1344 4.31358 11.025 4.25525 10.9065C4.15386 10.7028 4.14727 10.4798 4.15345 10.2638C4.16789 10.0106 4.21332 9.75869 4.2833 9.51149C4.29648 9.50927 4.3098 9.50716 4.32298 9.50516C4.26633 9.78876 4.2202 10.0763 4.24698 10.3638C4.26002 10.4884 4.28807 10.6143 4.35538 10.7283C4.4126 10.8257 4.513 10.9133 4.64594 10.9451C4.75897 10.9726 4.89289 10.9704 4.98908 10.9103C5.0937 10.844 5.1432 10.7405 5.18148 10.6422C5.2715 10.3931 5.3053 10.1336 5.39855 9.88518C5.489 9.64164 5.61198 9.40542 5.76413 9.18196C5.85234 9.06612 5.94769 8.95284 6.05848 8.84965C6.09129 8.82258 6.12424 8.78408 6.17641 8.78363C6.20501 8.79817 6.19479 8.83001 6.19548 8.85276C6.18089 8.96483 6.1795 9.07944 6.13714 9.18784C6.05973 9.4103 6.00757 9.63765 5.95078 9.86377C5.91137 10.0398 5.90085 10.2279 5.98597 10.3968C6.04865 10.5256 6.17907 10.6301 6.33641 10.6883C6.42194 10.7202 6.51436 10.7397 6.60789 10.7504C6.55629 10.1222 6.49767 9.49429 6.44425 8.86607C6.43204 8.76833 6.44018 8.66747 6.39207 8.57494Z" fill="white"/>
<path d="M17.7508 8.28324C17.7905 8.23101 17.8284 8.17333 17.8963 8.14043C17.7977 8.29669 17.6971 8.45561 17.6527 8.62809C17.6354 8.70266 17.6295 8.79345 17.7069 8.84936C17.7519 8.86669 17.8037 8.87703 17.8527 8.86336C17.9423 8.84747 17.9842 8.77368 18.0192 8.71389C18.0289 8.73789 18.0353 8.76278 18.0249 8.78746C17.993 8.89126 17.9506 8.99995 17.8547 9.07852C17.7467 9.17009 17.5288 9.11741 17.4877 9.00006C17.4516 8.89359 17.4846 8.78201 17.5242 8.6791C17.5818 8.54129 17.6616 8.40982 17.7508 8.28324Z" fill="white"/>
<path d="M9.76134 8.60899C9.84632 8.45721 9.93116 8.30531 10.018 8.15419C10.1858 8.45976 10.3224 8.77598 10.4248 9.09918C10.4368 9.16453 10.4124 9.23022 10.4154 9.2959C10.3568 9.21357 10.2895 9.13535 10.228 9.05435C10.2439 9.20259 10.2726 9.35004 10.29 9.49828C10.4075 10.3738 10.5109 11.2506 10.5991 12.1283C10.7002 12.0704 10.7773 11.9873 10.8206 11.8949C10.8771 11.7908 10.9382 11.6873 11.0207 11.5943C11.0517 11.5609 11.0927 11.5181 11.1527 11.5284C11.1866 11.5299 11.2028 11.5588 11.2061 11.5822C11.2211 11.6646 11.1423 11.7358 11.1558 11.8175C11.1594 11.8847 11.2258 11.9423 11.3046 11.9626C11.4409 12.0015 11.589 11.9841 11.7288 11.9684C11.7919 11.9575 11.8707 11.948 11.9014 11.8962C11.8686 11.813 11.8321 11.7307 11.7907 11.6499C11.8498 11.5308 11.9172 11.4143 11.9788 11.2959C11.9946 11.268 12.0053 11.2371 12.0314 11.2136C12.0761 11.349 12.0873 11.4894 12.1054 11.6281C12.1241 11.8524 12.0786 12.0852 11.9373 12.2824C11.8611 12.3834 11.7474 12.4752 11.599 12.5043C11.4698 12.5289 11.3277 12.5176 11.2105 12.4666C11.0747 12.4055 10.9816 12.2981 10.9332 12.1823C10.8597 12.3159 10.7631 12.4422 10.6401 12.5508C10.6545 12.7241 10.6704 12.8973 10.6814 13.0707C10.6895 13.2641 10.6268 13.4536 10.5543 13.6367C10.5191 13.7154 10.4845 13.7945 10.441 13.8706C10.0546 14.3703 9.54369 14.8131 8.93075 15.1436C8.52955 15.3616 8.08572 15.5307 7.61973 15.6418C7.37615 15.6977 7.12711 15.7433 6.87371 15.7579C6.61218 15.7608 6.34673 15.7341 6.1023 15.6582C5.87289 15.5874 5.6725 15.4585 5.5439 15.2918C5.09208 15.3288 4.6376 15.3491 4.18325 15.35C4.58852 15.235 4.98971 15.1109 5.38418 14.9742C5.27887 14.5677 5.36595 14.1487 5.49763 13.7528C5.57826 13.5128 5.68232 13.2781 5.79913 13.0478C5.87597 12.8789 5.95226 12.7058 6.08281 12.5577C6.00625 12.6842 5.92646 12.8101 5.86336 12.9412L5.86686 12.9483C5.86854 12.9501 5.87205 12.954 5.87387 12.9559C5.86966 12.955 5.86111 12.9531 5.85691 12.9523C5.83012 12.9935 5.80727 13.0365 5.79197 13.0813C5.6854 13.3512 5.61753 13.6308 5.59495 13.9132C5.57266 14.2237 5.60084 14.5496 5.7837 14.8306C6.26987 14.6507 6.74315 14.4486 7.19694 14.2218C7.58174 14.0267 7.95348 13.8139 8.2913 13.5699C8.45144 13.4528 8.6071 13.3305 8.73864 13.1925C8.77748 13.1563 8.75855 13.1047 8.74593 13.0635C8.71662 12.9944 8.68339 12.9264 8.64959 12.8587C8.41962 12.9324 8.17463 12.9829 7.92516 12.982C7.78914 12.9851 7.64919 12.9646 7.53196 12.9079C7.43141 12.8588 7.35681 12.7783 7.32652 12.688C7.2846 12.5695 7.30282 12.4444 7.32793 12.3249C7.36775 12.152 7.44825 11.979 7.60124 11.848C7.70866 11.7566 7.85085 11.6863 8.00847 11.6679C8.1867 11.6685 8.35455 11.7373 8.48174 11.8328C8.6437 11.9543 8.75421 12.1119 8.83919 12.2735C8.99779 12.2004 9.15022 12.1139 9.26829 12.0015C9.38412 11.9062 9.50332 11.8089 9.65126 11.7449C9.68814 11.7281 9.75181 11.7096 9.77634 11.7487C9.80312 11.8069 9.77761 11.8708 9.75965 11.9286C9.71197 12.0129 9.76961 12.1088 9.84085 12.1732C9.93999 12.2618 10.1029 12.2703 10.2411 12.2505C10.0963 11.0738 9.94924 9.89725 9.80439 8.72059C9.80145 8.68112 9.77986 8.64506 9.76134 8.60899ZM7.79055 12.2222C7.71959 12.2464 7.63083 12.2822 7.62031 12.3498C7.63699 12.4012 7.71328 12.417 7.77063 12.428C7.95504 12.4563 8.14673 12.4558 8.33099 12.4271C8.32763 12.4219 8.32062 12.4116 8.31711 12.4064C8.22105 12.3203 8.09863 12.2462 7.95307 12.2244C7.89964 12.2181 7.84285 12.206 7.79055 12.2222ZM8.99807 12.7028C9.01714 12.9426 8.97465 13.185 8.87916 13.4128C8.84228 13.4919 8.81156 13.5757 8.74201 13.6416C8.39998 14.0033 7.95939 14.2988 7.49509 14.5582C7.08141 14.7862 6.64459 14.9885 6.188 15.1575C6.26597 15.1875 6.34786 15.2117 6.43299 15.226C6.661 15.2661 6.89645 15.2446 7.12489 15.2185C7.84007 15.1337 8.51345 14.8867 9.09344 14.5492C9.47795 14.3254 9.82825 14.0648 10.1339 13.7746C10.2362 13.6721 10.362 13.5719 10.3869 13.437C10.3625 13.2081 10.3303 12.9798 10.3033 12.751C10.1443 12.8015 9.94744 12.8133 9.80314 12.729C9.62799 12.6244 9.56138 12.4459 9.53376 12.281C9.38272 12.4416 9.20505 12.5871 8.99807 12.7028Z" fill="white"/>
<path d="M16.7053 8.17385C16.7782 8.20381 16.8259 8.25851 16.8729 8.30977C16.9874 8.44248 17.0815 8.5855 17.1689 8.73029C17.1837 8.75159 17.1889 8.77844 17.2156 8.79342C17.207 8.79464 17.1986 8.79564 17.1906 8.79653C17.1896 8.80807 17.188 8.83126 17.1871 8.8428C17.1344 8.79742 17.0727 8.7536 16.9943 8.74028C16.9804 8.76458 16.9806 8.79077 16.9923 8.81561C17.0941 9.0627 17.2093 9.30636 17.3079 9.55434C17.3707 9.716 17.4258 9.8821 17.4279 10.0523C17.4322 10.2103 17.3982 10.3681 17.3393 10.5187C17.2801 10.6603 17.1894 10.8007 17.0381 10.8941C16.9135 10.9741 16.7474 11.0073 16.5889 10.9955C16.3955 10.9841 16.2124 10.9103 16.0782 10.8007C16.0065 10.7466 15.9483 10.6829 15.8938 10.6178L15.9147 10.6139C15.9089 10.6145 15.8976 10.6156 15.8918 10.6162C15.7707 10.4546 15.6808 10.2783 15.6289 10.0949C15.6335 10.0712 15.5763 10.0731 15.582 10.0968C15.5081 10.3643 15.3902 10.6281 15.195 10.856C15.081 10.987 14.9335 11.1038 14.7505 11.1729C14.5511 11.2474 14.3162 11.2522 14.1063 11.2045C13.8954 11.1564 13.7282 11.0246 13.6376 10.8692C13.5064 10.6467 13.4863 10.3947 13.5007 10.1527C13.5289 9.95719 13.5906 9.76602 13.6509 9.57552C13.6713 9.51693 13.6894 9.45391 13.6631 9.39445C13.6547 9.391 13.638 9.38413 13.6298 9.38069C13.6016 9.39522 13.5725 9.40953 13.5505 9.42995C13.396 9.56487 13.3082 9.73729 13.2381 9.90827C13.1851 10.046 13.1437 10.1865 13.116 10.3289C13.0791 10.5539 13.0226 10.7816 12.8917 10.9855C12.8208 11.0939 12.7142 11.2065 12.5536 11.2314C12.4048 11.2471 12.2458 11.2102 12.1369 11.1272C12.0034 11.0284 11.9449 10.8849 11.9097 10.7469C11.8536 10.4991 11.871 10.2451 11.9062 9.99636C11.9297 9.84302 11.9634 9.6908 12.0053 9.54001C12.0191 9.53901 12.033 9.53824 12.0471 9.53757C11.9916 9.79177 11.9533 10.0498 11.963 10.3083C11.9717 10.4555 11.9935 10.6055 12.0691 10.7417C12.1205 10.8351 12.2075 10.9219 12.3285 10.9621C12.4428 10.9989 12.5839 11.0056 12.6909 10.9507C12.8015 10.8932 12.8534 10.7906 12.8945 10.6955C12.9754 10.485 13.0112 10.2661 13.0747 10.0523C13.1413 9.83526 13.2371 9.62412 13.3546 9.42107C13.4219 9.30269 13.4961 9.1863 13.5913 9.08023C13.6759 8.98581 13.7536 8.88217 13.8736 8.81283C13.8826 8.81316 13.9002 8.81394 13.9092 8.81426C13.9312 8.88538 13.9053 8.95906 13.9014 9.03107C13.8939 9.15001 13.8392 9.26174 13.8078 9.37702C13.7688 9.50883 13.7355 9.64176 13.7021 9.77456C13.6505 9.96474 13.6137 10.1653 13.6787 10.3566C13.7277 10.5066 13.8586 10.639 14.0353 10.7074C14.1501 10.7552 14.279 10.7795 14.4083 10.7831C14.59 10.7977 14.78 10.7804 14.9426 10.7111C15.1385 10.6303 15.2772 10.4839 15.367 10.3274C15.455 10.1711 15.5052 10.0018 15.5198 9.83126C15.5217 9.49251 15.492 9.14723 15.3456 8.82602C15.3269 8.78164 15.3025 8.73559 15.3132 8.68799C15.3363 8.5574 15.3914 8.43169 15.4561 8.31064C15.4602 8.29677 15.4812 8.29578 15.4938 8.28867C15.5629 8.4521 15.6301 8.61665 15.6721 8.78608C15.7249 9.00632 15.7553 9.22945 15.7866 9.45202C15.8114 9.61091 15.8187 9.77224 15.8691 9.92801C15.9109 10.0573 15.9759 10.1838 16.0782 10.2908C16.2024 10.4274 16.3889 10.5288 16.5963 10.5676C16.7738 10.6002 16.9634 10.5582 17.1128 10.4798C17.1913 10.4374 17.2728 10.3659 17.2467 10.2851C16.9981 9.76758 16.7936 9.23767 16.5904 8.7083C16.577 8.66459 16.5513 8.62275 16.5471 8.57782C16.5735 8.43781 16.6354 8.30356 16.7053 8.17385Z" fill="white"/>
<path d="M14.1279 8.26624C14.313 8.36638 14.4648 8.51085 14.5356 8.68066C14.5708 8.76979 14.5837 8.86481 14.5701 8.95772C14.5599 9.02539 14.5463 9.09563 14.4984 9.15387C14.4917 9.13609 14.4962 9.11786 14.5004 9.10019C14.5323 8.96583 14.5051 8.8218 14.4171 8.70355C14.3445 8.60497 14.237 8.5223 14.1106 8.46772C14.113 8.40038 14.1213 8.33337 14.1279 8.26624Z" fill="white"/>
<path d="M4.45455 8.44738C4.48939 8.3987 4.52787 8.34858 4.58827 8.31736C4.49192 8.48184 4.37983 8.6452 4.34401 8.82668C4.33277 8.88603 4.33235 8.95404 4.38039 9.00394C4.42534 9.04872 4.50708 9.0495 4.57071 9.03383C4.64193 9.01128 4.67507 8.95082 4.70836 8.90047C4.72326 8.90081 4.72634 8.9147 4.7335 8.92303C4.696 9.03961 4.65976 9.16608 4.54865 9.25443C4.44542 9.34078 4.24175 9.29633 4.19105 9.18909C4.15425 9.11196 4.16646 9.02661 4.1881 8.94792C4.2412 8.77079 4.34177 8.60508 4.45455 8.44738Z" fill="white"/>
<path d="M20.694 8.40448C20.721 8.36725 20.7627 8.32135 20.8245 8.3278C20.8901 8.33947 20.9543 8.36736 20.9946 8.41093C21.0151 8.43816 21.0321 8.47972 20.9957 8.50372C20.9766 8.5185 20.963 8.54351 20.9394 8.55096C20.9064 8.51684 20.8808 8.45594 20.8141 8.45771C20.7305 8.48205 20.6843 8.54906 20.6593 8.61274C20.6075 8.7441 20.5969 8.88257 20.5806 9.01861C20.5641 9.03216 20.5417 9.03972 20.5218 9.04939C20.5218 8.91147 20.4813 8.76377 20.3565 8.66187C20.2964 8.65597 20.2249 8.65031 20.1912 8.60419C20.1502 8.5454 20.1207 8.47283 20.149 8.4066C20.2127 8.39671 20.2642 8.43449 20.3075 8.46583C20.4218 8.54885 20.4957 8.65876 20.5624 8.76801C20.5906 8.64397 20.619 8.51705 20.694 8.40448Z" fill="white"/>
<path d="M12.0799 8.47663C12.1177 8.40384 12.2167 8.34272 12.3199 8.35672C12.3715 8.3655 12.4076 8.40139 12.426 8.43862C12.4621 8.51531 12.4674 8.59887 12.4548 8.67956C12.5181 8.73957 12.5869 8.80036 12.6135 8.87816C12.6626 8.98051 12.6187 9.08976 12.5768 9.18856C12.5233 9.31925 12.4216 9.43794 12.4026 9.57686C12.396 9.6112 12.4128 9.64865 12.4571 9.66054C12.5285 9.64387 12.5396 9.57675 12.5542 9.52784C12.5765 9.52362 12.6115 9.52173 12.6192 9.54407C12.6314 9.60586 12.5972 9.66532 12.5695 9.72166C12.5445 9.76445 12.5098 9.81502 12.4456 9.82457C12.3943 9.83202 12.3552 9.79646 12.3347 9.76389C12.2762 9.67009 12.2946 9.55885 12.3435 9.46517C12.4196 9.31591 12.5202 9.16566 12.5109 9.00007C12.5112 8.92973 12.4738 8.8626 12.4141 8.81136C12.325 9.00196 12.1807 9.17377 12.0145 9.32758C11.9286 9.41204 11.8051 9.46361 11.6873 9.51506C11.5818 9.5583 11.4748 9.60086 11.3624 9.63209C11.5787 9.50896 11.7862 9.37437 11.9657 9.21801C12.1137 9.08654 12.25 8.93829 12.3049 8.76491L12.3012 8.75514C12.2212 8.71424 12.125 8.67812 12.0832 8.60588C12.0655 8.56476 12.0678 8.51853 12.0799 8.47663ZM12.1601 8.49753C12.1394 8.50808 12.1536 8.52831 12.1705 8.5352C12.2209 8.55843 12.2727 8.57999 12.3251 8.60043C12.3239 8.55865 12.3334 8.50675 12.2872 8.47697C12.2472 8.45051 12.1924 8.47341 12.1601 8.49753Z" fill="white"/>
<path d="M10.7265 8.58471C10.7562 8.59104 10.7777 8.61026 10.8023 8.62394C10.9512 8.72095 11.0752 8.8471 11.1344 8.99368C11.1897 9.12637 11.1863 9.27207 11.137 9.40554C11.1303 9.42865 11.1117 9.44732 11.0954 9.46666C11.0942 9.46422 11.0916 9.45922 11.0903 9.45677C11.1262 9.33342 11.1209 9.20061 11.0581 9.08325C10.9902 8.95467 10.8631 8.8482 10.7098 8.78119C10.7137 8.71563 10.7201 8.65006 10.7265 8.58471Z" fill="white"/>
<path d="M8.49608 8.71248L8.50717 8.72126C8.48274 8.74581 8.49524 8.77824 8.49917 8.80646C8.5125 8.86721 8.53159 8.92741 8.55798 8.98551C8.56668 9.0115 8.6008 9.02393 8.62985 9.0326C8.65526 9.03682 8.69639 9.04671 8.70692 9.01983C8.68951 8.95685 8.64769 8.90064 8.62185 8.84022C8.63406 8.80534 8.63982 8.76791 8.66073 8.73559C8.67477 8.73582 8.68909 8.73626 8.7034 8.73703C8.71744 8.80479 8.76195 8.86444 8.79395 8.92697C8.79213 8.99128 8.7896 9.05803 8.75899 9.11846C8.7399 9.15934 8.67912 9.17022 8.63027 9.16967C8.55881 9.16167 8.51192 9.11391 8.46967 9.07237C8.44243 9.13302 8.3728 9.18045 8.29166 9.18878C8.22343 9.19155 8.1656 9.14801 8.14763 9.09836C8.1239 9.03272 8.12657 8.96218 8.14581 8.89609C8.16083 8.84988 8.19017 8.7999 8.25054 8.78213C8.20294 8.84578 8.19116 8.92408 8.21783 8.99506C8.22822 9.02438 8.24745 9.06114 8.29125 9.06536C8.33982 9.06603 8.3759 9.03671 8.41057 9.01393C8.41955 8.94129 8.40874 8.86798 8.42012 8.79545C8.43767 8.76424 8.47277 8.74114 8.49608 8.71248Z" fill="white"/>
<path d="M20.6286 9.15918C20.8987 9.06671 21.1688 8.97336 21.4451 8.89334C21.4367 8.94301 21.4139 8.9997 21.3528 9.02337C20.9605 9.15584 20.5667 9.28609 20.1827 9.43323C20.1064 9.46657 20.028 9.50079 19.9686 9.55214C20.011 9.58915 20.0745 9.60304 20.1318 9.61971C20.1311 9.6556 20.1313 9.6915 20.1313 9.72751C20.0501 9.71195 19.9688 9.6885 19.9058 9.64371C19.9095 9.5927 19.9084 9.54136 19.9172 9.49068C19.9263 9.44467 19.9857 9.423 20.0287 9.398C20.2191 9.3042 20.4251 9.23274 20.6286 9.15918Z" fill="white"/>
<path d="M14.4308 9.30364C14.4731 9.26219 14.5109 9.21451 14.5671 9.18428C14.53 9.22884 14.5456 9.28385 14.5544 9.33298C14.5752 9.42466 14.6061 9.5149 14.6426 9.60348C14.6542 9.64049 14.7023 9.65627 14.7421 9.6705C14.778 9.68117 14.8213 9.69105 14.8578 9.67683C14.8809 9.66083 14.87 9.63349 14.8619 9.61371C14.8268 9.53614 14.7908 9.45835 14.7414 9.38566C14.7528 9.35132 14.7605 9.31587 14.7795 9.28342C14.7832 9.28286 14.791 9.28176 14.7949 9.2812C14.7903 9.27409 14.7859 9.26697 14.7817 9.25997C14.7872 9.24552 14.7925 9.23097 14.7981 9.21652C14.8229 9.21807 14.8476 9.21941 14.8727 9.22063C14.8841 9.32476 14.9564 9.41566 15.0085 9.50913C15.0067 9.58881 14.9994 9.66916 14.9776 9.74718C14.9653 9.79319 14.9384 9.84175 14.8835 9.86487C14.8205 9.88466 14.7453 9.89388 14.6837 9.86643C14.6122 9.83397 14.555 9.78452 14.5102 9.73051C14.4742 9.8133 14.3879 9.87887 14.2829 9.90588C14.2107 9.92733 14.1249 9.90444 14.0756 9.8592C14.0128 9.80764 13.996 9.73296 13.9899 9.66417C13.985 9.5757 13.994 9.48446 14.0377 9.40211C14.0627 9.35432 14.1074 9.3122 14.1665 9.28898C14.1085 9.38011 14.0787 9.48613 14.1112 9.58682C14.1255 9.6396 14.1494 9.70695 14.2237 9.72351C14.3039 9.73162 14.3676 9.68339 14.4193 9.6416C14.429 9.52913 14.423 9.41599 14.4308 9.30364Z" fill="white"/>
<path d="M8.41299 9.44573C8.59966 9.54142 8.74827 9.68701 8.81933 9.85448C8.87706 9.98984 8.87299 10.1388 8.82158 10.2749C8.81469 10.297 8.79362 10.3136 8.7748 10.3298C8.81273 10.2013 8.80866 10.0621 8.74067 9.94016C8.67143 9.81425 8.54445 9.71045 8.39402 9.64332C8.40217 9.57754 8.40625 9.51152 8.41299 9.44573Z" fill="white"/>
<path d="M20.7906 10.2179C20.8298 10.18 20.868 10.1415 20.911 10.1062C20.8701 10.1818 20.9013 10.2639 20.9207 10.3405C20.9427 10.4106 20.9639 10.4814 20.9974 10.5488C21.0391 10.592 21.1123 10.614 21.1797 10.6123C21.211 10.6122 21.2259 10.5832 21.2151 10.5624C21.1821 10.478 21.1392 10.396 21.0905 10.3165C21.0999 10.2582 21.1273 10.202 21.1465 10.1451C21.1698 10.1468 21.1936 10.1484 21.2174 10.1503C21.233 10.2537 21.3014 10.3454 21.3551 10.4383C21.3529 10.5131 21.3462 10.5883 21.328 10.6619C21.3142 10.7131 21.2902 10.7725 21.2248 10.7956C21.169 10.8127 21.1037 10.8223 21.0474 10.8016C20.9646 10.7726 20.9059 10.7155 20.8551 10.6583C20.8229 10.7391 20.7411 10.8032 20.6409 10.8315C20.5584 10.8615 20.4581 10.8301 20.4059 10.7752C20.3459 10.7104 20.3354 10.6269 20.3344 10.549C20.3377 10.4742 20.3452 10.3972 20.3859 10.3285C20.4123 10.2824 20.4532 10.237 20.516 10.2198C20.4323 10.3293 20.423 10.4696 20.4848 10.5872C20.5026 10.6206 20.5393 10.6528 20.5882 10.6539C20.6625 10.6509 20.7202 10.6086 20.7694 10.5684C20.7682 10.473 20.7736 10.3777 20.7737 10.2823C20.7773 10.2607 20.769 10.2348 20.7906 10.2179Z" fill="white"/>
<path d="M26.2737 10.1318C26.5018 10.2533 26.6898 10.4266 26.7917 10.6297C26.892 10.8265 26.8911 11.0499 26.8103 11.2509C26.7994 11.2741 26.7759 11.2916 26.7563 11.3103C26.7914 11.1738 26.8035 11.0305 26.7546 10.8952C26.6855 10.6807 26.4879 10.5025 26.2475 10.3947C26.2595 10.3073 26.2621 10.2193 26.2737 10.1318Z" fill="white"/>
<path d="M11.2253 10.6241C11.3818 10.5477 11.5351 10.467 11.6936 10.3933C11.678 10.472 11.6457 10.5633 11.5489 10.6025C11.2028 10.7701 10.8605 10.9427 10.5132 11.1085C10.5519 11.0457 10.5901 10.9823 10.6328 10.9211C10.8286 10.8202 11.0281 10.7233 11.2253 10.6241Z" fill="white"/>
<path d="M17.8796 10.879C17.9269 10.8573 17.9963 10.8589 18.0283 10.8984C18.0724 10.9511 18.0842 11.0199 18.0603 11.0803C18.0152 11.2002 17.9157 11.302 17.8072 11.3907C17.6752 11.4926 17.5173 11.5866 17.3306 11.6096C17.3619 11.579 17.4077 11.562 17.448 11.54C17.5636 11.4783 17.675 11.4103 17.7721 11.3309C17.8231 11.2843 17.8782 11.2338 17.8874 11.17C17.8909 11.1164 17.8295 11.0707 17.7669 11.0618C17.6757 11.0746 17.6188 11.137 17.5517 11.1809C17.5357 11.1421 17.5785 11.1149 17.6038 11.0865C17.6842 11.0091 17.7652 10.9262 17.8796 10.879Z" fill="white"/>
<path d="M20.4592 11.824C20.9709 11.5733 21.4798 11.3191 21.9922 11.0694C21.9777 11.1473 21.9495 11.2326 21.8686 11.284C21.3725 11.5288 20.8736 11.7703 20.3776 12.0156C20.3988 11.9502 20.4323 11.8879 20.4592 11.824Z" fill="white"/>
<path d="M13.6154 11.2346C13.6899 11.2838 13.7352 11.3545 13.7855 11.4189C13.9144 11.5983 14.0242 11.7858 14.1305 11.9741C14.3637 12.3783 14.5171 12.8098 14.6015 13.2486C14.6254 13.3847 14.6498 13.5215 14.6449 13.6593C14.659 13.9328 14.7001 14.2124 14.8444 14.4641C14.8722 14.5142 14.9106 14.5599 14.9465 14.6065C14.9448 14.6128 14.9416 14.6254 14.9399 14.6317C14.9473 14.6266 14.9549 14.6215 14.9623 14.6164C15.0561 14.7163 15.1605 14.8104 15.2725 14.8979C15.301 14.922 15.3586 14.9428 15.3867 14.9055C15.392 14.9063 15.4028 14.908 15.4081 14.9088C15.4045 14.9062 15.3972 14.901 15.3935 14.8983C15.417 14.8419 15.3928 14.7817 15.4153 14.7253C15.4472 14.6328 15.5205 14.554 15.5983 14.4822C15.6854 14.4068 15.7839 14.3375 15.9003 14.2919C16.1334 14.1984 16.375 14.1189 16.619 14.0452C16.8027 13.9913 16.9895 13.9434 17.1805 13.9087C16.3607 13.9133 15.5409 13.9186 14.7211 13.926C14.7621 13.7685 14.8037 13.611 14.8459 13.4537C14.9329 13.3634 15.0423 13.2891 15.1502 13.2154C15.6203 12.9085 16.163 12.6813 16.7126 12.478C16.6482 12.3982 16.5587 12.3238 16.5446 12.2259C16.5113 12.0883 16.5835 11.9523 16.6744 11.8378C16.7283 11.7727 16.7786 11.7017 16.8615 11.657C16.9446 11.6114 17.0571 11.6085 17.1481 11.6408C17.2062 11.6617 17.2655 11.6804 17.3214 11.7051C17.3226 11.7099 17.3247 11.7198 17.3258 11.7247C17.3289 11.7218 17.3349 11.7159 17.338 11.713C17.5807 11.8203 17.7982 11.9599 17.9996 12.1108C18.0229 12.1294 18.0527 12.1455 18.0673 12.1698C18.0126 12.31 17.9549 12.4495 17.9019 12.5902C17.6595 12.6331 17.416 12.674 17.1798 12.7356C17.2038 12.854 17.2466 12.9831 17.1823 13.0979C17.1599 13.0954 17.1295 13.0923 17.1257 13.0706C17.1166 12.971 17.056 12.8805 16.9937 12.7957C16.6924 12.8896 16.3917 12.9867 16.1076 13.1102C15.8786 13.2108 15.6464 13.32 15.4767 13.481C16.7371 13.4813 17.9976 13.4813 19.2582 13.481C19.1774 13.6214 19.091 13.76 19.0087 13.8999C18.1834 14.059 17.3597 14.2291 16.5592 14.4553C16.2232 14.5527 15.8874 14.6599 15.5895 14.8187C15.5586 14.8374 15.5408 14.8718 15.5632 14.8997C15.6095 14.956 15.6939 14.9792 15.7648 15.0112C15.9187 15.0787 16.0894 15.1154 16.2571 15.1548C16.3773 15.1829 16.4975 15.2109 16.6175 15.2393C16.6075 15.4076 16.6059 15.5763 16.5929 15.7444C16.4946 15.7444 16.3944 15.7307 16.2955 15.7238C16.1019 15.7056 15.9053 15.6934 15.7185 15.6463C15.4641 15.5827 15.235 15.4617 15.0555 15.3062C14.8584 15.1384 14.716 14.9348 14.6139 14.7214C14.4745 14.4258 14.4044 14.1116 14.3774 13.7975C14.3651 13.7962 14.353 13.7951 14.3411 13.7941C14.3062 13.9326 14.2667 14.071 14.2082 14.2046C14.1971 14.2364 14.1677 14.2605 14.1417 14.2852C13.9541 14.4576 13.754 14.6215 13.5448 14.7774C13.3306 14.9353 13.1074 15.0864 12.8662 15.218C12.6125 15.3557 12.3381 15.4795 12.0346 15.5315C11.8715 15.5583 11.6861 15.5634 11.5433 15.4852C11.3837 15.3989 11.3058 15.2489 11.2638 15.1051C11.1184 15.1924 10.9718 15.2785 10.822 15.3612C10.6869 15.433 10.5522 15.5089 10.3974 15.5522C10.0104 15.6659 9.60765 15.7404 9.20701 15.8173C8.91968 15.8688 8.6322 15.9204 8.34291 15.9645C8.61089 15.8441 8.88308 15.7291 9.14994 15.6071C9.87395 15.2793 10.5872 14.9349 11.268 14.5532C11.3608 14.2014 11.5107 13.8475 11.8011 13.5651C11.8048 13.5643 11.8122 13.5626 11.8159 13.5619C11.7927 13.6008 11.7816 13.6435 11.7578 13.6822C11.5828 13.9248 11.4584 14.1929 11.4144 14.4706C11.7243 14.2923 12.0268 14.1053 12.3114 13.902C12.4873 13.7773 12.6525 13.6433 12.8034 13.4995C12.8449 13.4588 12.9012 13.4238 12.9169 13.3704C12.9388 13.3096 12.906 13.2491 12.8714 13.1959C12.8749 13.189 12.8784 13.1821 12.882 13.1753C12.8673 13.1721 12.8578 13.1652 12.8533 13.1548C12.6706 12.7825 12.4857 12.4108 12.3033 12.0385C12.3601 11.8675 12.4127 11.6956 12.47 11.5248C12.5465 11.5646 12.5962 11.6272 12.6507 11.6838C12.7617 11.8128 12.8662 11.9455 12.96 12.083C13.0124 12.1585 13.0224 12.2463 13.0416 12.3297C12.9663 12.2761 12.9139 12.2035 12.8303 12.1576C12.8339 12.1699 12.839 12.1817 12.8456 12.1934C12.9778 12.3999 13.0683 12.6223 13.1269 12.8489C13.1631 12.9835 13.1788 13.1215 13.1687 13.2591C13.1611 13.4082 13.1354 13.561 13.0489 13.6956C12.9721 13.8151 12.8687 13.9221 12.7607 14.0249C12.3947 14.3647 11.9658 14.6577 11.5301 14.9397C11.5306 14.9561 11.5542 14.9606 11.5682 14.9695C11.7242 15.0466 11.9192 15.0388 12.0934 15.0148C12.2247 14.9907 12.3598 14.9724 12.48 14.9216C12.7954 14.791 13.0704 14.6089 13.3358 14.4234C13.6839 14.1728 14.0117 13.9048 14.3245 13.6268C14.22 13.3334 14.1114 13.0411 14.0009 12.7491C13.9409 12.5967 13.8851 12.4429 13.8133 12.2937C13.6943 12.0969 13.5798 11.8977 13.4761 11.6956C13.518 11.5413 13.5707 11.3886 13.6154 11.2346ZM16.7876 12.0285C16.7494 12.0405 16.7175 12.0738 16.7334 12.1072C16.7393 12.1325 16.7743 12.1412 16.7926 12.16C16.869 12.2302 16.9414 12.3033 17.0079 12.3798C17.1738 12.3321 17.3422 12.2907 17.5096 12.2468C17.385 12.1526 17.2466 12.063 17.0802 12.0204C16.9856 11.995 16.8797 11.9981 16.7876 12.0285Z" fill="white"/>
<path d="M5.12228 11.3189C5.23643 11.2994 5.34034 11.3559 5.42153 11.4126C5.5302 11.4966 5.62079 11.5966 5.67815 11.7084C5.69554 11.7421 5.70324 11.7789 5.69679 11.8152C5.68852 11.8634 5.68375 11.9162 5.64504 11.9562C5.59961 11.9894 5.52795 11.9822 5.47972 11.9567C5.43175 11.9316 5.38169 11.9091 5.32953 11.89C5.25128 12.0539 5.09142 12.1835 4.91712 12.2869C4.78025 12.3688 4.63105 12.4376 4.47679 12.4967C4.36629 12.5299 4.25327 12.5584 4.13855 12.581C4.09284 12.5909 4.0453 12.5899 3.99846 12.5889C4.02595 12.5838 4.05526 12.5821 4.08035 12.5709C4.33137 12.4588 4.57621 12.337 4.80436 12.1975C4.95848 12.0993 5.11147 11.9953 5.22085 11.8634C5.1677 11.8538 5.11427 11.8449 5.06 11.8408C5.01723 11.7421 5.01597 11.6221 5.10613 11.5393C5.06266 11.5092 5.05635 11.4597 5.0485 11.4174C5.04024 11.3763 5.06674 11.3276 5.12228 11.3189ZM5.33543 11.5645C5.35562 11.638 5.35758 11.7136 5.36137 11.7885C5.43737 11.7952 5.51394 11.8238 5.5905 11.8089C5.62598 11.7931 5.60102 11.7571 5.5825 11.7387C5.51254 11.6706 5.42391 11.6164 5.33543 11.5645ZM5.14878 11.5961C5.12382 11.6254 5.09479 11.6591 5.09872 11.696C5.14289 11.74 5.21749 11.7583 5.28494 11.7679C5.29153 11.7469 5.29939 11.7262 5.30457 11.705C5.32308 11.662 5.28101 11.6234 5.24736 11.5934C5.22226 11.5693 5.17051 11.5686 5.14878 11.5961Z" fill="white"/>
<path d="M15.1552 11.5514C15.1944 11.5065 15.2386 11.4635 15.2882 11.4253C15.2517 11.4909 15.2735 11.5624 15.2905 11.6295C15.3097 11.7028 15.3357 11.7748 15.3648 11.8462C15.3851 11.9 15.4631 11.9189 15.5254 11.9294C15.5628 11.9389 15.6086 11.9169 15.5941 11.8831C15.5597 11.7959 15.5157 11.7114 15.4655 11.6293C15.4833 11.5743 15.5035 11.5199 15.5207 11.4648C15.5443 11.4648 15.5681 11.465 15.5922 11.4652C15.6128 11.5671 15.6742 11.6596 15.7307 11.7512C15.7308 11.8502 15.7233 11.9534 15.679 12.0473C15.6493 12.1139 15.5502 12.1346 15.4701 12.1292C15.3638 12.113 15.2933 12.0404 15.2309 11.9766C15.1999 12.0603 15.1121 12.1252 15.0081 12.1515C14.9202 12.177 14.8188 12.1399 14.7716 12.0786C14.7199 12.0105 14.7101 11.9284 14.7125 11.8506C14.7171 11.7394 14.7444 11.6097 14.8705 11.5429C14.8793 11.5429 14.897 11.543 14.9059 11.543C14.9003 11.545 14.8888 11.5489 14.8831 11.5509C14.8065 11.6619 14.8017 11.8014 14.8698 11.9157C14.8896 11.9519 14.9397 11.9779 14.9905 11.9694C15.0537 11.9573 15.1037 11.9217 15.1468 11.8851C15.1483 11.7738 15.1478 11.6625 15.1552 11.5514Z" fill="white"/>
<path d="M4.51157 12.8846C5.02088 12.6315 5.53228 12.3808 6.04257 12.1291C6.02796 12.217 5.9899 12.3187 5.88287 12.3627C5.4105 12.5944 4.93702 12.8248 4.46536 13.0573C4.45314 13.0624 4.44035 13.0666 4.42701 13.0698C4.45708 13.0086 4.47997 12.9451 4.51157 12.8846Z" fill="white"/>
<path d="M18.654 12.3823C18.6965 12.3387 18.7686 12.3175 18.8366 12.3158C18.8838 12.3155 18.9067 12.3556 18.9175 12.3862C18.938 12.4583 18.9416 12.5368 18.8973 12.604C18.9203 12.6172 18.9435 12.6307 18.9671 12.6438C18.9609 12.6899 18.9565 12.7364 18.9554 12.7828C18.9085 12.7629 18.8724 12.7312 18.8322 12.7046C18.7072 12.8752 18.5245 13.0231 18.2968 13.1067C18.1764 13.1547 18.0386 13.1757 17.9046 13.1624C18.1584 13.0906 18.4049 12.9871 18.5891 12.8281C18.6524 12.7737 18.7069 12.7135 18.753 12.649C18.7173 12.6189 18.6746 12.5931 18.6468 12.5579C18.6246 12.5015 18.6083 12.4342 18.654 12.3823ZM18.7236 12.4378C18.7421 12.4791 18.7773 12.5131 18.814 12.5451C18.8294 12.5094 18.8496 12.4706 18.827 12.434C18.7923 12.4286 18.7575 12.4316 18.7236 12.4378Z" fill="white"/>
<path d="M23.3955 12.4851C23.4811 12.4618 23.5711 12.4924 23.6411 12.5315C23.7579 12.5998 23.849 12.6927 23.9194 12.7924C23.957 12.8502 23.9999 12.9136 23.9848 12.9808C23.9758 13.0261 23.9713 13.0747 23.9371 13.1133C23.8992 13.1504 23.8281 13.1466 23.7804 13.1245C23.726 13.1001 23.6742 13.0723 23.6172 13.0516C23.5402 13.2172 23.378 13.3475 23.2021 13.451C23.0831 13.5231 22.9525 13.5823 22.8203 13.6377C22.7387 13.6725 22.6484 13.6912 22.5609 13.7138C22.4735 13.7334 22.3846 13.7593 22.2923 13.7521C22.3505 13.7494 22.3965 13.7196 22.4456 13.6983C22.7014 13.5806 22.952 13.4539 23.1796 13.3038C23.3004 13.2211 23.424 13.1348 23.5055 13.0246C23.4529 13.0156 23.4001 13.0078 23.347 13.0021C23.3042 12.9037 23.3038 12.7833 23.3961 12.7019C23.3501 12.674 23.3447 12.6232 23.337 12.5811C23.3305 12.5444 23.346 12.4978 23.3955 12.4851ZM23.6249 12.7289C23.6423 12.8018 23.6475 12.8761 23.6489 12.9502C23.721 12.9584 23.7927 12.9811 23.8661 12.9745C23.9036 12.9702 23.9022 12.9312 23.8814 12.9127C23.8131 12.8383 23.7183 12.7822 23.6249 12.7289ZM23.3808 12.8478C23.4177 12.9019 23.5013 12.9156 23.5696 12.9329C23.5836 12.8981 23.6017 12.8616 23.5948 12.8246C23.5701 12.7865 23.5366 12.7365 23.4746 12.7367C23.421 12.7585 23.3999 12.806 23.3808 12.8478Z" fill="white"/>
<path d="M11.6443 12.8261C11.6729 12.783 11.7291 12.7318 11.7981 12.7534C11.881 12.7732 11.9796 12.8252 11.9664 12.9032C11.9442 12.9298 11.9157 12.9525 11.8905 12.9773C11.8637 12.9371 11.8336 12.8856 11.7707 12.8771C11.6888 12.8983 11.6398 12.9633 11.614 13.0252C11.5596 13.1605 11.5475 13.3033 11.5323 13.4439C11.5125 13.4522 11.4927 13.4604 11.4725 13.468C11.4731 13.3386 11.4375 13.2013 11.3278 13.101C11.303 13.0678 11.2478 13.0845 11.2104 13.0685C11.1407 13.0487 11.1155 12.9886 11.0986 12.9371C11.0902 12.9023 11.0751 12.8605 11.1045 12.8295C11.1662 12.8155 11.2145 12.8583 11.2584 12.8853C11.3717 12.9704 11.4499 13.08 11.5139 13.1916C11.5409 13.067 11.5694 12.9392 11.6443 12.8261Z" fill="white"/>
<path d="M4.4924 13.5302C4.53889 13.4646 4.58257 13.3932 4.6639 13.3498C4.56516 13.5075 4.46248 13.6673 4.41936 13.8415C4.40503 13.9081 4.39787 13.985 4.45223 14.0422C4.4945 14.0781 4.56235 14.0847 4.62022 14.0735C4.70801 14.0582 4.74888 13.9855 4.78512 13.9278C4.81293 13.9709 4.78413 14.0173 4.77135 14.0602C4.73498 14.151 4.69157 14.2493 4.59115 14.3084C4.51403 14.355 4.40349 14.3364 4.32933 14.2952C4.23157 14.2348 4.22932 14.1251 4.24646 14.0363C4.28508 13.8566 4.38495 13.6898 4.4924 13.5302Z" fill="white"/>
<path d="M19.0326 14.6246C19.0375 14.6206 19.044 14.619 19.052 14.62C19.0228 14.6465 19.0067 14.6798 18.9843 14.7098C18.9204 14.8053 18.8466 14.9067 18.8636 15.0191C18.8654 15.0719 18.9029 15.1401 18.9808 15.1396C19.0188 15.1247 19.0286 15.0862 19.0477 15.0586C19.0454 15.1409 19.03 15.2408 18.9323 15.2879C18.8512 15.2776 18.7903 15.2206 18.7871 15.1563C18.7705 14.9618 18.8734 14.77 19.0326 14.6246Z" fill="white"/>
<path d="M14.124 14.6536C14.1992 14.6245 14.3028 14.6287 14.3621 14.6794C14.4117 14.7258 14.417 14.7897 14.4134 14.8478C14.3736 14.8897 14.3278 14.9283 14.2945 14.974C14.2249 14.9842 14.1517 14.9752 14.0836 14.9914C14.0493 15.0072 14.0045 15.0168 13.9881 15.0485C13.9666 15.0896 13.9765 15.1351 13.9857 15.1776C14.0211 15.3258 14.0865 15.4715 14.0831 15.6242C14.0794 15.6778 14.0749 15.7333 14.0428 15.7818C14.0354 15.6969 13.9976 15.6166 13.9702 15.535C13.9185 15.3862 13.8775 15.2335 13.8715 15.0788C13.8647 15.0192 13.908 14.968 13.9517 14.9231C14.0162 14.8517 14.1317 14.8308 14.2344 14.8154C14.2077 14.7959 14.1775 14.7735 14.1381 14.7778C14.0829 14.7842 14.0455 14.8207 14.0152 14.8544C14.0097 14.78 14.0354 14.6923 14.124 14.6536Z" fill="white"/>
<path d="M17.5085 14.7852C17.5841 14.7346 17.689 14.7297 17.7835 14.7298C17.8785 14.7351 17.9789 14.7384 18.0626 14.7785C18.1022 14.815 18.0646 14.8581 18.024 14.881C17.8594 14.975 17.678 15.0566 17.5445 15.18C17.5082 15.2119 17.5271 15.2616 17.5728 15.2803C17.6421 15.3077 17.7223 15.3091 17.7984 15.3075C17.9792 15.2997 18.1528 15.2456 18.3041 15.1685C18.3462 15.1473 18.384 15.1208 18.4275 15.1011C18.3343 15.1906 18.2295 15.2727 18.1139 15.3441C18.0164 15.402 17.9066 15.4522 17.7847 15.4673C17.6887 15.4738 17.5855 15.4701 17.5026 15.4272C17.4103 15.384 17.3671 15.2872 17.4012 15.2073C17.4218 15.1624 17.46 15.1244 17.5002 15.0894C17.6039 15.0025 17.7306 14.936 17.857 14.8719C17.7713 14.8686 17.6845 14.865 17.5994 14.8732C17.5438 14.8776 17.5064 14.9107 17.4669 14.9374C17.455 14.8853 17.4547 14.8235 17.5085 14.7852Z" fill="white"/>
<path d="M22.1567 14.8753C22.2743 14.9383 22.3779 15.0185 22.4554 15.1129C22.462 15.1131 22.475 15.1136 22.4816 15.1139C22.4776 15.1162 22.4698 15.121 22.4658 15.1235C22.6091 15.2981 22.646 15.5244 22.5571 15.7208C22.5494 15.7369 22.5331 15.7489 22.5192 15.7618C22.5467 15.6531 22.5549 15.538 22.5118 15.4312C22.4526 15.2761 22.3059 15.1469 22.1272 15.0707L22.1401 15.0696C22.1431 15.0046 22.1519 14.94 22.1567 14.8753Z" fill="white"/>
<path d="M23.9059 15.623C24.4688 15.4074 25.0297 15.1887 25.5928 14.9736C25.563 15.0532 25.5241 15.1441 25.4241 15.1843C24.9051 15.3824 24.3871 15.5821 23.8682 15.78C23.834 15.7937 23.8001 15.8085 23.7628 15.8157C23.797 15.7613 23.8292 15.7061 23.8622 15.6513C23.8692 15.636 23.889 15.6299 23.9059 15.623Z" fill="white"/>
</g>
<defs>
<clipPath id="clip0_464_35899">
<rect width="31.9999" height="31.9999" rx="15.8967" fill="white"/>
</clipPath>
</defs>
</svg>
