<svg width="19" height="21" viewBox="0 0 19 21" fill="none" xmlns="http://www.w3.org/2000/svg">
<g clip-path="url(#clip0_464_32711)">
<path d="M12.5537 18.6063C12.1938 19.3497 11.9558 20.1566 11.8647 21.0027L19.4811 19.4943C19.841 18.751 20.0787 17.944 20.1701 17.0979L12.5537 18.6063Z" fill="white"/>
<path d="M19.4799 14.973C19.8398 14.2297 20.0777 13.4227 20.1689 12.5766L14.2359 13.7522V11.4924L19.4797 10.4542C19.8397 9.71091 20.0776 8.90392 20.1687 8.05782L14.2358 9.23237V1.10534C13.3267 1.58088 12.5193 2.21386 11.863 2.96051V9.70238L9.49021 10.1722V0C8.58111 0.475366 7.77374 1.10852 7.11744 1.85516V10.6419L1.80833 11.6929C1.44843 12.4362 1.21034 13.2432 1.11902 14.0893L7.11744 12.9017V15.7476L0.688958 17.0202C0.329049 17.7636 0.0911434 18.5705 0 19.4166L6.72882 18.0845C7.27658 17.9783 7.74737 17.6766 8.05345 17.2614L9.28747 15.557C9.41558 15.3807 9.49021 15.1678 9.49021 14.9388V12.4319L11.863 11.962V16.4817L19.4799 14.973Z" fill="white"/>
</g>
<defs>
<clipPath id="clip0_464_32711">
<rect width="18.1294" height="20.1818" fill="white" transform="scale(1.04055)"/>
</clipPath>
</defs>
</svg>
