<svg width="119" height="117" viewBox="0 0 119 117" fill="none" xmlns="http://www.w3.org/2000/svg">
<g opacity="0.5" filter="url(#filter0_g_464_36758)">
<path d="M68.8848 5.67572C67.9488 6.08523 62.6253 11.6135 60.3731 14.48C57.7405 17.873 56.4536 21.6755 56.4536 26.063C56.4536 27.4377 56.9216 32.966 57.4773 38.348C58.0331 43.73 58.5011 48.2637 58.5011 48.41C58.5011 48.5855 57.6528 49.2875 56.6291 49.9602C53.3823 52.0955 51.13 54.962 50.1356 58.1795C49.6091 59.9637 49.6091 63.737 50.194 66.1062C50.7206 68.4462 52.534 72.2487 53.0898 72.2487C53.2945 72.2487 55.108 70.4645 57.0971 68.3L60.6948 64.3805L62.6838 64.3512C63.7661 64.3512 64.6436 64.4097 64.6436 64.4682C64.6436 64.5267 64.4388 65.1117 64.2048 65.7845C62.8886 69.5285 62.4791 74.735 63.298 77.3675C63.6783 78.5667 63.7661 80.5557 63.7661 88.3362V97.8717L62.4791 98.954C61.7478 99.539 60.9288 100.446 60.6363 100.914C60.1683 101.733 59.9928 101.791 58.5011 101.791C57.3603 101.791 56.4243 101.996 55.4883 102.464L54.1428 103.166L54.0551 93.923C53.9673 83.6855 53.9381 83.51 52.0075 82.1352C51.1008 81.521 50.7498 81.4625 47.035 81.4625C42.6768 81.4625 42.2088 81.6087 40.834 83.4807C40.249 84.2705 40.2198 84.68 40.132 97.2282C40.0443 110.04 40.0443 110.157 40.6585 110.946C41.2435 111.678 41.419 111.736 43.642 111.736C45.748 111.736 46.0698 111.648 46.6548 111.034C47.0935 110.566 48.0588 110.157 49.843 109.747C51.2763 109.396 52.4463 109.104 52.4756 109.045C52.5048 108.987 52.6803 108.314 52.8851 107.553C53.6455 104.511 55.7223 102.961 58.9398 102.961C59.9928 102.961 60.8411 102.844 60.8411 102.698C60.8411 102.552 61.5138 101.674 62.3621 100.767C63.9123 99.071 65.1993 98.252 67.7148 97.4037L69.1773 96.9065L69.2651 93.806L69.3528 90.7055L70.0548 91.0272C71.0201 91.466 72.1608 91.0857 72.6581 90.1497C73.0675 89.4185 73.0968 89.6232 73.1261 93.104C73.1261 95.8242 73.2138 96.8772 73.5063 96.965C77.572 98.369 79.0638 99.3342 80.7311 101.586C81.7548 102.961 81.7548 102.961 83.4806 102.961C85.8498 102.961 87.5463 103.809 88.6578 105.535C89.1258 106.266 89.5061 107.202 89.5061 107.612C89.5061 108.811 89.8863 109.104 91.8753 109.572C94.4493 110.157 95.4146 110.566 95.9996 111.268C96.3798 111.736 96.5846 111.795 96.8478 111.531C97.7546 110.625 95.9996 109.367 92.8113 108.636C91.1148 108.226 90.6761 108.021 90.6761 107.583C90.6761 106.647 89.7986 104.892 88.8333 103.868C87.5171 102.493 85.8791 101.791 83.9193 101.791C82.3398 101.791 82.2521 101.762 81.4623 100.621C81.0236 100.007 79.9706 98.9247 79.0931 98.2812L77.5136 97.082V88.9505C77.5136 81.053 77.5428 80.7605 78.274 78.362C78.9468 76.1682 79.0053 75.554 78.8883 72.6875C78.7421 69.8795 78.1863 67.0422 77.3673 64.8485C77.1918 64.4097 77.3673 64.3512 79.1516 64.3805H81.1698L84.7676 68.3292C86.7566 70.4937 88.5701 72.2487 88.7748 72.2487C89.3013 72.2487 91.0856 68.534 91.6706 66.2232C92.2556 63.971 92.2556 60.3147 91.7291 58.2672C90.8808 55.1082 87.9266 51.452 84.6798 49.5507C83.9486 49.1412 83.3636 48.6147 83.3636 48.41C83.3636 48.2052 83.8316 43.6715 84.3873 38.2895C85.4988 27.5547 85.6158 24.4542 84.9723 21.7047C84.5043 19.7157 83.0418 16.6152 81.6671 14.7432C79.9413 12.374 74.0328 6.23148 73.0383 5.76348C71.8098 5.17848 70.0841 5.14923 68.8848 5.67572ZM72.6288 6.81647C73.5648 7.22597 80.2338 14.5385 81.5501 16.586C83.4513 19.5402 84.6213 24.1617 84.3288 27.4962C84.2118 28.5785 82.6908 43.496 81.9303 50.4575L81.7548 52.2125L76.5776 52.3002L71.3711 52.3587V50.4575C71.3711 48.9657 71.2833 48.5562 70.9323 48.5562C70.5813 48.5562 70.4936 48.9657 70.4936 50.4575V52.3587L65.3163 52.3002L60.1098 52.2125L59.9051 50.4575C58.5888 39.1377 57.565 28.286 57.565 26.0337C57.565 22.553 58.5303 19.3062 60.3438 16.586C62.0696 14.0412 68.3876 7.10897 69.2943 6.75798C70.3473 6.37772 71.6636 6.40697 72.6288 6.81647ZM59.2323 56.2197C59.5541 59.4957 59.8173 62.5085 59.8173 62.918C59.8173 63.503 58.969 64.5852 56.5413 67.247L53.2361 70.7862L52.6803 69.6747C51.1008 66.5157 50.428 62.4792 51.0423 59.6127C51.5395 57.2142 52.3293 55.6055 53.9088 53.8797C55.3713 52.3002 57.8283 50.3112 58.3256 50.3112C58.5596 50.3112 58.8521 52.154 59.2323 56.2197ZM85.3233 51.4227C87.2246 52.9437 89.0381 54.9912 89.7401 56.366C91.5536 59.9052 91.4073 64.7607 89.3598 69.2652L88.6578 70.8155L86.6688 68.6802C85.5866 67.5102 84.0656 65.8722 83.2758 65.0532L81.9011 63.5615L82.5446 56.9217C83.0126 52.4757 83.3343 50.3112 83.5683 50.3112C83.7438 50.3112 84.5336 50.8085 85.3233 51.4227ZM70.4351 58.2672L70.5228 62.8887H65.8721H61.2213L60.8703 58.9985C60.6948 56.8925 60.4608 54.7865 60.3731 54.3185L60.1976 53.5287L65.2871 53.5872L70.3473 53.675L70.4351 58.2672ZM81.5208 54.1722C81.4331 54.5525 81.1991 56.6585 80.9943 58.8522L80.6141 62.8887H75.9926H71.3711V58.4135C71.3711 55.9272 71.4588 53.8212 71.5758 53.7335C71.6636 53.6165 74.0036 53.5287 76.7238 53.5287H81.6671L81.5208 54.1722ZM68.2706 65.8722C67.6563 68.183 67.7441 72.2195 68.4168 74.033C69.1773 76.022 69.7916 76.6362 70.9616 76.6362C73.0091 76.6362 74.1498 73.7112 73.9158 69.0605C73.8281 67.364 73.6233 65.609 73.4478 65.141L73.1261 64.3512H74.5593H75.9633L76.7238 66.896C77.7476 70.289 78.1571 73.5942 77.8353 75.3785C77.6891 76.139 77.1626 77.8355 76.6653 79.1517C75.4661 82.4277 71.7513 89.7987 71.1956 90.0035C70.9323 90.0912 70.5521 89.9742 70.3473 89.7695C69.6746 89.0675 65.9013 81.287 64.9068 78.5375C63.5321 74.7057 63.6198 71.6345 65.2871 66.311L65.9013 64.3512H67.2761H68.6508L68.2706 65.8722ZM70.4936 68.3C70.4936 71.6052 70.5521 72.2487 70.9323 72.2487C71.3126 72.2487 71.3711 71.6052 71.3711 68.2707C71.3711 65.3165 71.4588 64.322 71.7221 64.4097C72.5118 64.673 73.2431 69.4992 72.8336 71.7222C72.4826 73.5357 71.7221 75.3785 71.2248 75.554C69.7623 76.139 68.4461 71.4005 69.0603 67.7442C69.4698 65.3165 69.7916 64.3512 70.2011 64.3512C70.3766 64.3512 70.4936 65.7845 70.4936 68.3ZM68.0951 92.168L68.0073 95.9997L66.5448 96.5555C65.7551 96.848 65.0531 97.1112 65.0238 97.1112C64.9653 97.1112 64.9361 93.7182 64.9653 89.5647V82.0475L66.5741 85.2065L68.1828 88.3655L68.0951 92.168ZM51.832 83.5977L52.7973 84.5337L52.8851 94.508C52.9435 103.137 52.9143 104.599 52.5048 105.184C52.2708 105.564 51.9491 106.354 51.832 106.968C51.5981 108.109 51.6273 108.08 48.7608 108.84C47.971 109.016 46.8595 109.513 46.3038 109.893C45.4263 110.478 44.9875 110.566 43.3203 110.508L41.3898 110.42L41.302 97.901C41.2435 86.9615 41.302 85.2357 41.7115 84.3875C42.4428 82.808 43.4958 82.457 47.4445 82.5447L50.8961 82.6325L51.832 83.5977ZM76.5191 96.4385C76.4606 96.497 75.9341 96.4677 75.3491 96.38L74.2961 96.1752V91.6707V87.1662L75.4076 85.031L76.4898 82.925L76.5776 89.6232C76.6068 93.3087 76.6068 96.38 76.5191 96.4385Z" fill="url(#paint0_linear_464_36758)"/>
<path d="M68.0074 20.1537C65.6381 21.2652 64.2926 23.4882 64.3219 26.3547C64.3219 30.0987 67.1299 32.8189 70.9324 32.8189C74.8519 32.8189 77.5136 30.0987 77.5136 26.1207C77.4844 23.2834 76.0804 21.0604 73.6526 20.0659C72.1609 19.4224 69.4699 19.4809 68.0074 20.1537ZM73.4186 21.2067C74.2961 21.6747 75.5539 22.9617 76.0511 23.9562C76.7239 25.2724 76.5484 27.5247 75.6709 29.0164C74.8226 30.4789 72.5704 31.8829 71.0786 31.8829C67.5101 31.8829 64.6144 28.2267 65.5211 24.8922C65.8429 23.6344 67.2176 21.8502 68.2706 21.2944C69.8209 20.4754 71.8684 20.4462 73.4186 21.2067Z" fill="url(#paint1_linear_464_36758)"/>
<path d="M23.166 96.7888C22.6395 96.935 21.8497 97.3445 21.4402 97.7248C20.007 99.0995 19.89 99.626 19.89 105.301C19.89 112.291 19.305 111.736 26.7637 111.736C34.2225 111.736 33.6375 112.291 33.6375 105.271C33.6375 99.275 33.4327 98.456 31.6192 97.3445C30.7125 96.7595 30.1275 96.6718 27.3487 96.6133C25.5937 96.584 23.6925 96.6718 23.166 96.7888ZM30.9172 98.2805C31.4145 98.573 31.9995 99.0995 32.175 99.4213C32.3797 99.8015 32.4382 101.878 32.409 105.213L32.3212 110.419H26.7637H21.2062L21.1477 105.301C21.06 99.5675 21.177 99.041 22.815 98.222C24.336 97.4323 29.6302 97.4908 30.9172 98.2805Z" fill="url(#paint2_linear_464_36758)"/>
<path d="M22.2092 26.9018C19.2915 27.7292 16.5045 29.5146 14.4142 31.8662C12.0191 34.6096 11.1046 36.4822 10.4514 40.0095C9.05789 47.4126 12.9772 54.7721 19.9883 58.0381C22.1221 59.0397 23.0366 59.2139 26.6075 59.2139C30.2219 59.2139 31.0928 59.0397 33.4008 57.9946C36.754 56.4269 40.1071 53.0737 41.7184 49.6335C42.7635 47.369 42.9377 46.4981 42.9377 42.8836C42.9377 39.2692 42.7635 38.3983 41.7184 36.0903C40.1507 32.7371 36.754 29.3404 33.4444 27.8598C30.3961 26.4663 25.301 26.0308 22.2092 26.9018ZM32.7476 29.6888C38.6701 32.3016 42.2845 39.1386 41.0216 45.3658C40.1071 50.0689 37.4072 53.7705 33.4444 55.7736C24.6478 60.259 14.3707 55.3817 12.411 45.8013C9.97239 34.0871 21.6866 24.7679 32.7476 29.6888Z" fill="url(#paint3_linear_464_36758)"/>
<path d="M23.2977 31.127C19.1607 32.4335 15.285 36.8317 14.6318 40.9252C13.7609 47.0218 17.7237 53.0749 23.6897 54.6861C27.7831 55.7748 32.791 54.2071 35.7958 50.8104C42.415 43.2767 37.4071 31.4319 27.3041 30.8658C25.867 30.7787 24.038 30.9093 23.2977 31.127ZM25.7364 33.2173C25.7364 33.6528 24.9961 34.4802 24.1251 35.0898C22.0349 36.4398 21.3816 38.3994 22.3832 40.4897C22.9058 41.5784 23.8638 42.3622 26.1719 43.538C29.4814 45.2799 30.1782 46.4122 29.3073 48.3282C28.2621 50.6362 24.8654 50.0701 23.7332 47.4573C23.08 45.8025 22.3832 45.4977 21.9478 46.6299C21.5558 47.7186 22.9494 50.1572 24.43 50.9411C25.6057 51.5507 26.346 53.3362 25.388 53.3362C23.6897 53.3362 20.7284 51.6814 19.0736 49.8524C15.0237 45.367 15.1544 39.9236 19.422 35.6995C22.122 32.956 25.7364 31.5625 25.7364 33.2173ZM31.3975 33.5221C32.8781 34.306 35.2297 36.6576 36.1006 38.2688C37.1022 40.1413 37.1022 45.6718 36.1006 47.5008C34.5765 50.3314 31.7895 52.4652 28.9153 53.1184C27.6525 53.3797 27.4783 53.2926 27.4783 52.5088C27.4783 51.9427 27.8702 51.4201 28.5234 51.1588C30.3088 50.5056 31.5282 48.546 31.2669 46.6734C30.9621 44.5832 30.4395 43.93 27.7396 42.58C24.8654 41.1429 23.559 39.9236 23.559 38.6607C23.559 37.3543 24.9961 35.9172 26.346 35.9172C27.696 35.9172 29.5685 37.4414 29.7427 38.6607C29.8734 39.7494 31.0927 39.9671 31.3104 38.922C31.5717 37.6156 30.5266 35.8737 29.0024 35.0028C28.0879 34.4366 27.4783 33.7399 27.4783 33.2173C27.4783 32.477 27.6525 32.3899 28.9153 32.6512C29.6556 32.8254 30.7879 33.2173 31.3975 33.5221Z" fill="url(#paint4_linear_464_36758)"/>
<path d="M98.0016 74.9607C95.5834 75.6465 93.2734 77.1263 91.5409 79.0754C89.5558 81.3492 88.7978 82.9012 88.2564 85.8248C87.1015 91.9607 90.3499 98.0604 96.1609 100.767C97.9294 101.598 98.6874 101.742 101.647 101.742C104.643 101.742 105.365 101.598 107.278 100.731C110.057 99.432 112.836 96.6528 114.171 93.8014C115.038 91.9246 115.182 91.2027 115.182 88.207C115.182 85.2112 115.038 84.4893 114.171 82.5764C112.872 79.7972 110.057 76.9819 107.314 75.7548C104.787 74.5998 100.564 74.2389 98.0016 74.9607ZM106.736 77.2707C111.645 79.4363 114.641 85.1029 113.594 90.2643C112.836 94.1623 110.598 97.2303 107.314 98.8906C100.023 102.608 91.5048 98.5657 89.8806 90.6252C87.8594 80.9161 97.5685 73.1922 106.736 77.2707Z" fill="url(#paint5_linear_464_36758)"/>
<path d="M98.9045 78.4651C95.4757 79.5479 92.2634 83.1933 91.722 86.586C91.0001 91.6391 94.2846 96.6561 99.2294 97.9915C102.622 98.8939 106.773 97.5945 109.263 94.7792C114.749 88.5351 110.599 78.7177 102.225 78.2485C101.034 78.1763 99.5181 78.2846 98.9045 78.4651ZM100.926 80.1975C100.926 80.5585 100.312 81.2442 99.5903 81.7495C97.8578 82.8684 97.3164 84.4926 98.1466 86.2251C98.5797 87.1274 99.3737 87.7771 101.287 88.7516C104.03 90.1954 104.607 91.1338 103.885 92.7219C103.019 94.6348 100.204 94.1656 99.2655 92C98.7241 90.6285 98.1466 90.3758 97.7856 91.3143C97.4608 92.2166 98.6158 94.2378 99.8429 94.8875C100.817 95.3928 101.431 96.8726 100.637 96.8726C99.2294 96.8726 96.775 95.5011 95.4035 93.9852C92.0468 90.2676 92.1551 85.7559 95.6922 82.2549C97.93 79.981 100.926 78.826 100.926 80.1975ZM105.618 80.4502C106.845 81.0999 108.794 83.0489 109.516 84.3844C110.346 85.9364 110.346 90.5202 109.516 92.0361C108.253 94.3822 105.943 96.1508 103.561 96.6922C102.514 96.9087 102.369 96.8365 102.369 96.1869C102.369 95.7176 102.694 95.2845 103.236 95.068C104.716 94.5266 105.726 92.9024 105.51 91.3504C105.257 89.6179 104.824 89.0765 102.586 87.9576C100.204 86.7665 99.1211 85.7559 99.1211 84.7092C99.1211 83.6264 100.312 82.4353 101.431 82.4353C102.55 82.4353 104.102 83.6986 104.246 84.7092C104.355 85.6115 105.365 85.792 105.546 84.9258C105.762 83.843 104.896 82.3992 103.633 81.6774C102.875 81.2081 102.369 80.6307 102.369 80.1975C102.369 79.584 102.514 79.5118 103.561 79.7283C104.174 79.8727 105.113 80.1975 105.618 80.4502Z" fill="url(#paint6_linear_464_36758)"/>
</g>
<defs>
<filter id="filter0_g_464_36758" x="-3.05217" y="-3.05217" width="123.104" height="123.104" filterUnits="userSpaceOnUse" color-interpolation-filters="sRGB">
<feFlood flood-opacity="0" result="BackgroundImageFix"/>
<feBlend mode="normal" in="SourceGraphic" in2="BackgroundImageFix" result="shape"/>
<feTurbulence type="fractalNoise" baseFrequency="1.4041749238967896 1.4041749238967896" numOctaves="3" seed="6081" />
<feDisplacementMap in="shape" scale="6.104245662689209" xChannelSelector="R" yChannelSelector="G" result="displacedImage" width="100%" height="100%" />
<feMerge result="effect1_texture_464_36758">
<feMergeNode in="displacedImage"/>
</feMerge>
</filter>
<linearGradient id="paint0_linear_464_36758" x1="68.5882" y1="111.736" x2="68.5882" y2="5.30163" gradientUnits="userSpaceOnUse">
<stop stop-color="#6AE499"/>
<stop offset="1" stop-color="white"/>
</linearGradient>
<linearGradient id="paint1_linear_464_36758" x1="70.9175" y1="32.8189" x2="70.9175" y2="19.6147" gradientUnits="userSpaceOnUse">
<stop stop-color="#6AE499"/>
<stop offset="1" stop-color="white"/>
</linearGradient>
<linearGradient id="paint2_linear_464_36758" x1="26.7637" y1="111.746" x2="26.7637" y2="96.6076" gradientUnits="userSpaceOnUse">
<stop stop-color="#6AE499"/>
<stop offset="1" stop-color="white"/>
</linearGradient>
<linearGradient id="paint3_linear_464_36758" x1="26.5549" y1="59.2139" x2="26.5549" y2="26.4524" gradientUnits="userSpaceOnUse">
<stop stop-color="#6AE499"/>
<stop offset="1" stop-color="white"/>
</linearGradient>
<linearGradient id="paint4_linear_464_36758" x1="26.6531" y1="55.0283" x2="26.6531" y2="30.8385" gradientUnits="userSpaceOnUse">
<stop stop-color="#6AE499"/>
<stop offset="1" stop-color="white"/>
</linearGradient>
<linearGradient id="paint5_linear_464_36758" x1="101.603" y1="101.742" x2="101.603" y2="74.5883" gradientUnits="userSpaceOnUse">
<stop stop-color="#6AE499"/>
<stop offset="1" stop-color="white"/>
</linearGradient>
<linearGradient id="paint6_linear_464_36758" x1="101.686" y1="98.2751" x2="101.686" y2="78.2259" gradientUnits="userSpaceOnUse">
<stop stop-color="#6AE499"/>
<stop offset="1" stop-color="white"/>
</linearGradient>
</defs>
</svg>
